<svg width="16" height="16" viewBox="0 0 16 16" fill="none" xmlns="http://www.w3.org/2000/svg">
<g clip-path="url(#clip0)">
<path d="M15.4592 3.15216L10.6113 8.00056L15.4592 12.8487C16.1803 13.5701 16.1803 14.7386 15.4592 15.46C15.0989 15.8203 14.6265 16.0006 14.1544 16.0006C13.6814 16.0006 13.209 15.8206 12.849 15.46L8.00004 10.6113L3.15143 15.46C2.79118 15.8203 2.31876 16.0006 1.8462 16.0006C1.37378 16.0006 0.901677 15.8205 0.541103 15.46C-0.18 14.7389 -0.18 13.5703 0.541103 12.8487L5.38888 8.00051L0.540827 3.15216C-0.180276 2.43106 -0.180276 1.26225 0.540827 0.541145C1.26179 -0.179405 2.42992 -0.179405 3.15116 0.541145L7.99999 5.38955L12.8485 0.541145C13.5698 -0.179405 14.7381 -0.179405 15.4589 0.541145C16.1803 1.26225 16.1803 2.43106 15.4592 3.15216Z" fill="#FCB8B8"/>
</g>
<defs>
<clipPath id="clip0">
<rect width="16" height="16" fill="white"/>
</clipPath>
</defs>
</svg>
