<svg width="29" height="29" viewBox="0 0 29 29" fill="none" xmlns="http://www.w3.org/2000/svg">
<g opacity="1">
<path d="M14.4953 0C6.48627 0 0 6.48613 0 14.4951C0 22.5041 6.48627 28.9903 14.4953 28.9903C22.5043 28.9903 28.9904 22.5041 28.9904 14.4951C28.9904 6.48613 22.5043 0 14.4953 0ZM14.4953 26.7907C7.7271 26.7907 2.25606 21.2632 2.25606 14.5514C2.25606 7.83968 7.7835 2.31237 14.4953 2.31237C21.207 2.31237 26.7343 7.83968 26.7343 14.5514C26.7343 21.2632 21.2634 26.7907 14.4953 26.7907Z" fill="white"/>
<path d="M18.8381 8.573L14.4952 12.9159L10.1522 8.573L8.5166 10.1523L12.8595 14.4951L8.5166 18.8945L10.1522 20.4736L14.4952 16.1307L18.8381 20.4736L20.4173 18.8945L16.0743 14.4951L20.4173 10.1523L18.8381 8.573Z" fill="white"/>
</g>
</svg>
