<svg width="29" height="29" viewBox="0 0 29 29" fill="none" xmlns="http://www.w3.org/2000/svg">
<path d="M14.4953 0C6.48627 0 0 6.48613 0 14.4951C0 22.5041 6.48627 28.9903 14.4953 28.9903C22.5043 28.9903 28.9904 22.5041 28.9904 14.4951C28.9904 6.48613 22.5043 0 14.4953 0ZM14.4953 26.7907C7.7271 26.7907 2.25606 21.2633 2.25606 14.5516C2.25606 7.83982 7.7835 2.31251 14.4953 2.31251C21.207 2.31251 26.7343 7.83982 26.7343 14.5516C26.7343 21.2633 21.2634 26.7907 14.4953 26.7907Z" fill="#FED209"/>
<path d="M12.9719 17.7665L10.039 13.5364L8.17773 14.7772L13.0848 21.9966L20.868 8.62949L18.894 7.50146L12.9719 17.7665Z" fill="#FED209"/>
</svg>
