<svg xmlns="http://www.w3.org/2000/svg" viewBox="0 0 60 60"><defs><style>.cls-1{fill:#ffd100;}.cls-2{fill:none;}.cls-2,.cls-3{stroke:#000;stroke-linecap:round;stroke-linejoin:round;stroke-width:2px;}.cls-3{fill:#fff;}</style></defs><title>01_icons_sunsay_website_02</title><g id="_2" data-name="2"><ellipse class="cls-1" cx="43.5" cy="32.1" rx="6.79" ry="6.2" transform="matrix(0.08, -1, 1, 0.08, 8.2, 73.04)"/><path class="cls-2" d="M37.19,30.73a6.2,6.2,0,0,0,3.37,7.44c3.06,1.24,6.65-.52,8-3.92s0-7.16-3.06-8.4a5.81,5.81,0,0,0-5.46.71"/><path class="cls-2" d="M1.12,38.39h3.3A1.58,1.58,0,0,1,6,40V54a1.58,1.58,0,0,1-1.58,1.58H1.12a0,0,0,0,1,0,0V38.39A0,0,0,0,1,1.12,38.39Z"/><path class="cls-2" d="M26.89,49.32v2a2.36,2.36,0,0,1-2.42,2.29h0a2.36,2.36,0,0,1-2.41-2.29V49"/><line class="cls-2" x1="26.62" y1="48.97" x2="10.57" y2="48.97"/><line class="cls-2" x1="10.57" y1="44.97" x2="26.62" y2="44.97"/><path class="cls-2" d="M6,41.48a4.48,4.48,0,0,1,4,4.57v1.84a4.47,4.47,0,0,1-4,4.57"/><circle cx="23.47" cy="26.07" r="1"/><circle cx="20.05" cy="24.86" r="1"/><circle cx="16.64" cy="23.65" r="1"/><circle cx="13.22" cy="22.44" r="1"/><path class="cls-2" d="M33.91,32.42a9.08,9.08,0,0,0,5.61,8.95c4.65,1.75,10-1,11.94-6.18s-.24-10.78-4.9-12.53a8.11,8.11,0,0,0-3.32-.52"/><path class="cls-2" d="M39.52,41.37l-29.19-11a1.87,1.87,0,0,1-.71-2.19l.69-1.84"/><polyline class="cls-2" points="20.4 34.45 19.33 37.3 30.56 41.52 31.63 38.68"/><line class="cls-2" x1="17.08" y1="7.53" x2="52.58" y2="20.89"/><line class="cls-2" x1="30.17" y1="27.46" x2="37.47" y2="30.2"/><path class="cls-2" d="M39.69,26.73a10,10,0,1,1,8.22,13.46"/><path class="cls-2" d="M39.69,26.73a10,10,0,0,1-2.21,3.48"/><path class="cls-2" d="M17.08,7.53,13.28,6.1A6,6,0,0,0,5.55,9.6L2,19a4,4,0,0,0,2.34,5.15L19.5,29.82a10,10,0,0,0,10.61-2.3l.06-.06"/><ellipse class="cls-3" cx="43.04" cy="32.01" rx="2.22" ry="2" transform="translate(-3.64 58.43) rotate(-66.15)"/><polyline class="cls-2" points="23.47 48.97 28.71 48.97 28.71 44.97 23.47 44.97"/><line class="cls-2" x1="22.06" y1="44.27" x2="22.06" y2="38.27"/><line class="cls-2" x1="27.06" y1="40.27" x2="27.06" y2="44.27"/></g></svg>