<svg xmlns="http://www.w3.org/2000/svg" viewBox="0 0 60 60"><defs><style>.cls-1{fill:#ffd100;}.cls-2{fill:none;stroke:#000;stroke-linecap:round;stroke-linejoin:round;stroke-width:2px;}</style></defs><title>01_icons_sunsay_website_02</title><g id="_4" data-name="4"><rect class="cls-1" x="24.5" y="20" width="11" height="18"/><path class="cls-2" d="M50.79,8h.42A1.79,1.79,0,0,1,53,9.79V12a0,0,0,0,1,0,0H49a0,0,0,0,1,0,0V9.79A1.79,1.79,0,0,1,50.79,8Z"/><line class="cls-2" x1="35" y1="21" x2="24" y2="21"/><path class="cls-2" d="M46,12h8a2.18,2.18,0,0,1,2,2V37a2.18,2.18,0,0,1-2,2H46"/><polyline class="cls-2" points="47 17 51 17 51 34 47 34"/><path class="cls-2" d="M14,12H8c-1.18,0-1.84,1.16-1,2l7,8"/><path class="cls-2" d="M31.46,14H28.54C26,14,24,16,24,19.07V39H36V18.43A4.48,4.48,0,0,0,31.46,14Z"/><path class="cls-2" d="M13.54,53H46.71a5.92,5.92,0,0,1,5.92,5.92V59a0,0,0,0,1,0,0h-45a0,0,0,0,1,0,0v-.08A5.92,5.92,0,0,1,13.54,53Z"/><path class="cls-2" d="M40,8H20V5a1.77,1.77,0,0,1,1.9-2H38.1A1.77,1.77,0,0,1,40,5Z"/><line class="cls-2" x1="46" y1="39" x2="15" y2="39"/><circle class="cls-2" cx="30" cy="46" r="2"/><circle cx="30" cy="18" r="1"/><circle cx="30" cy="24" r="1"/><circle cx="30" cy="27" r="1"/><circle cx="30" cy="30" r="1"/><circle cx="30" cy="33" r="1"/><path class="cls-2" d="M40.6,8H19.4A5.32,5.32,0,0,0,14,13.24V47.76A5.32,5.32,0,0,0,19.4,53H40.6A5.32,5.32,0,0,0,46,47.76V13.24A5.32,5.32,0,0,0,40.6,8Z"/><line class="cls-2" x1="45" y1="11" x2="15" y2="11"/><path class="cls-2" d="M35,42.68A6,6,0,0,1,35.2,49"/></g></svg>