<svg xmlns="http://www.w3.org/2000/svg" viewBox="0 0 60 60"><defs><style>.cls-1{fill:#ffd100;}.cls-2{font-size:18px;font-family:BebasNeueBold, Bebas Neue;}.cls-3{fill:none;}.cls-3,.cls-4{stroke:#000;stroke-linecap:round;stroke-linejoin:round;stroke-width:2px;}.cls-4{fill:#fff;}</style></defs><title>01_icons_sunsay_website_02</title><g id="_5" data-name="5"><path class="cls-1" d="M26,20a7,7,0,1,0,7,7A7,7,0,0,0,26,20Z"/><text class="cls-2" transform="translate(48.38 52.22)">5</text><line class="cls-3" x1="40.38" y1="43.22" x2="46.38" y2="49.22"/><line class="cls-3" x1="46.38" y1="43.22" x2="40.38" y2="49.22"/><line class="cls-3" x1="35.1" y1="49" x2="17.1" y2="49"/><line class="cls-3" x1="35.1" y1="46" x2="17.1" y2="46"/><path class="cls-3" d="M18.1,52h16a0,0,0,0,1,0,0v3.75A2.25,2.25,0,0,1,31.85,58H20.35a2.25,2.25,0,0,1-2.25-2.25V52A0,0,0,0,1,18.1,52Z"/><circle class="cls-4" cx="26" cy="27" r="3"/><line class="cls-3" x1="26" y1="30" x2="26" y2="42"/><path class="cls-3" d="M35,39V37c5.81-3.22,9.88-8.64,9.88-15.76a18.88,18.88,0,0,0-37.76,0C7.12,28.29,11.27,33.76,17,37v2"/><rect class="cls-3" x="16.1" y="39.83" width="20" height="3"/><path class="cls-3" d="M26.38,8.72a13,13,0,0,0-13,13"/><circle cx="40" cy="22" r="1"/><circle cx="39" cy="25" r="1"/><circle cx="39" cy="19" r="1"/></g></svg>