<svg xmlns="http://www.w3.org/2000/svg" viewBox="0 0 60 60"><defs><style>.cls-1{fill:none;}.cls-1,.cls-3{stroke:#000;stroke-linecap:round;stroke-linejoin:round;stroke-width:2px;}.cls-2{fill:#ffd100;}.cls-3{fill:#fff;}</style></defs><title>01_icons_sunsay_website_02</title><g id="_6" data-name="6"><path class="cls-1" d="M43.17,43.82c1.68,0,3.43,1.49,4.57,2.86.81,1,2.86,2.85,4.57,2.85a3.19,3.19,0,0,0,3.43-2.85,3.19,3.19,0,0,0-3.43-2.86c-1.71,0-3.59,2-4.57,2.86s-2.89,2.85-4.57,2.85a3.18,3.18,0,0,1-3.43-2.85A3.18,3.18,0,0,1,43.17,43.82Z"/><path class="cls-2" d="M25,20a7,7,0,1,0,7,7A7,7,0,0,0,25,20Z"/><line class="cls-1" x1="34.1" y1="49" x2="16.1" y2="49"/><line class="cls-1" x1="34.1" y1="46" x2="16.1" y2="46"/><path class="cls-1" d="M17.1,52h16a0,0,0,0,1,0,0v3.75A2.25,2.25,0,0,1,30.85,58H19.35a2.25,2.25,0,0,1-2.25-2.25V52A0,0,0,0,1,17.1,52Z"/><circle class="cls-3" cx="25" cy="27" r="3"/><line class="cls-1" x1="25" y1="30" x2="25" y2="42"/><path class="cls-1" d="M34,39V37c5.81-3.22,9.88-8.64,9.88-15.76a18.88,18.88,0,0,0-37.76,0C6.12,28.29,10.27,33.76,16,37v2"/><rect class="cls-1" x="15.1" y="39.83" width="20" height="3"/><path class="cls-1" d="M25.38,8.72a13,13,0,0,0-13,13"/><circle cx="39" cy="22" r="1"/><circle cx="38" cy="25" r="1"/><circle cx="38" cy="19" r="1"/></g></svg>