<svg xmlns="http://www.w3.org/2000/svg" viewBox="0 0 60 60"><defs><style>.cls-1{fill:#ffd100;}.cls-2{fill:#fff;}.cls-2,.cls-3{stroke:#000;stroke-linecap:round;stroke-linejoin:round;stroke-width:2px;}.cls-3{fill:none;}</style></defs><title>01_icons_sunsay_website_02</title><g id="_7" data-name="7"><circle class="cls-1" cx="30" cy="24" r="10"/><polygon class="cls-2" points="28 28.77 28 19.04 33.35 24.39 28 28.77"/><rect class="cls-3" x="1" y="10" width="58" height="31"/><circle cx="23" cy="37" r="1"/><circle cx="26" cy="37" r="1"/><circle cx="29" cy="37" r="1"/><circle cx="32" cy="37" r="1"/><circle cx="35" cy="37" r="1"/><polyline class="cls-3" points="39 14 55 14 55 37 41 37"/><polyline class="cls-3" points="17 37 5 37 5 14 19 14"/><circle class="cls-3" cx="21" cy="50" r="2"/><circle class="cls-3" cx="39" cy="50" r="2"/><polyline class="cls-3" points="44 55 44 45.08 16 45.08 16 55"/><line class="cls-3" x1="26" y1="50" x2="34" y2="50"/><polyline class="cls-3" points="34 44 34 41 26 41 26 44"/><polyline class="cls-3" points="16 52 2 52 2 55 58 55 58 52 44 52"/></g></svg>