<svg xmlns="http://www.w3.org/2000/svg" viewBox="0 0 60 60"><defs><style>.cls-1{fill:#ffd100;}.cls-1,.cls-2,.cls-3{stroke:#000;stroke-linecap:round;stroke-linejoin:round;stroke-width:2px;}.cls-2{fill:none;}.cls-3{fill:#fff;}</style></defs><title>01_icons_sunsay_website_02</title><g id="_8" data-name="8"><rect class="cls-1" x="11" y="29" width="38" height="22.19"/><rect class="cls-2" x="4" y="1" width="52" height="58" rx="3.29"/><circle class="cls-2" cx="12" cy="8" r="2"/><circle class="cls-2" cx="19" cy="8" r="2"/><line class="cls-2" x1="4.91" y1="15" x2="55.91" y2="15"/><line class="cls-2" x1="14.91" y1="40" x2="44.91" y2="40"/><line class="cls-2" x1="14.91" y1="43" x2="44.91" y2="43"/><line class="cls-2" x1="14.91" y1="46" x2="44.91" y2="46"/><circle cx="29" cy="8" r="1"/><circle cx="33" cy="8" r="1"/><circle cx="37" cy="8" r="1"/><circle cx="41" cy="8" r="1"/><circle cx="45" cy="8" r="1"/><circle cx="49" cy="8" r="1"/><path class="cls-2" d="M46,19H14.82a1.9,1.9,0,0,1-1.91-1.91V15h35v2.09A1.9,1.9,0,0,1,46,19Z"/><polygon class="cls-3" points="44.91 37 14.91 37 20.91 29 38.91 29 44.91 37"/></g></svg>