<svg xmlns="http://www.w3.org/2000/svg" viewBox="0 0 60 60"><defs><style>.cls-1{fill:#ffd100;}.cls-2{fill:none;}.cls-2,.cls-3{stroke:#000;stroke-linecap:round;stroke-linejoin:round;stroke-width:2px;}.cls-3{fill:#fff;}</style></defs><title>01_icons_sunsay_website_02</title><g id="_9" data-name="9"><circle class="cls-1" cx="29.99" cy="27" r="12.86"/><line class="cls-2" x1="23" y1="39" x2="3" y2="43"/><line class="cls-2" x1="23" y1="51" x2="3" y2="55"/><path class="cls-2" d="M3,58V28A27.8,27.8,0,0,1,6.4,14.45,28.1,28.1,0,0,1,20.48,1.72,1.86,1.86,0,0,1,23,3.48V17"/><line class="cls-2" x1="8" y1="57" x2="8" y2="12"/><line class="cls-2" x1="13" y1="56" x2="13" y2="7"/><line class="cls-2" x1="18" y1="24" x2="18" y2="3"/><line class="cls-2" x1="18" y1="55" x2="18" y2="32"/><line class="cls-2" x1="23" y1="54" x2="3" y2="58"/><polyline class="cls-2" points="23 37 23 51 23 54 23 54"/><line class="cls-2" x1="37" y1="39" x2="57" y2="43"/><line class="cls-2" x1="37" y1="51" x2="57" y2="55"/><path class="cls-2" d="M57,58V28a27.8,27.8,0,0,0-3.4-13.54A28.1,28.1,0,0,0,39.52,1.72,1.86,1.86,0,0,0,37,3.48V17"/><line class="cls-2" x1="52" y1="57" x2="52" y2="12"/><line class="cls-2" x1="47" y1="56" x2="47" y2="7"/><line class="cls-2" x1="42" y1="24" x2="42" y2="3"/><line class="cls-2" x1="42" y1="55" x2="42" y2="32"/><line class="cls-2" x1="37" y1="54" x2="57" y2="58"/><polyline class="cls-2" points="37 37 37 51 37 54 37 54"/><circle class="cls-3" cx="30" cy="27" r="2"/><path class="cls-2" d="M33,23a5.21,5.21,0,0,1,1,1,5.07,5.07,0,0,1,.85,1.8A5,5,0,0,1,34,30a5.26,5.26,0,0,1-1,1h0"/><path class="cls-2" d="M27,31a4.74,4.74,0,0,1-1-1h0a4.86,4.86,0,0,1-.85-1.79A5,5,0,0,1,27,23"/><path class="cls-2" d="M35.29,21a7.82,7.82,0,0,1,.71.7,8,8,0,0,1,0,10.59h0a7.93,7.93,0,0,1-.71.71"/><path class="cls-2" d="M24.71,33a7.93,7.93,0,0,1-.71-.71h0a7.88,7.88,0,0,1-1.76-3.35A8,8,0,0,1,24,21.71a7.82,7.82,0,0,1,.7-.71"/><circle cx="18" cy="28" r="1"/><circle cx="42" cy="28" r="1"/><circle cx="42" cy="28" r="1"/></g></svg>