<svg width="809" height="410" viewBox="0 0 809 410" fill="none" xmlns="http://www.w3.org/2000/svg">
<path d="M88.5542 309.284L78.0692 298.737L86.4649 287.483L87.8928 288.438L80.3265 298.587L89.8281 308.146L88.5542 309.284Z" fill="#393939"/>
<path d="M79.1996 299.745C80.0191 299.745 80.6835 299.115 80.6835 298.339C80.6835 297.562 80.0191 296.932 79.1996 296.932C78.3801 296.932 77.7157 297.562 77.7157 298.339C77.7157 299.115 78.3801 299.745 79.1996 299.745Z" fill="white"/>
<path d="M79.1996 300.575C77.8977 300.575 76.8408 299.573 76.8408 298.338C76.8408 297.104 77.8977 296.102 79.1996 296.102C80.5015 296.102 81.5584 297.104 81.5584 298.338C81.5584 299.573 80.498 300.575 79.1996 300.575ZM79.1996 297.758C78.8636 297.758 78.5907 298.017 78.5907 298.335C78.5907 298.654 78.8636 298.912 79.1996 298.912C79.5356 298.912 79.8086 298.654 79.8086 298.335C79.8086 298.017 79.5356 297.758 79.1996 297.758Z" fill="#393939"/>
<path d="M112.608 309.284L111.334 308.146L120.836 298.587L113.266 288.438L114.697 287.483L123.089 298.737L112.608 309.284Z" fill="#393939"/>
<path d="M121.962 299.745C122.782 299.745 123.446 299.115 123.446 298.339C123.446 297.562 122.782 296.932 121.962 296.932C121.143 296.932 120.479 297.562 120.479 298.339C120.479 299.115 121.143 299.745 121.962 299.745Z" fill="white"/>
<path d="M121.962 300.575C120.66 300.575 119.604 299.573 119.604 298.338C119.604 297.104 120.66 296.102 121.962 296.102C123.264 296.102 124.321 297.104 124.321 298.338C124.321 299.573 123.264 300.575 121.962 300.575ZM121.962 297.758C121.626 297.758 121.353 298.017 121.353 298.335C121.353 298.654 121.626 298.912 121.962 298.912C122.298 298.912 122.571 298.654 122.571 298.335C122.571 298.017 122.298 297.758 121.962 297.758Z" fill="#393939"/>
<path d="M564.326 409.684H1.61499V40.9571H564.326V409.684V409.684ZM3.36483 408.025H562.576V42.6159H3.36483V408.025Z" fill="#393939"/>
<path d="M542.436 409.684H23.5057V60.2961H542.436V409.684ZM25.2555 408.025H540.686V61.955H25.2555V408.025Z" fill="#393939"/>
<path d="M112.482 1.0346L1.17841 35.2194L2.91604 40.304L114.22 6.11914L112.482 1.0346Z" fill="#B7D3F7"/>
<path d="M2.35691 41.3553L0.0786133 34.6933L113.049 0L115.327 6.66196L2.35691 41.3553ZM2.28342 35.7583L3.48031 39.2651L113.122 5.59366L111.925 2.08684L2.28342 35.7583Z" fill="#393939"/>
<path d="M224.959 1.03262L113.655 35.2175L115.393 40.302L226.696 6.11716L224.959 1.03262Z" fill="#B7D3F7"/>
<path d="M114.837 41.3553L112.559 34.6933L225.529 0L227.807 6.66196L114.837 41.3553ZM114.763 35.7583L115.96 39.2651L225.602 5.59366L224.405 2.08684L114.763 35.7583Z" fill="#393939"/>
<path d="M337.436 1.03059L226.132 35.2154L227.87 40.3L339.173 6.11513L337.436 1.03059Z" fill="#B7D3F7"/>
<path d="M227.317 41.3553L225.039 34.6933L338.009 0L340.287 6.66196L227.317 41.3553ZM227.247 35.7583L228.444 39.2651L338.086 5.59366L336.889 2.08684L227.247 35.7583Z" fill="#393939"/>
<path d="M449.916 1.02764L338.612 35.2125L340.35 40.297L451.653 6.11218L449.916 1.02764Z" fill="#B7D3F7"/>
<path d="M339.8 41.3553L337.522 34.6933L450.492 0L452.77 6.66196L339.8 41.3553ZM339.727 35.7583L340.924 39.2651L450.566 5.59366L449.365 2.08684L339.727 35.7583Z" fill="#393939"/>
<path d="M562.393 1.02567L451.089 35.2105L452.827 40.295L564.13 6.11021L562.393 1.02567Z" fill="#B7D3F7"/>
<path d="M452.28 41.3553L450.002 34.6933L562.972 0L565.247 6.66196L452.28 41.3553ZM452.207 35.7583L453.404 39.2651L563.045 5.59366L561.849 2.08684L452.207 35.7583Z" fill="#393939"/>
<path d="M541.561 215.591H24.3806V219.437H541.561V215.591Z" fill="#C8C8C8"/>
<path d="M542.436 220.269H23.5057V214.765H542.436V220.269ZM25.2555 218.611H540.686V216.424H25.2555V218.611Z" fill="#393939"/>
<path d="M89.6077 211.72V221.839L94.7628 227.402C96.5931 229.377 99.2283 230.508 102 230.508C104.772 230.508 107.411 229.377 109.237 227.402L114.392 221.839V211.72H89.6077Z" fill="#C8C8C8"/>
<path d="M102.004 231.334C98.9799 231.334 96.1031 230.1 94.1083 227.947L88.7328 222.147V210.887H115.274V222.147L109.899 227.947C107.904 230.1 105.027 231.334 102.004 231.334ZM90.4826 221.524L95.4207 226.852C97.083 228.647 99.4838 229.675 102.004 229.675C104.523 229.675 106.921 228.647 108.587 226.852L113.525 221.524V212.549H90.4826V221.524V221.524Z" fill="#393939"/>
<path d="M80.3755 214.765C83.7676 214.765 86.5174 212.158 86.5174 208.943C86.5174 205.727 83.7676 203.12 80.3755 203.12C76.9833 203.12 74.2335 205.727 74.2335 208.943C74.2335 212.158 76.9833 214.765 80.3755 214.765Z" fill="#393939"/>
<path d="M80.3755 215.591C76.5048 215.591 73.3586 212.609 73.3586 208.939C73.3586 205.27 76.5048 202.287 80.3755 202.287C84.2462 202.287 87.3924 205.27 87.3924 208.939C87.3924 212.609 84.2462 215.591 80.3755 215.591ZM80.3755 203.95C77.4707 203.95 75.1084 206.189 75.1084 208.943C75.1084 211.696 77.4707 213.936 80.3755 213.936C83.2802 213.936 85.6425 211.696 85.6425 208.943C85.6425 206.189 83.2802 203.95 80.3755 203.95Z" fill="#393939"/>
<path d="M123.628 214.765C127.02 214.765 129.77 212.158 129.77 208.943C129.77 205.727 127.02 203.12 123.628 203.12C120.236 203.12 117.486 205.727 117.486 208.943C117.486 212.158 120.236 214.765 123.628 214.765Z" fill="#393939"/>
<path d="M123.628 215.591C119.757 215.591 116.611 212.609 116.611 208.939C116.611 205.27 119.757 202.287 123.628 202.287C127.499 202.287 130.645 205.27 130.645 208.939C130.645 212.609 127.499 215.591 123.628 215.591ZM123.628 203.95C120.723 203.95 118.361 206.189 118.361 208.943C118.361 211.696 120.723 213.936 123.628 213.936C126.533 213.936 128.895 211.696 128.895 208.943C128.895 206.189 126.533 203.95 123.628 203.95Z" fill="#393939"/>
<path d="M122.186 207.297L116.769 211.72H87.3993L81.9818 207.297C80.9564 206.461 79.4025 206.607 78.5731 207.619C77.9292 208.402 77.9082 209.493 78.5206 210.3L87.3993 222.014H116.769L125.647 210.3C126.26 209.493 126.235 208.402 125.595 207.619C124.762 206.607 123.208 206.461 122.186 207.297Z" fill="white"/>
<path d="M117.217 222.847H86.9515L77.8103 210.784C76.9774 209.686 77.0089 208.176 77.8838 207.108C78.4332 206.438 79.2277 206.023 80.1166 205.937C81.0055 205.854 81.8734 206.113 82.5524 206.667L87.7214 210.887H116.44L121.609 206.667C122.288 206.113 123.152 205.857 124.045 205.937C124.937 206.02 125.728 206.438 126.277 207.108C127.152 208.173 127.184 209.686 126.351 210.784L117.217 222.847ZM87.8474 221.188H116.317L124.934 209.819C125.315 209.314 125.301 208.621 124.899 208.13C124.647 207.821 124.283 207.632 123.87 207.592C123.46 207.556 123.061 207.672 122.75 207.928L117.087 212.549H87.0705L81.408 207.928C81.0965 207.672 80.701 207.556 80.2881 207.592C79.8786 207.632 79.5146 207.821 79.2592 208.13C78.8567 208.621 78.8427 209.314 79.2242 209.819L87.8474 221.188Z" fill="#393939"/>
<path d="M102.878 230.505H101.129V286.342H102.878V230.505Z" fill="#393939"/>
<path d="M113.906 286.829L105.293 283.923C104.142 283.535 102.928 283.336 101.703 283.336H98.8015C97.5766 283.336 96.3622 283.535 95.2108 283.923L86.6016 286.829C86.0556 287.012 85.6917 287.503 85.6917 288.05C85.6917 288.767 86.3041 289.347 87.06 289.347H113.448C114.204 289.347 114.816 288.767 114.816 288.05C114.816 287.503 114.452 287.012 113.906 286.829Z" fill="#C8C8C8"/>
<path d="M113.448 290.177H87.0601C85.8247 290.177 84.8168 289.221 84.8168 288.05C84.8168 287.151 85.4152 286.348 86.3076 286.046L94.9204 283.14C96.1697 282.719 97.4786 282.503 98.805 282.503H101.706C103.033 282.503 104.338 282.715 105.591 283.14L114.204 286.046C115.096 286.348 115.694 287.151 115.694 288.05C115.691 289.225 114.687 290.177 113.448 290.177ZM98.8015 284.165C97.6746 284.165 96.5652 284.348 95.5048 284.706L86.8921 287.612C86.6961 287.679 86.5631 287.854 86.5631 288.054C86.5631 288.312 86.7836 288.521 87.0566 288.521H113.444C113.717 288.521 113.938 288.312 113.938 288.054C113.938 287.858 113.805 287.679 113.609 287.612L104.996 284.706C103.936 284.348 102.826 284.165 101.699 284.165H98.8015Z" fill="#393939"/>
<path d="M87.1789 290.88C88.8798 290.88 90.2587 289.573 90.2587 287.961C90.2587 286.348 88.8798 285.041 87.1789 285.041C85.478 285.041 84.0992 286.348 84.0992 287.961C84.0992 289.573 85.478 290.88 87.1789 290.88Z" fill="white"/>
<path d="M87.1789 291.71C84.9986 291.71 83.2242 290.028 83.2242 287.961C83.2242 285.894 84.9986 284.212 87.1789 284.212C89.3592 284.212 91.1336 285.894 91.1336 287.961C91.1336 290.028 89.3592 291.71 87.1789 291.71ZM87.1789 285.87C85.9645 285.87 84.9741 286.806 84.9741 287.961C84.9741 289.115 85.961 290.051 87.1789 290.051C88.3968 290.051 89.3837 289.112 89.3837 287.961C89.3837 286.809 88.3933 285.87 87.1789 285.87Z" fill="#393939"/>
<path d="M113.983 290.88C115.684 290.88 117.063 289.573 117.063 287.961C117.063 286.348 115.684 285.041 113.983 285.041C112.282 285.041 110.903 286.348 110.903 287.961C110.903 289.573 112.282 290.88 113.983 290.88Z" fill="white"/>
<path d="M113.983 291.71C111.803 291.71 110.028 290.028 110.028 287.961C110.028 285.894 111.803 284.212 113.983 284.212C116.163 284.212 117.938 285.894 117.938 287.961C117.934 290.028 116.163 291.71 113.983 291.71ZM113.983 285.87C112.769 285.87 111.778 286.806 111.778 287.961C111.778 289.115 112.765 290.051 113.983 290.051C115.201 290.051 116.188 289.112 116.188 287.961C116.188 286.809 115.197 285.87 113.983 285.87Z" fill="#393939"/>
<path d="M112.401 296.928H88.7607V319.34H112.401V296.928Z" fill="white"/>
<path d="M113.276 320.172H87.8859V296.102H113.276V320.172ZM89.6357 318.513H111.526V297.761H89.6357V318.513Z" fill="#393939"/>
<path d="M273.1 282.991C273.1 277.921 277.432 273.814 282.78 273.814C288.127 273.814 292.46 277.921 292.46 282.991V296.514H273.1V282.991V282.991Z" fill="#FFD100"/>
<path d="M293.331 297.343H272.221V282.991C272.221 277.473 276.956 272.984 282.776 272.984C288.596 272.984 293.331 277.473 293.331 282.991V297.343V297.343ZM273.975 295.684H291.585V282.991C291.585 278.389 287.634 274.643 282.78 274.643C277.926 274.643 273.975 278.389 273.975 282.991V295.684V295.684Z" fill="#393939"/>
<path d="M297.335 303.179H268.221V295.684H297.335V303.179ZM269.971 301.52H295.585V297.343H269.971V301.52Z" fill="#393939"/>
<path d="M498.511 384.227H336.381V349.093H498.511C508.73 349.093 517.042 356.972 517.042 366.66C517.042 376.348 508.73 384.227 498.511 384.227ZM338.131 382.568H498.511C507.764 382.568 515.292 375.432 515.292 366.66C515.292 357.888 507.764 350.752 498.511 350.752H338.131V382.568Z" fill="#393939"/>
<path d="M498.424 352.908C506.434 352.908 512.93 359.066 512.93 366.66C512.93 374.254 506.434 380.412 498.424 380.412H337.256V352.908H498.424Z" fill="#C8C8C8"/>
<path d="M498.424 381.241H336.381V352.079H498.424C506.903 352.079 513.805 358.621 513.805 366.66C513.805 374.699 506.903 381.241 498.424 381.241ZM338.131 379.582H498.424C505.941 379.582 512.055 373.786 512.055 366.66C512.055 359.534 505.941 353.738 498.424 353.738H338.131V379.582Z" fill="#393939"/>
<path d="M498.424 377.31C492.229 377.31 487.19 372.532 487.19 366.66C487.19 360.788 492.229 356.01 498.424 356.01C504.618 356.01 509.658 360.788 509.658 366.66C509.658 372.532 504.618 377.31 498.424 377.31ZM498.424 357.669C493.195 357.669 488.94 361.703 488.94 366.66C488.94 371.617 493.195 375.651 498.424 375.651C503.652 375.651 507.908 371.617 507.908 366.66C507.908 361.703 503.652 357.669 498.424 357.669Z" fill="#393939"/>
<path d="M498.424 369.984C496.492 369.984 494.917 368.495 494.917 366.66C494.917 364.825 496.488 363.336 498.424 363.336C500.359 363.336 501.93 364.825 501.93 366.66C501.93 368.495 500.356 369.984 498.424 369.984ZM498.424 364.995C497.454 364.995 496.667 365.741 496.667 366.66C496.667 367.579 497.454 368.326 498.424 368.326C499.393 368.326 500.181 367.579 500.181 366.66C500.181 365.741 499.393 364.995 498.424 364.995Z" fill="#393939"/>
<path d="M445.312 369.984C443.381 369.984 441.806 368.495 441.806 366.66C441.806 364.825 443.377 363.336 445.312 363.336C447.244 363.336 448.819 364.825 448.819 366.66C448.819 368.495 447.244 369.984 445.312 369.984ZM445.312 364.995C444.343 364.995 443.555 365.741 443.555 366.66C443.555 367.579 444.343 368.326 445.312 368.326C446.282 368.326 447.069 367.579 447.069 366.66C447.069 365.741 446.282 364.995 445.312 364.995Z" fill="#393939"/>
<path d="M392.201 369.984C390.269 369.984 388.694 368.495 388.694 366.66C388.694 364.825 390.266 363.336 392.201 363.336C394.136 363.336 395.708 364.825 395.708 366.66C395.708 368.495 394.133 369.984 392.201 369.984ZM392.201 364.995C391.232 364.995 390.444 365.741 390.444 366.66C390.444 367.579 391.232 368.326 392.201 368.326C393.171 368.326 393.958 367.579 393.958 366.66C393.958 365.741 393.171 364.995 392.201 364.995Z" fill="#393939"/>
<path d="M339.09 369.984C337.158 369.984 335.583 368.495 335.583 366.66C335.583 364.825 337.155 363.336 339.09 363.336C341.022 363.336 342.597 364.825 342.597 366.66C342.597 368.495 341.022 369.984 339.09 369.984ZM339.09 364.995C338.121 364.995 337.333 365.741 337.333 366.66C337.333 367.579 338.121 368.326 339.09 368.326C340.059 368.326 340.847 367.579 340.847 366.66C340.847 365.741 340.059 364.995 339.09 364.995Z" fill="#393939"/>
<path d="M445.313 377.31C439.118 377.31 434.079 372.532 434.079 366.66C434.079 360.788 439.118 356.01 445.313 356.01C451.507 356.01 456.547 360.788 456.547 366.66C456.547 372.532 451.507 377.31 445.313 377.31ZM445.313 357.669C440.084 357.669 435.828 361.703 435.828 366.66C435.828 371.617 440.084 375.651 445.313 375.651C450.541 375.651 454.797 371.617 454.797 366.66C454.797 361.703 450.541 357.669 445.313 357.669Z" fill="#393939"/>
<path d="M392.201 377.31C386.007 377.31 380.967 372.532 380.967 366.66C380.967 360.788 386.007 356.01 392.201 356.01C398.396 356.01 403.435 360.788 403.435 366.66C403.435 372.532 398.396 377.31 392.201 377.31ZM392.201 357.669C386.973 357.669 382.717 361.703 382.717 366.66C382.717 371.617 386.973 375.651 392.201 375.651C397.43 375.651 401.685 371.617 401.685 366.66C401.685 361.703 397.43 357.669 392.201 357.669Z" fill="#393939"/>
<path d="M339.09 377.31C332.895 377.31 327.856 372.532 327.856 366.66C327.856 360.788 332.895 356.01 339.09 356.01C345.284 356.01 350.324 360.788 350.324 366.66C350.324 372.532 345.284 377.31 339.09 377.31ZM339.09 357.669C333.861 357.669 329.606 361.703 329.606 366.66C329.606 371.617 333.861 375.651 339.09 375.651C344.318 375.651 348.574 371.617 348.574 366.66C348.574 361.703 344.318 357.669 339.09 357.669Z" fill="#393939"/>
<path d="M497.507 383.398H495.757V408.855H497.507V383.398Z" fill="#393939"/>
<path d="M454.755 383.398H453.005V408.855H454.755V383.398Z" fill="#393939"/>
<path d="M412.002 383.398H410.252V408.855H412.002V383.398Z" fill="#393939"/>
<path d="M369.25 383.398H367.5V408.855H369.25V383.398Z" fill="#393939"/>
<path d="M492.222 385.723L501.055 385.723L501.055 383.397L492.222 383.397L492.222 385.723Z" fill="#393939"/>
<path d="M501.93 386.553H491.347V382.568H501.93V386.553ZM493.097 384.894H500.18V384.227H493.097V384.894Z" fill="#393939"/>
<path d="M492.222 408.853L501.055 408.853L501.055 406.527L492.222 406.527L492.222 408.853Z" fill="#393939"/>
<path d="M501.93 409.684H491.347V405.7H501.93V409.684ZM493.097 408.025H500.18V407.358H493.097V408.025Z" fill="#393939"/>
<path d="M449.463 385.723L458.296 385.723L458.296 383.397L449.463 383.397L449.463 385.723Z" fill="#393939"/>
<path d="M459.171 386.553H448.588V382.568H459.171V386.553ZM450.338 384.894H457.421V384.227H450.338V384.894Z" fill="#393939"/>
<path d="M449.463 408.853L458.296 408.853L458.296 406.527L449.463 406.527L449.463 408.853Z" fill="#393939"/>
<path d="M459.171 409.684H448.588V405.7H459.171V409.684ZM450.338 408.025H457.421V407.358H450.338V408.025Z" fill="#393939"/>
<path d="M406.703 385.723L415.537 385.723L415.537 383.397L406.703 383.397L406.703 385.723Z" fill="#393939"/>
<path d="M416.412 386.553H405.829V382.568H416.412V386.553ZM407.579 384.894H414.662V384.227H407.579V384.894Z" fill="#393939"/>
<path d="M406.703 408.853L415.537 408.853L415.537 406.527L406.703 406.527L406.703 408.853Z" fill="#393939"/>
<path d="M416.412 409.684H405.829V405.7H416.412V409.684ZM407.579 408.025H414.662V407.358H407.579V408.025Z" fill="#393939"/>
<path d="M363.944 385.723L372.777 385.723L372.777 383.397L363.944 383.397L363.944 385.723Z" fill="#393939"/>
<path d="M373.653 386.553H363.07V382.568H373.653V386.553ZM364.82 384.894H371.903V384.227H364.82V384.894Z" fill="#393939"/>
<path d="M363.944 408.853L372.777 408.853L372.777 406.527L363.944 406.527L363.944 408.853Z" fill="#393939"/>
<path d="M373.653 409.684H363.07V405.7H373.653V409.684ZM364.82 408.025H371.903V407.358H364.82V408.025Z" fill="#393939"/>
<path d="M469.947 339.541L459.462 328.997L467.857 317.74L469.285 318.699L461.719 328.845L471.22 338.403L469.947 339.541Z" fill="#393939"/>
<path d="M460.592 330.003C461.411 330.003 462.076 329.373 462.076 328.596C462.076 327.819 461.411 327.189 460.592 327.189C459.772 327.189 459.108 327.819 459.108 328.596C459.108 329.373 459.772 330.003 460.592 330.003Z" fill="white"/>
<path d="M460.592 330.835C459.29 330.835 458.233 329.834 458.233 328.599C458.233 327.365 459.29 326.363 460.592 326.363C461.894 326.363 462.951 327.365 462.951 328.599C462.951 329.834 461.89 330.835 460.592 330.835ZM460.592 328.019C460.256 328.019 459.983 328.278 459.983 328.596C459.983 328.915 460.256 329.173 460.592 329.173C460.928 329.173 461.201 328.915 461.201 328.596C461.201 328.278 460.928 328.019 460.592 328.019Z" fill="#393939"/>
<path d="M494 339.541L492.726 338.403L502.228 328.845L494.658 318.699L496.089 317.74L504.482 328.997L494 339.541Z" fill="#393939"/>
<path d="M503.355 330.003C504.174 330.003 504.839 329.373 504.839 328.596C504.839 327.819 504.174 327.189 503.355 327.189C502.535 327.189 501.871 327.819 501.871 328.596C501.871 329.373 502.535 330.003 503.355 330.003Z" fill="white"/>
<path d="M503.355 330.835C502.053 330.835 500.996 329.834 500.996 328.599C500.996 327.365 502.056 326.363 503.355 326.363C504.653 326.363 505.713 327.365 505.713 328.599C505.713 329.834 504.657 330.835 503.355 330.835ZM503.355 328.019C503.019 328.019 502.746 328.278 502.746 328.596C502.746 328.915 503.019 329.173 503.355 329.173C503.691 329.173 503.964 328.915 503.964 328.596C503.964 328.278 503.691 328.019 503.355 328.019Z" fill="#393939"/>
<path d="M471 211.72V221.839L476.155 227.402C477.985 229.377 480.621 230.508 483.392 230.508C486.164 230.508 488.803 229.377 490.63 227.402L495.785 221.839V211.72H471Z" fill="#C8C8C8"/>
<path d="M483.396 231.334C480.372 231.334 477.495 230.1 475.501 227.947L470.125 222.147V210.887H496.667V222.147L491.291 227.947C489.296 230.1 486.42 231.334 483.396 231.334ZM471.875 221.523L476.813 226.852C478.475 228.647 480.876 229.675 483.396 229.675C485.916 229.675 488.313 228.647 489.975 226.852L494.913 221.523V212.549H471.871V221.523H471.875Z" fill="#393939"/>
<path d="M461.768 214.765C465.16 214.765 467.91 212.158 467.91 208.943C467.91 205.727 465.16 203.12 461.768 203.12C458.376 203.12 455.626 205.727 455.626 208.943C455.626 212.158 458.376 214.765 461.768 214.765Z" fill="#393939"/>
<path d="M461.768 215.591C457.897 215.591 454.751 212.609 454.751 208.939C454.751 205.27 457.897 202.287 461.768 202.287C465.635 202.287 468.785 205.27 468.785 208.939C468.785 212.609 465.639 215.591 461.768 215.591ZM461.768 203.95C458.863 203.95 456.501 206.189 456.501 208.943C456.501 211.696 458.863 213.936 461.768 213.936C464.673 213.936 467.035 211.696 467.035 208.943C467.035 206.189 464.673 203.95 461.768 203.95Z" fill="#393939"/>
<path d="M505.021 214.765C508.413 214.765 511.163 212.158 511.163 208.943C511.163 205.727 508.413 203.12 505.021 203.12C501.628 203.12 498.879 205.727 498.879 208.943C498.879 212.158 501.628 214.765 505.021 214.765Z" fill="#393939"/>
<path d="M505.02 215.591C501.15 215.591 498.004 212.609 498.004 208.939C498.004 205.27 501.15 202.287 505.02 202.287C508.888 202.287 512.037 205.27 512.037 208.939C512.037 212.609 508.891 215.591 505.02 215.591ZM505.02 203.95C502.116 203.95 499.754 206.189 499.754 208.943C499.754 211.696 502.116 213.936 505.02 213.936C507.925 213.936 510.287 211.696 510.287 208.943C510.287 206.189 507.925 203.95 505.02 203.95Z" fill="#393939"/>
<path d="M503.579 207.297L498.161 211.72H468.792L463.374 207.297C462.349 206.461 460.795 206.607 459.965 207.619C459.322 208.402 459.301 209.493 459.913 210.3L468.792 222.014H498.161L507.04 210.3C507.652 209.493 507.628 208.402 506.987 207.619C506.154 206.607 504.6 206.461 503.579 207.297Z" fill="white"/>
<path d="M498.609 222.847H468.344L459.202 210.784C458.369 209.686 458.401 208.176 459.276 207.108C459.825 206.438 460.62 206.023 461.509 205.937C462.398 205.854 463.266 206.113 463.945 206.667L469.114 210.887H497.832L503.001 206.667C503.68 206.113 504.544 205.857 505.433 205.937C506.326 206.02 507.117 206.438 507.67 207.108C508.545 208.176 508.576 209.686 507.743 210.784L498.609 222.847ZM469.24 221.188H497.71L506.326 209.819C506.707 209.314 506.693 208.621 506.291 208.13C506.039 207.821 505.675 207.632 505.265 207.592C504.852 207.556 504.457 207.672 504.145 207.928L498.483 212.549H468.466L462.804 207.928C462.492 207.672 462.097 207.556 461.684 207.592C461.274 207.632 460.91 207.821 460.658 208.13C460.256 208.621 460.242 209.314 460.623 209.819L469.24 221.188Z" fill="#393939"/>
<path d="M484.271 230.505H482.521V316.602H484.271V230.505Z" fill="#393939"/>
<path d="M495.298 317.09L486.686 314.184C485.534 313.796 484.32 313.597 483.095 313.597H480.194C478.969 313.597 477.754 313.796 476.603 314.184L467.99 317.09C467.444 317.273 467.08 317.764 467.08 318.311C467.08 319.028 467.693 319.608 468.449 319.608H494.836C495.592 319.608 496.205 319.028 496.205 318.311C496.208 317.764 495.844 317.273 495.298 317.09Z" fill="#C8C8C8"/>
<path d="M494.84 320.438H468.452C467.217 320.438 466.209 319.482 466.209 318.311C466.209 317.412 466.807 316.609 467.7 316.307L476.313 313.401C477.562 312.979 478.867 312.764 480.197 312.764H483.098C484.425 312.764 485.734 312.976 486.983 313.401L495.596 316.307C496.488 316.609 497.087 317.412 497.087 318.311C497.083 319.482 496.075 320.438 494.84 320.438ZM480.194 314.426C479.067 314.426 477.957 314.608 476.897 314.967L468.284 317.873C468.088 317.939 467.955 318.115 467.955 318.314C467.955 318.573 468.176 318.782 468.449 318.782H494.836C495.109 318.782 495.33 318.573 495.33 318.314C495.33 318.115 495.197 317.939 495.001 317.873L486.388 314.967C485.328 314.608 484.218 314.426 483.091 314.426H480.194Z" fill="#393939"/>
<path d="M468.571 321.141C470.272 321.141 471.651 319.834 471.651 318.221C471.651 316.609 470.272 315.302 468.571 315.302C466.87 315.302 465.491 316.609 465.491 318.221C465.491 319.834 466.87 321.141 468.571 321.141Z" fill="white"/>
<path d="M468.571 321.967C466.391 321.967 464.616 320.285 464.616 318.218C464.616 316.151 466.391 314.469 468.571 314.469C470.751 314.469 472.526 316.151 472.526 318.218C472.526 320.288 470.751 321.967 468.571 321.967ZM468.571 316.131C467.357 316.131 466.366 317.07 466.366 318.221C466.366 319.373 467.357 320.312 468.571 320.312C469.785 320.312 470.776 319.376 470.776 318.221C470.776 317.067 469.785 316.131 468.571 316.131Z" fill="#393939"/>
<path d="M495.375 321.141C497.076 321.141 498.455 319.834 498.455 318.221C498.455 316.609 497.076 315.302 495.375 315.302C493.674 315.302 492.296 316.609 492.296 318.221C492.296 319.834 493.674 321.141 495.375 321.141Z" fill="white"/>
<path d="M495.375 321.967C493.195 321.967 491.421 320.285 491.421 318.218C491.421 316.151 493.195 314.469 495.375 314.469C497.556 314.469 499.33 316.151 499.33 318.218C499.326 320.288 497.552 321.967 495.375 321.967ZM495.375 316.131C494.161 316.131 493.17 317.07 493.17 318.221C493.17 319.373 494.161 320.312 495.375 320.312C496.59 320.312 497.58 319.376 497.58 318.221C497.58 317.067 496.59 316.131 495.375 316.131Z" fill="#393939"/>
<path d="M493.793 327.189H470.153V349.6H493.793V327.189Z" fill="#B7D3F7"/>
<path d="M494.668 350.433H469.278V326.363H494.668V350.433ZM471.028 348.774H492.918V328.022H471.028V348.774Z" fill="#393939"/>
<path d="M156.693 327.508H133.053V349.919H156.693V327.508Z" fill="white"/>
<path d="M157.568 350.752H132.178V326.682H157.568V350.752ZM133.928 349.093H155.818V328.341H133.928V349.093Z" fill="#393939"/>
<path d="M208.999 327.508H185.359V349.919H208.999V327.508Z" fill="white"/>
<path d="M209.878 350.752H184.488V326.682H209.878V350.752ZM186.234 349.093H208.124V328.341H186.234V349.093Z" fill="#393939"/>
<path d="M393.66 327.508H370.02V349.919H393.66V327.508Z" fill="#B7D3F7"/>
<path d="M394.539 350.752H369.149V326.682H394.539V350.752ZM370.895 349.093H392.786V328.341H370.895V349.093Z" fill="#393939"/>
<path d="M443.444 327.508H419.803V349.919H443.444V327.508Z" fill="#B7D3F7"/>
<path d="M444.319 350.752H418.928V326.682H444.319V350.752ZM420.678 349.093H442.569V328.341H420.678V349.093Z" fill="#393939"/>
<path d="M229.175 384.227H67.0452C56.8261 384.227 48.5143 376.348 48.5143 366.66C48.5143 356.972 56.8261 349.093 67.0452 349.093H229.175V384.227ZM67.0452 350.752C57.792 350.752 50.2642 357.888 50.2642 366.66C50.2642 375.432 57.792 382.568 67.0452 382.568H227.425V350.752H67.0452Z" fill="#393939"/>
<path d="M67.1327 352.908C59.1219 352.908 52.6265 359.066 52.6265 366.66C52.6265 374.254 59.1219 380.412 67.1327 380.412H228.3V352.908H67.1327Z" fill="#C8C8C8"/>
<path d="M229.175 381.241H67.1327C58.6529 381.241 51.7515 374.699 51.7515 366.66C51.7515 358.621 58.6529 352.079 67.1327 352.079H229.175V381.241ZM67.1327 353.738C59.6153 353.738 53.5014 359.534 53.5014 366.66C53.5014 373.787 59.6153 379.583 67.1327 379.583H227.425V353.738H67.1327Z" fill="#393939"/>
<path d="M67.1327 377.31C60.9383 377.31 55.8987 372.532 55.8987 366.66C55.8987 360.788 60.9383 356.01 67.1327 356.01C73.3272 356.01 78.3667 360.788 78.3667 366.66C78.3667 372.532 73.3272 377.31 67.1327 377.31ZM67.1327 357.669C61.9042 357.669 57.6486 361.703 57.6486 366.66C57.6486 371.617 61.9042 375.651 67.1327 375.651C72.3613 375.651 76.6169 371.617 76.6169 366.66C76.6169 361.703 72.3613 357.669 67.1327 357.669Z" fill="#393939"/>
<path d="M67.1328 369.984C65.201 369.984 63.6261 368.495 63.6261 366.66C63.6261 364.825 65.1975 363.336 67.1328 363.336C69.0681 363.336 70.6394 364.825 70.6394 366.66C70.6394 368.495 69.0646 369.984 67.1328 369.984ZM67.1328 364.995C66.1634 364.995 65.3759 365.741 65.3759 366.66C65.3759 367.579 66.1634 368.326 67.1328 368.326C68.1022 368.326 68.8896 367.579 68.8896 366.66C68.8896 365.741 68.1022 364.995 67.1328 364.995Z" fill="#393939"/>
<path d="M120.244 369.984C118.312 369.984 116.737 368.495 116.737 366.66C116.737 364.825 118.309 363.336 120.244 363.336C122.176 363.336 123.751 364.825 123.751 366.66C123.751 368.495 122.176 369.984 120.244 369.984ZM120.244 364.995C119.275 364.995 118.487 365.741 118.487 366.66C118.487 367.579 119.275 368.326 120.244 368.326C121.213 368.326 122.001 367.579 122.001 366.66C122.001 365.741 121.213 364.995 120.244 364.995Z" fill="#393939"/>
<path d="M173.355 369.984C171.423 369.984 169.849 368.495 169.849 366.66C169.849 364.825 171.42 363.336 173.355 363.336C175.287 363.336 176.862 364.825 176.862 366.66C176.862 368.495 175.287 369.984 173.355 369.984ZM173.355 364.995C172.386 364.995 171.598 365.741 171.598 366.66C171.598 367.579 172.386 368.326 173.355 368.326C174.325 368.326 175.112 367.579 175.112 366.66C175.112 365.741 174.325 364.995 173.355 364.995Z" fill="#393939"/>
<path d="M226.466 369.984C224.535 369.984 222.96 368.495 222.96 366.66C222.96 364.825 224.531 363.336 226.466 363.336C228.398 363.336 229.973 364.825 229.973 366.66C229.973 368.495 228.398 369.984 226.466 369.984ZM226.466 364.995C225.497 364.995 224.71 365.741 224.71 366.66C224.71 367.579 225.497 368.326 226.466 368.326C227.436 368.326 228.223 367.579 228.223 366.66C228.223 365.741 227.436 364.995 226.466 364.995Z" fill="#393939"/>
<path d="M120.244 377.31C114.05 377.31 109.01 372.532 109.01 366.66C109.01 360.788 114.05 356.01 120.244 356.01C126.438 356.01 131.478 360.788 131.478 366.66C131.478 372.532 126.438 377.31 120.244 377.31ZM120.244 357.669C115.015 357.669 110.76 361.703 110.76 366.66C110.76 371.617 115.015 375.651 120.244 375.651C125.472 375.651 129.728 371.617 129.728 366.66C129.728 361.703 125.472 357.669 120.244 357.669Z" fill="#393939"/>
<path d="M173.355 377.31C167.161 377.31 162.121 372.532 162.121 366.66C162.121 360.788 167.161 356.01 173.355 356.01C179.55 356.01 184.589 360.788 184.589 366.66C184.589 372.532 179.55 377.31 173.355 377.31ZM173.355 357.669C168.127 357.669 163.871 361.703 163.871 366.66C163.871 371.617 168.127 375.651 173.355 375.651C178.584 375.651 182.84 371.617 182.84 366.66C182.84 361.703 178.584 357.669 173.355 357.669Z" fill="#393939"/>
<path d="M226.466 377.31C220.272 377.31 215.232 372.532 215.232 366.66C215.232 360.788 220.272 356.01 226.466 356.01C232.661 356.01 237.7 360.788 237.7 366.66C237.7 372.532 232.661 377.31 226.466 377.31ZM226.466 357.669C221.238 357.669 216.982 361.703 216.982 366.66C216.982 371.617 221.238 375.651 226.466 375.651C231.695 375.651 235.951 371.617 235.951 366.66C235.951 361.703 231.695 357.669 226.466 357.669Z" fill="#393939"/>
<path d="M338.95 302.35H226.603V408.855H338.95V302.35Z" fill="white"/>
<path d="M339.825 409.684H225.728V301.52H339.825V409.684ZM227.478 408.025H338.075V303.179H227.478V408.025Z" fill="#393939"/>
<path d="M69.7994 383.398H68.0496V408.855H69.7994V383.398Z" fill="#393939"/>
<path d="M112.552 383.398H110.802V408.855H112.552V383.398Z" fill="#393939"/>
<path d="M155.304 383.398H153.554V408.855H155.304V383.398Z" fill="#393939"/>
<path d="M198.056 383.398H196.306V408.855H198.056V383.398Z" fill="#393939"/>
<path d="M73.3342 383.398H64.501V385.723H73.3342V383.398Z" fill="#393939"/>
<path d="M74.2092 386.553H63.6261V382.568H74.2092V386.553ZM65.3759 384.894H72.4593V384.227H65.3759V384.894Z" fill="#393939"/>
<path d="M73.3342 406.529H64.501V408.855H73.3342V406.529Z" fill="#393939"/>
<path d="M74.2092 409.684H63.6261V405.7H74.2092V409.684ZM65.3759 408.025H72.4593V407.358H65.3759V408.025Z" fill="#393939"/>
<path d="M116.093 383.398H107.26V385.723H116.093V383.398Z" fill="#393939"/>
<path d="M116.968 386.553H106.385V382.568H116.968V386.553ZM108.135 384.894H115.218V384.227H108.135V384.894Z" fill="#393939"/>
<path d="M116.093 406.529H107.26V408.855H116.093V406.529Z" fill="#393939"/>
<path d="M116.968 409.684H106.385V405.7H116.968V409.684ZM108.135 408.025H115.218V407.358H108.135V408.025Z" fill="#393939"/>
<path d="M158.853 383.398H150.019V385.723H158.853V383.398Z" fill="#393939"/>
<path d="M159.727 386.553H149.144V382.568H159.727V386.553ZM150.894 384.894H157.978V384.227H150.894V384.894Z" fill="#393939"/>
<path d="M158.853 406.529H150.019V408.855H158.853V406.529Z" fill="#393939"/>
<path d="M159.727 409.684H149.144V405.7H159.727V409.684ZM150.894 408.025H157.978V407.358H150.894V408.025Z" fill="#393939"/>
<path d="M201.612 383.398H192.778V385.723H201.612V383.398Z" fill="#393939"/>
<path d="M202.487 386.553H191.903V382.568H202.487V386.553ZM193.653 384.894H200.737V384.227H193.653V384.894Z" fill="#393939"/>
<path d="M201.612 406.529H192.778V408.855H201.612V406.529Z" fill="#393939"/>
<path d="M202.487 409.684H191.903V405.7H202.487V409.684ZM193.653 408.025H200.737V407.358H193.653V408.025Z" fill="#393939"/>
<path d="M321.437 325.497C325.164 325.497 328.185 322.633 328.185 319.101C328.185 315.568 325.164 312.704 321.437 312.704C317.711 312.704 314.69 315.568 314.69 319.101C314.69 322.633 317.711 325.497 321.437 325.497Z" fill="white"/>
<path d="M321.437 326.327C317.234 326.327 313.815 323.085 313.815 319.101C313.815 315.116 317.234 311.875 321.437 311.875C325.641 311.875 329.06 315.116 329.06 319.101C329.06 323.085 325.641 326.327 321.437 326.327ZM321.437 313.53C318.2 313.53 315.565 316.028 315.565 319.097C315.565 322.166 318.2 324.664 321.437 324.664C324.675 324.664 327.31 322.166 327.31 319.097C327.31 316.028 324.675 313.53 321.437 313.53Z" fill="#393939"/>
<path d="M322.312 319.101H320.563V323.51H322.312V319.101Z" fill="#393939"/>
<path d="M303.208 325.497C306.934 325.497 309.955 322.633 309.955 319.101C309.955 315.568 306.934 312.704 303.208 312.704C299.481 312.704 296.46 315.568 296.46 319.101C296.46 322.633 299.481 325.497 303.208 325.497Z" fill="white"/>
<path d="M303.208 326.327C299.005 326.327 295.585 323.085 295.585 319.101C295.585 315.116 299.005 311.875 303.208 311.875C307.411 311.875 310.83 315.116 310.83 319.101C310.83 323.085 307.411 326.327 303.208 326.327ZM303.208 313.53C299.97 313.53 297.335 316.028 297.335 319.097C297.335 322.166 299.97 324.664 303.208 324.664C306.445 324.664 309.08 322.166 309.08 319.097C309.08 316.028 306.445 313.53 303.208 313.53Z" fill="#393939"/>
<path d="M305.907 315.364L302.584 318.515L303.821 319.688L307.145 316.537L305.907 315.364Z" fill="#393939"/>
<path d="M303.208 342.315C306.934 342.315 309.955 339.451 309.955 335.918C309.955 332.385 306.934 329.521 303.208 329.521C299.481 329.521 296.46 332.385 296.46 335.918C296.46 339.451 299.481 342.315 303.208 342.315Z" fill="white"/>
<path d="M303.208 343.144C299.005 343.144 295.585 339.903 295.585 335.918C295.585 331.934 299.005 328.692 303.208 328.692C307.411 328.692 310.83 331.934 310.83 335.918C310.83 339.903 307.411 343.144 303.208 343.144ZM303.208 330.351C299.97 330.351 297.335 332.849 297.335 335.918C297.335 338.987 299.97 341.485 303.208 341.485C306.445 341.485 309.08 338.987 309.08 335.918C309.08 332.849 306.445 330.351 303.208 330.351Z" fill="#393939"/>
<path d="M300.933 332.207L299.618 333.301L302.536 336.453L303.851 335.359L300.933 332.207Z" fill="#393939"/>
<path d="M321.437 342.315C325.164 342.315 328.185 339.451 328.185 335.918C328.185 332.385 325.164 329.521 321.437 329.521C317.711 329.521 314.69 332.385 314.69 335.918C314.69 339.451 317.711 342.315 321.437 342.315Z" fill="white"/>
<path d="M321.437 343.144C317.234 343.144 313.815 339.903 313.815 335.918C313.815 331.934 317.234 328.692 321.437 328.692C325.641 328.692 329.06 331.934 329.06 335.918C329.06 339.903 325.641 343.144 321.437 343.144ZM321.437 330.351C318.2 330.351 315.565 332.849 315.565 335.918C315.565 338.987 318.2 341.485 321.437 341.485C324.675 341.485 327.31 338.987 327.31 335.918C327.31 332.849 324.675 330.351 321.437 330.351Z" fill="#393939"/>
<path d="M322.312 331.598H320.563V335.918H322.312V331.598Z" fill="#393939"/>
<path d="M271.714 380.412H236.605V408.855H271.714V380.412Z" fill="#C8C8C8"/>
<path d="M272.589 409.684H235.73V379.583H272.589V409.684ZM237.48 408.025H270.839V381.241H237.48V408.025Z" fill="#393939"/>
<path d="M260.798 391.453H247.524C244.563 391.453 242.152 389.171 242.152 386.361H243.902C243.902 388.255 245.526 389.794 247.524 389.794H260.798C262.793 389.794 264.421 388.255 264.421 386.361H266.171C266.167 389.167 263.759 391.453 260.798 391.453Z" fill="#393939"/>
<path d="M260.798 397.594H247.524C244.563 397.594 242.152 395.312 242.152 392.502H243.902C243.902 394.396 245.526 395.936 247.524 395.936H260.798C262.793 395.936 264.421 394.396 264.421 392.502H266.171C266.167 395.308 263.759 397.594 260.798 397.594Z" fill="#393939"/>
<path d="M260.798 403.732H247.524C244.563 403.732 242.152 401.45 242.152 398.639H243.902C243.902 400.534 245.526 402.073 247.524 402.073H260.798C262.793 402.073 264.421 400.534 264.421 398.639H266.171C266.167 401.45 263.759 403.732 260.798 403.732Z" fill="#393939"/>
<path d="M315.82 117.882H250.121V192.099H315.82V117.882Z" fill="#B7D3F7"/>
<path d="M316.695 192.925H249.246V117.049H316.695V192.925ZM250.996 191.266H314.946V118.708H250.996V191.266Z" fill="#393939"/>
<path d="M292.163 136.978H273.166V154.987H292.163V136.978Z" fill="#393939"/>
<path d="M293.038 155.82H272.291V136.149H293.038V155.82ZM274.041 154.161H291.288V137.808H274.041V154.161Z" fill="#393939"/>
<path d="M290.29 138.305H275.266V145.631H290.29V138.305Z" fill="white"/>
<path d="M291.165 146.46H274.391V137.476H291.165V146.46ZM276.141 144.801H289.415V139.135H276.141V144.801Z" fill="#393939"/>
<path d="M59.6014 62.3697C59.5594 61.9583 59.5349 61.5402 59.5349 61.1255H61.2847C61.2847 61.4838 61.3022 61.8454 61.3407 62.2038L59.6014 62.3697Z" fill="#393939"/>
<path d="M259.735 114.431C259.696 113.715 259.584 113.001 259.395 112.308L261.089 111.896C261.306 112.696 261.439 113.522 261.481 114.348L259.735 114.431ZM258.615 110.291C258.286 109.647 257.883 109.033 257.425 108.463L258.814 107.454C259.346 108.111 259.808 108.821 260.186 109.564L258.615 110.291ZM255.874 106.897C255.304 106.426 254.684 106.007 254.027 105.652L254.891 104.209C255.65 104.617 256.368 105.102 257.026 105.646L255.874 106.897ZM251.955 104.787C251.475 104.637 250.975 104.518 250.474 104.432L249.687 104.296L250.002 102.663L250.789 102.799C251.367 102.899 251.941 103.038 252.497 103.207L251.955 104.787ZM247.283 103.881L244.875 103.466L245.19 101.834L247.598 102.249L247.283 103.881ZM242.471 103.048L240.063 102.633L240.378 101.001L242.786 101.416L242.471 103.048ZM237.655 102.219L235.247 101.804L235.562 100.172L237.97 100.586L237.655 102.219ZM232.843 101.386L230.435 100.971L230.75 99.3389L233.158 99.7536L232.843 101.386ZM228.031 100.556L225.623 100.142L225.938 98.5095L228.346 98.9242L228.031 100.556ZM223.219 99.7237L220.811 99.309L221.126 97.6767L223.534 98.0914L223.219 99.7237ZM218.407 98.8943L215.999 98.4796L216.314 96.8473L218.722 97.262L218.407 98.8943ZM213.595 98.0616L211.187 97.6469L211.502 96.0145L213.91 96.4293L213.595 98.0616ZM208.783 97.2288L206.375 96.8141L206.69 95.1818L209.098 95.5965L208.783 97.2288ZM203.97 96.3994L201.563 95.9847L201.878 94.3524L204.285 94.7671L203.97 96.3994ZM199.158 95.5667L196.751 95.1519L197.066 93.5196L199.473 93.9343L199.158 95.5667ZM194.346 94.7372L191.939 94.3225L192.254 92.6902L194.661 93.1049L194.346 94.7372ZM189.534 93.9045L187.126 93.4898L187.441 91.8575L189.849 92.2722L189.534 93.9045ZM184.722 93.0751L182.314 92.6603L182.629 91.028L185.037 91.4427L184.722 93.0751ZM179.91 92.2423L177.502 91.8276L177.817 90.1953L180.225 90.61L179.91 92.2423ZM175.098 91.4096L172.69 90.9949L173.005 89.3625L175.413 89.7772L175.098 91.4096ZM170.286 90.5801L167.878 90.1654L168.193 88.5331L170.601 88.9478L170.286 90.5801ZM165.474 89.7474L163.066 89.3327L163.381 87.7004L165.789 88.1151L165.474 89.7474ZM160.662 88.918L158.254 88.5033L158.569 86.8709L160.977 87.2856L160.662 88.918ZM155.85 88.0852L153.442 87.6705L153.757 86.0382L156.165 86.4529L155.85 88.0852ZM151.038 87.2558L148.63 86.8411L148.945 85.2088L151.353 85.6235L151.038 87.2558ZM146.226 86.4231L143.818 86.0083L144.133 84.376L146.541 84.7907L146.226 86.4231ZM141.414 85.5903L139.006 85.1756L139.321 83.5433L141.729 83.958L141.414 85.5903ZM136.601 84.7609L134.194 84.3462L134.509 82.7138L136.916 83.1286L136.601 84.7609ZM131.789 83.9281L129.382 83.5134L129.697 81.8811L132.104 82.2958L131.789 83.9281ZM126.977 83.0987L124.57 82.684L124.885 81.0517L127.292 81.4664L126.977 83.0987ZM122.165 82.266L119.757 81.8512L120.072 80.2189L122.48 80.6336L122.165 82.266ZM117.353 81.4365L114.945 81.0218L115.26 79.3895L117.668 79.8042L117.353 81.4365ZM112.541 80.6038L110.133 80.1891L110.448 78.5568L112.856 78.9715L112.541 80.6038ZM107.729 79.771L105.321 79.3563L105.636 77.724L108.044 78.1387L107.729 79.771ZM102.917 78.9416L100.509 78.5269L100.824 76.8946L103.232 77.3093L102.917 78.9416ZM98.1049 78.1089L95.6971 77.6942L96.0121 76.0618L98.4199 76.4766L98.1049 78.1089ZM93.2928 77.2794L90.885 76.8647L91.2 75.2324L93.6078 75.6471L93.2928 77.2794ZM88.4808 76.4467L86.073 76.032L86.388 74.3997L88.7957 74.8144L88.4808 76.4467ZM83.6687 75.6173L81.2609 75.2026L81.5759 73.5702L83.9837 73.9849L83.6687 75.6173ZM78.8566 74.7845L76.4488 74.3698L76.7638 72.7375L79.1716 73.1522L78.8566 74.7845ZM74.0446 73.9518L71.6368 73.5371L71.9517 71.9047L74.3595 72.3195L74.0446 73.9518ZM69.1695 73.0659C68.3261 72.8503 67.5036 72.5517 66.7232 72.1801L67.5071 70.6971C68.1826 71.0189 68.893 71.2777 69.6244 71.4635L69.1695 73.0659ZM64.5149 70.8497C63.829 70.3388 63.1955 69.7582 62.6321 69.1278L63.9655 68.0562C64.4554 68.6036 65.0049 69.1046 65.5963 69.5492L64.5149 70.8497ZM61.1482 67.0841C60.7282 66.3575 60.3818 65.5911 60.1228 64.8015L61.7921 64.3072C62.0161 64.9906 62.3136 65.6542 62.6811 66.2845L61.1482 67.0841Z" fill="#393939"/>
<path d="M261.498 116.72H259.748V117.882H261.498V116.72Z" fill="#393939"/>
<path d="M171.059 61.1255H169.31V62.2867H171.059V61.1255Z" fill="#393939"/>
<path d="M272.291 114.388H270.542V112.072H272.291V114.388ZM272.291 109.76H270.542V107.444H272.291V109.76ZM272.291 105.132H270.542V103.818C270.542 103.509 270.528 103.197 270.5 102.892L272.242 102.749C272.274 103.101 272.291 103.463 272.291 103.818V105.132V105.132ZM270.08 100.782C269.866 100.099 269.579 99.4318 269.226 98.7981L270.772 98.0217C271.182 98.7516 271.514 99.5247 271.759 100.314L270.08 100.782ZM267.973 97.0132C267.493 96.4591 266.954 95.9515 266.37 95.5003L267.476 94.213C268.151 94.7339 268.774 95.3211 269.327 95.9581L267.973 97.0132ZM264.477 94.3225C263.808 93.9907 263.105 93.722 262.377 93.5262L262.86 91.9337C263.7 92.1627 264.515 92.4745 265.285 92.8561L264.477 94.3225ZM260.067 93.0551L257.67 92.6139L258.002 90.9849L260.399 91.4261L260.067 93.0551ZM255.276 92.1726L252.879 91.7314L253.215 90.1024L255.612 90.5436L255.276 92.1726ZM250.481 91.2901L248.084 90.8489L248.417 89.2199L250.814 89.6611L250.481 91.2901ZM245.69 90.4043L243.293 89.963L243.625 88.334L246.023 88.7753L245.69 90.4043ZM240.896 89.5218L238.498 89.0805L238.831 87.4515L241.228 87.8928L240.896 89.5218ZM236.101 88.6393L233.704 88.198L234.036 86.569L236.434 87.0103L236.101 88.6393ZM231.31 87.7534L228.913 87.3122L229.245 85.6832L231.643 86.1244L231.31 87.7534ZM226.515 86.8709L224.118 86.4297L224.451 84.8007L226.848 85.2419L226.515 86.8709ZM221.721 85.9884L219.324 85.5472L219.656 83.9182L222.053 84.3594L221.721 85.9884ZM216.93 85.1026L214.533 84.6613L214.865 83.0323L217.262 83.4736L216.93 85.1026ZM212.135 84.2201L209.738 83.7788L210.074 82.1498L212.471 82.5911L212.135 84.2201ZM207.344 83.3376L204.947 82.8963L205.279 81.2673L207.677 81.7086L207.344 83.3376ZM202.55 82.4517L200.152 82.0105L200.488 80.3815L202.886 80.8227L202.55 82.4517ZM197.755 81.5692L195.358 81.128L195.69 79.499L198.087 79.9402L197.755 81.5692ZM192.964 80.6867L190.567 80.2454L190.899 78.6165L193.296 79.0577L192.964 80.6867ZM188.169 79.8009L185.772 79.3596L186.105 77.7306L188.502 78.1719L188.169 79.8009ZM183.378 78.9184L180.981 78.4771L181.313 76.8481L183.711 77.2894L183.378 78.9184ZM178.51 77.9496C177.677 77.7074 176.869 77.3823 176.102 76.9875L176.942 75.531C177.604 75.8727 178.304 76.1547 179.025 76.3637L178.51 77.9496ZM173.947 75.5874C173.282 75.0566 172.669 74.456 172.13 73.8091L173.502 72.7773C173.971 73.338 174.5 73.8555 175.077 74.3167L173.947 75.5874ZM170.72 71.7256C170.324 70.989 170.006 70.2127 169.775 69.4164L171.462 68.9752C171.661 69.6653 171.938 70.3355 172.277 70.9758L170.72 71.7256ZM169.341 66.9713C169.32 66.6926 169.31 66.4073 169.31 66.1286V64.6024H171.059V66.1286C171.059 66.3741 171.066 66.6196 171.084 66.8618L169.341 66.9713Z" fill="#393939"/>
<path d="M272.291 116.72H270.542V117.882H272.291V116.72Z" fill="#393939"/>
<path d="M506.606 62.3696L504.867 62.2038C504.905 61.8454 504.923 61.4838 504.923 61.1255H506.673C506.669 61.5402 506.648 61.9582 506.606 62.3696Z" fill="#393939"/>
<path d="M306.469 114.431L304.723 114.348C304.765 113.522 304.898 112.696 305.115 111.896L306.809 112.308C306.623 112.998 306.508 113.715 306.469 114.431ZM307.589 110.291L306.014 109.564C306.396 108.821 306.858 108.111 307.386 107.454L308.776 108.463C308.321 109.033 307.922 109.647 307.589 110.291ZM310.329 106.897L309.178 105.646C309.836 105.102 310.553 104.617 311.313 104.209L312.177 105.652C311.523 106.007 310.9 106.426 310.329 106.897ZM314.253 104.787L313.71 103.211C314.267 103.038 314.841 102.902 315.418 102.803L316.205 102.667L316.52 104.299L315.733 104.435C315.229 104.518 314.732 104.637 314.253 104.787ZM318.925 103.881L318.61 102.249L321.017 101.834L321.332 103.466L318.925 103.881ZM323.737 103.048L323.422 101.416L325.83 101.001L326.145 102.633L323.737 103.048ZM328.549 102.219L328.234 100.586L330.642 100.172L330.957 101.804L328.549 102.219ZM333.361 101.386L333.046 99.7536L335.454 99.3389L335.769 100.971L333.361 101.386ZM338.173 100.556L337.858 98.9242L340.266 98.5095L340.581 100.142L338.173 100.556ZM342.985 99.7237L342.67 98.0914L345.078 97.6767L345.393 99.309L342.985 99.7237ZM347.797 98.8943L347.482 97.262L349.89 96.8473L350.205 98.4796L347.797 98.8943ZM352.609 98.0616L352.294 96.4293L354.702 96.0145L355.017 97.6469L352.609 98.0616ZM357.421 97.2288L357.106 95.5965L359.514 95.1818L359.829 96.8141L357.421 97.2288ZM362.233 96.3994L361.918 94.7671L364.326 94.3524L364.641 95.9847L362.233 96.3994ZM367.045 95.5667L366.73 93.9343L369.138 93.5196L369.453 95.1519L367.045 95.5667ZM371.857 94.7372L371.543 93.1049L373.95 92.6902L374.265 94.3225L371.857 94.7372ZM376.67 93.9045L376.355 92.2722L378.762 91.8575L379.077 93.4898L376.67 93.9045ZM381.482 93.0751L381.167 91.4427L383.574 91.028L383.889 92.6603L381.482 93.0751ZM386.294 92.2423L385.979 90.61L388.387 90.1953L388.701 91.8276L386.294 92.2423ZM391.106 91.4096L390.791 89.7772L393.199 89.3625L393.514 90.9949L391.106 91.4096ZM395.918 90.5801L395.603 88.9478L398.011 88.5331L398.326 90.1654L395.918 90.5801ZM400.73 89.7474L400.415 88.1151L402.823 87.7004L403.138 89.3327L400.73 89.7474ZM405.542 88.918L405.227 87.2856L407.635 86.8709L407.95 88.5033L405.542 88.918ZM410.354 88.0852L410.039 86.4529L412.447 86.0382L412.762 87.6705L410.354 88.0852ZM415.166 87.2558L414.851 85.6235L417.259 85.2088L417.574 86.8411L415.166 87.2558ZM419.978 86.4231L419.663 84.7907L422.071 84.376L422.386 86.0083L419.978 86.4231ZM424.79 85.5903L424.475 83.958L426.883 83.5433L427.198 85.1756L424.79 85.5903ZM429.602 84.7609L429.287 83.1286L431.695 82.7138L432.01 84.3462L429.602 84.7609ZM434.414 83.9281L434.099 82.2958L436.507 81.8811L436.822 83.5134L434.414 83.9281ZM439.23 83.0987L438.915 81.4664L441.323 81.0517L441.638 82.684L439.23 83.0987ZM444.042 82.266L443.727 80.6336L446.135 80.2189L446.45 81.8512L444.042 82.266ZM448.854 81.4365L448.539 79.8042L450.947 79.3895L451.262 81.0218L448.854 81.4365ZM453.666 80.6038L453.351 78.9715L455.759 78.5568L456.074 80.1891L453.666 80.6038ZM458.478 79.771L458.163 78.1387L460.571 77.724L460.886 79.3563L458.478 79.771ZM463.29 78.9416L462.975 77.3093L465.383 76.8946L465.698 78.5269L463.29 78.9416ZM468.102 78.1089L467.787 76.4766L470.195 76.0618L470.51 77.6942L468.102 78.1089ZM472.915 77.2794L472.6 75.6471L475.007 75.2324L475.322 76.8647L472.915 77.2794ZM477.727 76.4467L477.412 74.8144L479.819 74.3997L480.134 76.032L477.727 76.4467ZM482.539 75.6173L482.224 73.9849L484.632 73.5702L484.946 75.2026L482.539 75.6173ZM487.351 74.7845L487.036 73.1522L489.444 72.7375L489.759 74.3698L487.351 74.7845ZM492.163 73.9518L491.848 72.3195L494.256 71.9047L494.571 73.5371L492.163 73.9518ZM497.038 73.0659L496.583 71.4635C497.311 71.2777 498.025 71.0189 498.7 70.6971L499.484 72.1801C498.704 72.5517 497.878 72.8503 497.038 73.0659ZM501.689 70.8497L500.608 69.5459C501.199 69.1046 501.748 68.6003 502.238 68.0529L503.572 69.1245C503.008 69.7582 502.375 70.3388 501.689 70.8497ZM505.056 67.0841L503.523 66.2845C503.887 65.6575 504.184 64.994 504.412 64.3072L506.081 64.8015C505.822 65.5911 505.479 66.3609 505.056 67.0841Z" fill="#393939"/>
<path d="M306.455 116.72H304.706V117.882H306.455V116.72Z" fill="#393939"/>
<path d="M396.894 61.1255H395.144V62.2867H396.894V61.1255Z" fill="#393939"/>
<path d="M295.666 114.388H293.916V112.072H295.666V114.388ZM295.666 109.76H293.916V107.444H295.666V109.76ZM295.666 105.132H293.916V103.818C293.916 103.463 293.933 103.101 293.965 102.749L295.708 102.892C295.68 103.197 295.666 103.509 295.666 103.818V105.132V105.132ZM296.124 100.782L294.448 100.311C294.693 99.5213 295.025 98.7483 295.435 98.0184L296.982 98.7948C296.625 99.4318 296.338 100.099 296.124 100.782ZM298.235 97.0132L296.884 95.9614C297.437 95.3244 298.06 94.7372 298.735 94.2163L299.841 95.5036C299.253 95.9515 298.714 96.4624 298.235 97.0132ZM301.727 94.3225L300.915 92.8527C301.689 92.4712 302.504 92.1593 303.341 91.9304L303.824 93.5229C303.103 93.722 302.396 93.9907 301.727 94.3225ZM306.137 93.0551L305.804 91.4261L308.202 90.9849L308.534 92.6139L306.137 93.0551ZM310.931 92.1726L310.599 90.5436L312.996 90.1024L313.329 91.7314L310.931 92.1726ZM315.723 91.2901L315.39 89.6611L317.787 89.2199L318.12 90.8489L315.723 91.2901ZM320.517 90.4043L320.185 88.7753L322.582 88.334L322.914 89.963L320.517 90.4043ZM325.312 89.5218L324.976 87.8928L327.373 87.4515L327.709 89.0805L325.312 89.5218ZM330.103 88.6393L329.77 87.0103L332.168 86.569L332.5 88.198L330.103 88.6393ZM334.897 87.7534L334.561 86.1244L336.959 85.6832L337.295 87.3122L334.897 87.7534ZM339.688 86.8709L339.356 85.2419L341.753 84.8007L342.086 86.4297L339.688 86.8709ZM344.483 85.9884L344.147 84.3594L346.544 83.9182L346.88 85.5472L344.483 85.9884ZM349.278 85.1026L348.945 83.4736L351.342 83.0323L351.675 84.6613L349.278 85.1026ZM354.069 84.2201L353.736 82.5911L356.133 82.1498L356.466 83.7788L354.069 84.2201ZM358.863 83.3376L358.531 81.7086L360.928 81.2673L361.26 82.8963L358.863 83.3376ZM363.654 82.4517L363.322 80.8227L365.719 80.3815L366.052 82.0105L363.654 82.4517ZM368.449 81.5692L368.116 79.9402L370.514 79.499L370.846 81.128L368.449 81.5692ZM373.243 80.6867L372.911 79.0577L375.308 78.6165L375.641 80.2454L373.243 80.6867ZM378.034 79.8009L377.698 78.1719L380.096 77.7306L380.432 79.3596L378.034 79.8009ZM382.829 78.9184L382.493 77.2894L384.89 76.8481L385.226 78.4771L382.829 78.9184ZM387.697 77.9496L387.183 76.3637C387.904 76.1514 388.604 75.8727 389.265 75.531L390.105 76.9875C389.338 77.3823 388.53 77.7041 387.697 77.9496ZM392.257 75.5874L391.13 74.32C391.708 73.8589 392.236 73.3413 392.705 72.7806L394.077 73.8124C393.535 74.456 392.922 75.0532 392.257 75.5874ZM395.484 71.7256L393.923 70.9725C394.266 70.3355 394.539 69.662 394.738 68.9719L396.425 69.4131C396.198 70.2094 395.879 70.989 395.484 71.7256ZM396.866 66.9713L395.12 66.8618C395.137 66.6163 395.144 66.3708 395.144 66.1286V64.6024H396.894V66.1286C396.894 66.4073 396.884 66.6893 396.866 66.9713Z" fill="#393939"/>
<path d="M295.666 116.72H293.916V117.882H295.666V116.72Z" fill="#393939"/>
<path d="M283.844 61.1255H282.094V62.2867H283.844V61.1255Z" fill="#393939"/>
<path d="M283.844 114.355H282.094V111.986H283.844V114.355ZM283.844 109.62H282.094V107.255H283.844V109.62ZM283.844 104.886H282.094V102.521H283.844V104.886ZM283.844 100.155H282.094V97.7895H283.844V100.155ZM283.844 95.4206H282.094V93.0551H283.844V95.4206ZM283.844 90.6862H282.094V88.3207H283.844V90.6862ZM283.844 85.9552H282.094V83.5897H283.844V85.9552ZM283.844 81.2208H282.094V78.8553H283.844V81.2208ZM283.844 76.4865H282.094V74.1209H283.844V76.4865ZM283.844 71.7554H282.094V69.3899H283.844V71.7554ZM283.844 67.021H282.094V64.6555H283.844V67.021Z" fill="#393939"/>
<path d="M283.844 116.72H282.094V117.882H283.844V116.72Z" fill="#393939"/>
<path d="M61.2847 40.6253H59.5349V41.7865H61.2847V40.6253Z" fill="#393939"/>
<path d="M61.2847 38.2267H59.5349V35.828H61.2847V38.2267ZM61.2847 33.426H59.5349V31.0272H61.2847V33.426ZM61.2847 28.6285H59.5349V26.2298H61.2847V28.6285Z" fill="#393939"/>
<path d="M61.2847 22.6666H59.5349V23.8278H61.2847V22.6666Z" fill="#393939"/>
<path d="M171.059 40.6254H169.31V41.7866H171.059V40.6254Z" fill="#393939"/>
<path d="M171.059 38.3428H169.31V36.0602H171.059V38.3428ZM171.059 33.7776H169.31V31.495H171.059V33.7776ZM171.059 29.2125H169.31V26.9299H171.059V29.2125Z" fill="#393939"/>
<path d="M171.059 23.4861H169.31V24.6473H171.059V23.4861Z" fill="#393939"/>
<path d="M283.844 40.6254H282.094V41.7866H283.844V40.6254Z" fill="#393939"/>
<path d="M283.844 38.3428H282.094V36.0602H283.844V38.3428ZM283.844 33.7776H282.094V31.495H283.844V33.7776ZM283.844 29.2125H282.094V26.9299H283.844V29.2125Z" fill="#393939"/>
<path d="M283.844 23.4861H282.094V24.6473H283.844V23.4861Z" fill="#393939"/>
<path d="M396.894 40.6254H395.144V41.7866H396.894V40.6254Z" fill="#393939"/>
<path d="M396.894 38.3428H395.144V36.0602H396.894V38.3428ZM396.894 33.7776H395.144V31.495H396.894V33.7776ZM396.894 29.2125H395.144V26.9299H396.894V29.2125Z" fill="#393939"/>
<path d="M396.894 23.4861H395.144V24.6473H396.894V23.4861Z" fill="#393939"/>
<path d="M506.669 40.6254H504.919V41.7866H506.669V40.6254Z" fill="#393939"/>
<path d="M506.669 38.3428H504.919V36.0602H506.669V38.3428ZM506.669 33.7776H504.919V31.495H506.669V33.7776ZM506.669 29.2125H504.919V26.9299H506.669V29.2125Z" fill="#393939"/>
<path d="M506.669 23.4861H504.919V24.6473H506.669V23.4861Z" fill="#393939"/>
<path d="M283.539 273.379H281.79V271.057H283.539V273.379ZM283.539 268.735H281.79V266.412H283.539V268.735ZM283.539 264.09H281.79V261.767H283.539V264.09ZM283.539 259.445H281.79V257.123H283.539V259.445ZM283.539 254.8H281.79V252.478H283.539V254.8ZM283.539 250.155H281.79V247.833H283.539V250.155ZM283.539 245.511H281.79V243.188H283.539V245.511ZM283.539 240.866H281.79V238.543H283.539V240.866ZM283.539 236.221H281.79V233.899H283.539V236.221ZM283.539 231.576H281.79V229.254H283.539V231.576ZM283.539 226.931H281.79V224.609H283.539V226.931ZM283.539 222.287H281.79V219.964H283.539V222.287ZM283.539 217.642H281.79V215.319H283.539V217.642ZM283.539 212.997H281.79V210.675H283.539V212.997ZM283.539 208.352H281.79V206.03H283.539V208.352ZM283.539 203.707H281.79V201.385H283.539V203.707ZM283.539 199.063H281.79V196.74H283.539V199.063ZM283.539 194.418H281.79V192.095H283.539V194.418Z" fill="#393939"/>
<path d="M419.261 175.958H385.86V136.331H419.261V175.958ZM387.61 174.299H417.511V137.99H387.61V174.299Z" fill="#393939"/>
<path d="M419.261 165.554H385.86V136.331H419.261V165.554ZM387.61 163.895H417.511V137.99H387.61V163.895Z" fill="#393939"/>
<path d="M413.287 155.226H391.834V146.663H413.287V155.226ZM393.584 153.567H411.537V148.322H393.584V153.567Z" fill="#393939"/>
<path d="M776.639 267.65L666.567 332.667L667.492 334.075L777.564 269.058L776.639 267.65Z" fill="#393939"/>
<path d="M680.927 267.64L680.002 269.048L790.074 334.064L790.999 332.656L680.927 267.64Z" fill="#393939"/>
<path d="M762.584 208.105L679.972 266.66L681.02 267.988L763.632 209.434L762.584 208.105Z" fill="#393939"/>
<path d="M695.066 208.141L694.018 209.469L776.641 268.014L777.689 266.685L695.066 208.141Z" fill="#393939"/>
<path d="M751.55 149.879L693.89 208.416L695.169 209.549L752.829 151.011L751.55 149.879Z" fill="#393939"/>
<path d="M706.522 149.898L705.239 151.026L762.498 209.57L763.781 208.443L706.522 149.898Z" fill="#393939"/>
<path d="M808 408H2V410H808V408Z" fill="#393939"/>
<path d="M770.136 150.113H687.498V151.772H770.136V150.113Z" fill="#393939"/>
<path d="M687.498 155.405C690.397 155.405 692.748 153.177 692.748 150.428C692.748 147.68 690.397 145.452 687.498 145.452C684.599 145.452 682.249 147.68 682.249 150.428C682.249 153.177 684.599 155.405 687.498 155.405Z" fill="#393939"/>
<path d="M687.498 156.234C684.121 156.234 681.374 153.63 681.374 150.428C681.374 147.227 684.121 144.622 687.498 144.622C690.875 144.622 693.622 147.227 693.622 150.428C693.622 153.63 690.875 156.234 687.498 156.234ZM687.498 146.281C685.087 146.281 683.123 148.142 683.123 150.428C683.123 152.714 685.087 154.576 687.498 154.576C689.909 154.576 691.873 152.714 691.873 150.428C691.873 148.142 689.909 146.281 687.498 146.281Z" fill="#393939"/>
<path d="M770.136 155.405C773.035 155.405 775.385 153.177 775.385 150.428C775.385 147.68 773.035 145.452 770.136 145.452C767.237 145.452 764.887 147.68 764.887 150.428C764.887 153.177 767.237 155.405 770.136 155.405Z" fill="#393939"/>
<path d="M770.136 156.234C766.759 156.234 764.012 153.63 764.012 150.428C764.012 147.227 766.759 144.622 770.136 144.622C773.513 144.622 776.26 147.227 776.26 150.428C776.26 153.63 773.513 156.234 770.136 156.234ZM770.136 146.281C767.725 146.281 765.761 148.142 765.761 150.428C765.761 152.714 767.725 154.576 770.136 154.576C772.547 154.576 774.511 152.714 774.511 150.428C774.511 148.142 772.547 146.281 770.136 146.281Z" fill="#393939"/>
<path d="M808.062 409.684H649.95L650.16 408.692L705.098 150.107L752.911 150.11L753.051 150.777L808.062 409.684ZM652.084 408.025H805.924L751.479 151.765L706.533 151.762L652.084 408.025Z" fill="#393939"/>
<path d="M624.458 175.643C623.957 175.643 623.454 175.64 622.95 175.63L622.981 173.971C623.793 173.984 624.601 173.987 625.403 173.977L625.424 175.636C625.105 175.64 624.78 175.643 624.458 175.643ZM627.902 175.573L627.828 173.914C628.633 173.881 629.445 173.838 630.246 173.782L630.376 175.437C629.557 175.494 628.724 175.54 627.902 175.573ZM620.475 175.55C619.656 175.51 618.823 175.46 618.005 175.397L618.144 173.745C618.946 173.805 619.758 173.858 620.563 173.894L620.475 175.55ZM632.84 175.232L632.661 173.583C633.459 173.503 634.271 173.413 635.069 173.314L635.3 174.959C634.481 175.059 633.655 175.152 632.84 175.232ZM615.537 175.172C614.722 175.086 613.896 174.986 613.08 174.873L613.329 173.231C614.127 173.34 614.935 173.437 615.733 173.523L615.537 175.172ZM637.746 174.611L637.463 172.975C638.257 172.853 639.059 172.717 639.85 172.571L640.182 174.2C639.377 174.346 638.555 174.485 637.746 174.611ZM610.638 174.505C609.826 174.369 609.007 174.223 608.205 174.064L608.559 172.438C609.343 172.591 610.144 172.737 610.939 172.869L610.638 174.505ZM642.604 173.719L642.222 172.1C643.006 171.934 643.801 171.755 644.581 171.569L645.008 173.178C644.214 173.37 643.405 173.553 642.604 173.719ZM605.787 173.556C604.993 173.377 604.188 173.181 603.386 172.979L603.841 171.376C604.622 171.575 605.413 171.768 606.19 171.94L605.787 173.556ZM647.402 172.574L646.926 170.978C647.699 170.773 648.483 170.55 649.253 170.325L649.771 171.907C648.987 172.139 648.189 172.362 647.402 172.574ZM601.01 172.332C600.226 172.11 599.435 171.867 598.651 171.622L599.204 170.049C599.971 170.291 600.748 170.527 601.514 170.746L601.01 172.332ZM652.126 171.181L651.563 169.611C652.322 169.366 653.096 169.107 653.852 168.842L654.457 170.398C653.684 170.666 652.9 170.932 652.126 171.181ZM596.313 170.849C595.55 170.583 594.77 170.301 594.004 170.013L594.651 168.47C595.403 168.755 596.166 169.031 596.919 169.289L596.313 170.849ZM656.764 169.558L656.116 168.019C656.865 167.737 657.621 167.442 658.363 167.14L659.049 168.666C658.296 168.968 657.527 169.27 656.764 169.558ZM591.718 169.117C590.969 168.812 590.206 168.49 589.461 168.165L590.192 166.659C590.927 166.98 591.673 167.296 592.408 167.594L591.718 169.117ZM661.313 167.717L660.585 166.207C661.317 165.889 662.059 165.56 662.783 165.225L663.546 166.718C662.811 167.06 662.059 167.395 661.313 167.717ZM587.228 167.156C586.497 166.814 585.755 166.456 585.027 166.095L585.839 164.625C586.556 164.983 587.284 165.331 588.002 165.667L587.228 167.156ZM665.758 165.67L664.956 164.197C665.674 163.845 666.398 163.484 667.105 163.119L667.942 164.575C667.221 164.947 666.489 165.315 665.758 165.67ZM582.85 164.98C582.14 164.605 581.419 164.213 580.705 163.819L581.59 162.389C582.29 162.777 582.997 163.162 583.697 163.533L582.85 164.98ZM670.097 163.43L669.226 161.994C669.922 161.616 670.626 161.221 671.319 160.823L672.225 162.243C671.522 162.644 670.808 163.046 670.097 163.43ZM578.594 162.608C577.902 162.203 577.202 161.778 576.509 161.354L577.464 159.963C578.143 160.385 578.836 160.799 579.515 161.198L578.594 162.608ZM674.328 161.002L673.387 159.602C674.073 159.187 674.759 158.766 675.424 158.341L676.397 159.721C675.721 160.153 675.025 160.584 674.328 161.002ZM574.458 160.056C573.786 159.622 573.107 159.17 572.435 158.716L573.45 157.366C574.111 157.814 574.783 158.258 575.445 158.686L574.458 160.056ZM678.437 158.394L677.429 157.037C678.094 156.593 678.759 156.141 679.403 155.69L680.442 157.024C679.792 157.485 679.116 157.943 678.437 158.394ZM570.44 157.339C569.786 156.878 569.128 156.4 568.477 155.922L569.551 154.612C570.192 155.083 570.843 155.554 571.487 156.009L570.44 157.339ZM682.42 155.607L681.345 154.297C681.993 153.819 682.633 153.335 683.246 152.86L684.355 154.144C683.732 154.629 683.081 155.123 682.42 155.607ZM566.545 154.469C565.912 153.985 565.278 153.491 564.641 152.983L565.765 151.712C566.391 152.21 567.018 152.701 567.644 153.179L566.545 154.469ZM686.252 152.625L685.101 151.374C686.255 150.418 686.875 149.841 686.882 149.834L688.11 151.016C688.086 151.042 687.452 151.633 686.252 152.625Z" fill="#393939"/>
<path d="M541.561 151.258H539.111V149.599H541.561V151.258ZM536.661 151.258H534.212V149.599H536.661V151.258ZM531.762 151.258H529.312V149.599H531.762V151.258ZM526.862 151.258H524.412V149.599H526.862V151.258ZM521.963 151.258H519.513V149.599H521.963V151.258ZM517.063 151.258H514.613V149.599H517.063V151.258ZM512.163 151.258H509.714V149.599H512.163V151.258ZM507.264 151.258H504.814V149.599H507.264V151.258ZM502.364 151.258H499.915V149.599H502.364V151.258ZM497.465 151.258H495.015V149.599H497.465V151.258ZM492.565 151.258H490.115V149.599H492.565V151.258ZM487.666 151.258H485.216V149.599H487.666V151.258ZM482.766 151.258H480.316V149.599H482.766V151.258ZM477.867 151.258H475.417V149.599H477.867V151.258ZM472.967 151.258H470.517V149.599H472.967V151.258ZM468.067 151.258H465.618V149.599H468.067V151.258ZM463.168 151.258H460.718V149.599H463.168V151.258ZM458.268 151.258H455.819V149.599H458.268V151.258ZM453.369 151.258H450.919V149.599H453.369V151.258ZM448.469 151.258H446.019V149.599H448.469V151.258ZM443.57 151.258H441.12V149.599H443.57V151.258ZM438.67 151.258H436.22V149.599H438.67V151.258ZM433.771 151.258H431.321V149.599H433.771V151.258ZM428.871 151.258H426.421V149.599H428.871V151.258ZM423.971 151.258H421.522V149.599H423.971V151.258ZM419.072 151.258H418.386V149.599H419.072V151.258Z" fill="#393939"/>
<path d="M383.207 203.95H382.147V202.291H383.207C383.648 202.291 384.096 202.277 384.533 202.248L384.656 203.903C384.176 203.933 383.69 203.95 383.207 203.95ZM379.693 203.95H377.244V202.291H379.693V203.95ZM374.794 203.95H372.344V202.291H374.794V203.95ZM369.894 203.95H367.444V202.291H369.894V203.95ZM364.995 203.95H362.545V202.291H364.995V203.95ZM360.095 203.95H357.645V202.291H360.095V203.95ZM355.196 203.95H352.746V202.291H355.196V203.95ZM350.296 203.95H347.846V202.291H350.296V203.95ZM345.396 203.95H342.947V202.291H345.396V203.95ZM340.497 203.95H338.047V202.291H340.497V203.95ZM335.597 203.95H333.147V202.291H335.597V203.95ZM330.698 203.95H328.248V202.291H330.698V203.95ZM325.798 203.95H323.348V202.291H325.798V203.95ZM320.899 203.95H318.449V202.291H320.899V203.95ZM315.999 203.95H313.549V202.291H315.999V203.95ZM311.099 203.95H308.65V202.291H311.099V203.95ZM306.2 203.95H303.75V202.291H306.2V203.95ZM301.3 203.95H298.85V202.291H301.3V203.95ZM296.401 203.95H293.951V202.291H296.401V203.95ZM291.501 203.95H289.051V202.291H291.501V203.95ZM286.602 203.95H284.152V202.291H286.602V203.95ZM387.19 203.575L386.847 201.949C387.61 201.803 388.369 201.614 389.104 201.378L389.66 202.951C388.856 203.206 388.023 203.419 387.19 203.575ZM392.03 202.032L391.267 200.539C391.967 200.217 392.649 199.849 393.3 199.447L394.256 200.838C393.545 201.279 392.796 201.68 392.03 202.032ZM396.303 199.388L395.169 198.124C395.76 197.646 396.327 197.128 396.852 196.584L398.144 197.702C397.57 198.299 396.95 198.863 396.303 199.388ZM399.747 195.814L398.315 194.859C398.763 194.255 399.176 193.621 399.54 192.971L401.087 193.748C400.688 194.458 400.237 195.154 399.747 195.814ZM402.14 191.535L400.503 190.951C400.776 190.261 401.006 189.547 401.185 188.831L402.889 189.212C402.693 189.999 402.441 190.778 402.14 191.535ZM403.32 186.824L401.58 186.648C401.65 186.027 401.685 185.397 401.685 184.773V184.418H403.435V184.773C403.435 185.457 403.397 186.147 403.32 186.824ZM403.435 182.096H401.685V179.773H403.435V182.096ZM403.435 177.451H401.685V175.129H403.435V177.451Z" fill="#393939"/>
<path d="M729.69 105.779H727.94V150.943H729.69V105.779Z" fill="#393939"/>
</svg>
