<svg width="182" height="43" viewBox="0 0 182 43" fill="none" xmlns="http://www.w3.org/2000/svg">
<path d="M6.24188 7.76538C10.2936 7.76538 12.3742 10.1745 12.3742 14.4453V15.3213H8.43201V14.2263C8.43201 12.3647 7.66546 11.5981 6.35138 11.5981C5.0373 11.5981 4.27076 12.2552 4.27076 14.2263C4.27076 19.7016 12.3742 20.6872 12.3742 28.2431C12.3742 32.5139 10.2936 34.923 6.13237 34.923C2.08063 34.923 0 32.5139 0 28.2431V26.6005H3.94224V28.4621C3.94224 30.3237 4.81829 30.9808 6.13237 30.9808C7.44645 30.9808 8.3225 30.3237 8.3225 28.4621C8.3225 22.9868 0.219013 22.0012 0.219013 14.4453C0.109507 10.284 2.19013 7.76538 6.24188 7.76538Z" fill="white"/>
<path d="M19.1632 8.09406V28.4623C19.1632 30.3239 20.0393 30.9809 21.3533 30.9809C22.6674 30.9809 23.5435 30.3239 23.5435 28.4623V8.09406H27.4857V28.2433C27.4857 32.514 25.4051 34.9232 21.2438 34.9232C17.1921 34.9232 15.002 32.514 15.002 28.2433V8.09406H19.1632Z" fill="white"/>
<path d="M34.4947 15.431V34.5947H30.7715V8.09406H36.0278L40.1891 23.9725V8.09406H43.9123V34.4852H39.6415L34.4947 15.431Z" fill="white"/>
<path d="M53.0008 7.76538C57.0525 7.76538 59.1332 10.1745 59.1332 14.4453V15.3213H55.1909V14.2263C55.1909 12.3647 54.4244 11.5981 53.1103 11.5981C51.7962 11.5981 51.0297 12.2552 51.0297 14.2263C51.0297 19.7016 59.1332 20.6872 59.1332 28.2431C59.1332 32.5139 57.0525 34.923 52.8913 34.923C48.73 34.923 46.6494 32.5139 46.6494 28.2431V26.6005H50.5917V28.4621C50.5917 30.3237 51.4677 30.9808 52.7818 30.9808C54.0959 30.9808 54.9719 30.3237 54.9719 28.4621C54.9719 22.9868 46.8684 22.0012 46.8684 14.4453C46.8684 10.284 48.9491 7.76538 53.0008 7.76538Z" fill="white"/>
<path d="M75.4503 34.5943H71.289L70.5225 29.7761H65.3756L64.6091 34.5943H60.7764L65.0471 8.20325H71.1795L75.4503 34.5943ZM65.9232 26.1623H69.9749L68.0038 12.8025L65.9232 26.1623Z" fill="white"/>
<path d="M81.8014 25.8341L76.4355 8.09406H80.8158L83.9915 20.1398L87.1672 8.09406H91.1094L85.8531 25.7246V34.4852H81.6919L81.8014 25.8341Z" fill="white"/>
<path d="M141.373 15.431V34.5947H137.649V8.09406H142.906L147.176 23.863V8.09406H150.9V34.4852H146.629L141.373 15.431Z" fill="white"/>
<path d="M163.055 34.5947C162.836 33.9376 162.617 33.4996 162.617 31.3095V27.1482C162.617 24.7391 161.741 23.7535 159.88 23.7535H158.456V34.4852H154.295V8.09406H160.537C164.808 8.09406 166.669 10.0652 166.669 14.1169V16.3071C166.669 19.0447 165.793 20.7968 163.932 21.6729C166.012 22.5489 166.669 24.52 166.669 27.2577V31.3095C166.669 32.6235 166.669 33.4996 167.107 34.4852L163.055 34.5947ZM158.456 11.9268V20.0303H160.099C161.632 20.0303 162.617 19.3732 162.617 17.1831V14.5549C162.617 12.6933 161.96 11.8173 160.537 11.8173H158.456V11.9268Z" fill="white"/>
<path d="M176.196 19.8111H182V28.2431C182 32.5139 179.919 34.923 175.868 34.923C171.816 34.923 169.735 32.5139 169.735 28.2431V14.4453C169.735 10.1745 171.816 7.76538 175.868 7.76538C179.919 7.76538 182 10.1745 182 14.4453V17.0734H178.058V14.2263C178.058 12.3647 177.182 11.5981 175.868 11.5981C174.554 11.5981 173.678 12.2552 173.678 14.2263V28.4621C173.678 30.3237 174.554 30.9808 175.868 30.9808C177.182 30.9808 178.058 30.3237 178.058 28.4621V23.5343H176.196V19.8111Z" fill="white"/>
<path d="M107.097 28.2433C100.527 22.0014 100.308 11.4888 106.659 5.02791C113.01 -1.43298 123.414 -1.7615 129.874 4.58989" fill="white"/>
<path d="M120.238 14.2265C126.809 20.4684 127.028 30.981 120.676 37.4419C114.325 43.9028 104.031 44.2313 97.4609 37.9894" fill="white"/>
<path d="M126.699 7.76555C121.991 3.27578 114.435 3.38528 109.945 8.09407C105.455 12.8029 105.565 20.2493 110.164 24.7391L100.637 34.5947C105.346 39.0844 112.901 38.9749 117.391 34.2662C121.881 29.5574 121.771 22.1109 117.172 17.6211L126.699 7.76555Z" fill="#FFE564"/>
</svg>
