<?xml version="1.0" encoding="utf-8"?>
<!-- Generator: Adobe Illustrator 23.0.1, SVG Export Plug-In . SVG Version: 6.00 Build 0)  -->
<svg version="1.1" id="Layer_1" xmlns="http://www.w3.org/2000/svg" xmlns:xlink="http://www.w3.org/1999/xlink" x="0px" y="0px"
	 viewBox="0 0 166.225 38.975" enable-background="new 0 0 166.225 38.975" xml:space="preserve">
<g>
	<g>
		<path d="M5.69,7.253c3.69,0,5.587,2.207,5.587,6.069v0.758H7.69v-1c0-1.724-0.69-2.379-1.897-2.379s-1.896,0.655-1.896,2.379
			c0,4.966,7.414,5.897,7.414,12.794c0,3.861-1.931,6.068-5.655,6.068C1.931,31.943,0,29.736,0,25.875v-1.483h3.586v1.725
			c0,1.724,0.759,2.345,1.966,2.345s1.966-0.621,1.966-2.345c0-4.966-7.415-5.897-7.415-12.794C0.104,9.46,2.001,7.253,5.69,7.253z"
			/>
		<path d="M17.551,7.528V26.15c0,1.725,0.758,2.345,1.965,2.345s1.966-0.62,1.966-2.345V7.528h3.586v18.381
			c0,3.862-1.931,6.069-5.656,6.069c-3.724,0-5.655-2.207-5.655-6.069V7.528H17.551z"/>
		<path d="M31.48,14.184v17.484h-3.414V7.528h4.759l3.896,14.449V7.528h3.379v24.14h-3.896L31.48,14.184z"/>
		<path d="M48.375,7.253c3.69,0,5.587,2.207,5.587,6.069v0.758h-3.586v-1c0-1.724-0.69-2.379-1.897-2.379s-1.896,0.655-1.896,2.379
			c0,4.966,7.414,5.897,7.414,12.794c0,3.861-1.931,6.068-5.655,6.068c-3.725,0-5.656-2.207-5.656-6.068v-1.483h3.586v1.725
			c0,1.724,0.759,2.345,1.966,2.345s1.966-0.621,1.966-2.345c0-4.966-7.415-5.897-7.415-12.794
			C42.788,9.46,44.685,7.253,48.375,7.253z"/>
		<path d="M68.891,31.668h-3.828l-0.655-4.38h-4.655l-0.655,4.38h-3.483l3.862-24.14h5.552L68.891,31.668z M60.235,24.013h3.655
			l-1.828-12.208L60.235,24.013z"/>
		<path d="M74.647,23.668l-4.793-16.14h3.966l2.897,11.001l2.896-11.001h3.621l-4.793,16.14v8h-3.793V23.668z"/>
		<path d="M129.127,14.184v17.484h-3.414V7.528h4.759l3.897,14.449V7.528h3.379v24.14h-3.896L129.127,14.184z"/>
		<path d="M148.85,31.668c-0.207-0.621-0.345-1-0.345-2.966v-3.793c0-2.242-0.759-3.069-2.482-3.069h-1.311v9.828h-3.794V7.528
			h5.725c3.932,0,5.621,1.828,5.621,5.552v1.897c0,2.482-0.793,4.104-2.482,4.896c1.896,0.793,2.518,2.621,2.518,5.139v3.724
			c0,1.173,0.034,2.035,0.413,2.932H148.85z M144.712,10.977v7.414h1.482c1.414,0,2.276-0.621,2.276-2.552V13.46
			c0-1.724-0.586-2.483-1.932-2.483H144.712z"/>
		<path d="M160.918,18.219h5.311v7.656c0,3.861-1.931,6.068-5.655,6.068s-5.655-2.207-5.655-6.068V13.322
			c0-3.862,1.931-6.069,5.655-6.069s5.655,2.207,5.655,6.069v2.345h-3.586v-2.586c0-1.724-0.759-2.379-1.966-2.379
			s-1.966,0.655-1.966,2.379v13.036c0,1.724,0.759,2.345,1.966,2.345s1.966-0.621,1.966-2.345v-4.449h-1.725V18.219z"/>
	</g>
	<g>
		<g>
			<path fill="#FFD100" d="M97.763,25.868c-5.988-5.745-6.186-15.256-0.441-21.244s15.256-6.186,21.244-0.441"/>
		</g>
		<g>
			<path fill="#FFD100" d="M109.806,13.107c5.988,5.744,6.186,15.256,0.441,21.244s-15.256,6.186-21.244,0.441"/>
		</g>
		<g>
			<path fill="#FFE564" d="M115.658,7.213c-4.314-4.139-11.167-3.996-15.306,0.318c-4.105,4.28-3.996,11.056,0.217,15.204
				l-8.659,9.026c4.314,4.139,11.167,3.996,15.306-0.318c4.105-4.28,3.996-11.056-0.217-15.204L115.658,7.213z"/>
		</g>
	</g>
</g>
</svg>
