<?xml version="1.0" encoding="utf-8"?>
<!-- Generator: Adobe Illustrator 24.0.0, SVG Export Plug-In . SVG Version: 6.00 Build 0)  -->
<svg version="1.1" id="Шар_1" xmlns="http://www.w3.org/2000/svg" xmlns:xlink="http://www.w3.org/1999/xlink" x="0px" y="0px"
	 viewBox="0 0 168.4 39.3" style="enable-background:new 0 0 168.4 39.3;" xml:space="preserve">
<style type="text/css">
	.st0{enable-background:new    ;}
	.st1{fill:#101010;}
	.st2{fill:#FFFFFF;}
	.st3{fill:#FCE872;}
</style>
<title>sunsay_logo 2</title>
<g>
	<g>
		<g class="st0">
			<path class="st1" d="M0.8,26.1v-1.5h3.9v1.7c0,1.6,0.6,2.4,1.8,2.4s1.8-0.8,1.8-2.4c0-0.7-0.1-1.3-0.4-1.9s-0.6-1.1-1-1.6
				s-0.9-1-1.4-1.4c-0.5-0.5-1.1-1-1.6-1.5s-1-1.1-1.5-1.7c-0.4-0.6-0.8-1.3-1.1-2.1s-0.4-1.7-0.4-2.6c0-2,0.5-3.5,1.6-4.5
				c1-1.1,2.4-1.6,4.2-1.6S9.8,7.9,10.8,9s1.4,2.6,1.4,4.5v0.8H8.6v-1c0-1.6-0.6-2.4-1.9-2.4c-0.6,0-1.1,0.2-1.4,0.6s-0.5,1-0.5,1.8
				c0,0.7,0.1,1.3,0.4,1.9c0.3,0.6,0.6,1.1,1.1,1.6c0.4,0.5,0.9,1,1.5,1.4c0.5,0.5,1.1,1,1.6,1.5s1,1.1,1.5,1.7
				c0.4,0.6,0.8,1.3,1.1,2.1c0.3,0.8,0.4,1.7,0.4,2.6c0,2-0.5,3.5-1.5,4.5c-1,1.1-2.3,1.6-4.1,1.6s-3.2-0.5-4.2-1.6
				C1.3,29.5,0.8,28,0.8,26.1z"/>
			<path class="st1" d="M14.2,26.1V7.6H18v18.8c0,1.6,0.7,2.4,2,2.4s2-0.8,2-2.4V7.6h3.8v18.5c0,2-0.5,3.5-1.5,4.5s-2.5,1.6-4.3,1.6
				s-3.3-0.5-4.3-1.6S14.2,28.1,14.2,26.1z"/>
			<path class="st1" d="M28.2,31.9V7.6h5.2l3.9,14.6V7.6h3.4v24.3h-3.9L32,14.3v17.6C32,31.9,28.2,31.9,28.2,31.9z"/>
			<path class="st1" d="M42.4,26.1v-1.5h3.9v1.7c0,1.6,0.6,2.4,1.8,2.4s1.8-0.8,1.8-2.4c0-0.7-0.1-1.3-0.4-1.9s-0.6-1.1-1-1.6
				s-0.9-1-1.4-1.4c-0.5-0.5-1.1-1-1.6-1.5s-1-1.1-1.5-1.7c-0.4-0.6-0.8-1.3-1.1-2.1s-0.4-1.7-0.4-2.6c0-2,0.5-3.5,1.6-4.5
				c1-1.1,2.4-1.6,4.2-1.6s3.1,0.5,4.1,1.6s1.4,2.6,1.4,4.5v0.8h-3.6v-1c0-1.6-0.6-2.4-1.9-2.4c-0.6,0-1.1,0.2-1.4,0.6
				s-0.5,1-0.5,1.8c0,0.7,0.1,1.3,0.4,1.9c0.3,0.6,0.6,1.1,1.1,1.6c0.4,0.5,0.9,1,1.5,1.4c0.5,0.5,1.1,1,1.6,1.5s1,1.1,1.5,1.7
				c0.4,0.6,0.8,1.3,1.1,2.1c0.3,0.8,0.4,1.7,0.4,2.6c0,2-0.5,3.5-1.5,4.5c-1,1.1-2.3,1.6-4.1,1.6s-3.2-0.5-4.2-1.6
				C43,29.5,42.4,28,42.4,26.1z"/>
			<path class="st1" d="M55,31.9l3.9-24.3h5.9l3.9,24.3h-3.8l-0.7-4.4h-4.7l-0.7,4.4H55z M60,24.2h3.7l-1.8-12.3L60,24.2z"/>
			<path class="st1" d="M68.9,7.6h3.8l2.9,11.1l2.9-11.1h3.8l-5,16.3V32h-3.8v-8.1L68.9,7.6z"/>
		</g>
		<g class="st0">
			<path class="st1" d="M127.4,31.9V7.6h5.2l3.9,14.6V7.6h3.4v24.3H136l-4.7-17.6v17.6H127.4z"/>
			<path class="st1" d="M142.3,31.9V7.6h5.8c2,0,3.4,0.5,4.3,1.4c0.9,0.9,1.4,2.3,1.4,4.2v1.9c0,2.5-0.8,4.1-2.5,4.9
				c0.9,0.4,1.6,1,2,1.9s0.6,2,0.6,3.3V29c0,1.3,0.1,2.3,0.4,3h-3.8c-0.1-0.3-0.2-0.5-0.2-0.6s-0.1-0.4-0.1-0.8s-0.1-0.9-0.1-1.5
				v-3.8c0-1.1-0.2-1.9-0.6-2.4c-0.4-0.5-1-0.7-1.9-0.7h-1.3v9.9h-4V31.9z M146.1,18.5h1.5c0.8,0,1.3-0.2,1.7-0.6s0.6-1.1,0.6-2
				v-2.4c0-0.9-0.2-1.5-0.5-1.9s-0.8-0.6-1.5-0.6H146L146.1,18.5L146.1,18.5z"/>
			<path class="st1" d="M155.9,26.1V13.4c0-2,0.5-3.5,1.5-4.5c1-1.1,2.4-1.6,4.3-1.6s3.3,0.5,4.4,1.6c1,1.1,1.5,2.6,1.5,4.5v2.4
				h-3.8v-2.6c0-1.6-0.6-2.4-1.8-2.4c-1.5,0-2.2,0.8-2.2,2.4v13.1c0,1.6,0.7,2.4,2.2,2.4c1.2,0,1.8-0.8,1.8-2.4v-4.5h-1.5v-3.5h5.3
				V26c0,2-0.5,3.5-1.5,4.5c-1,1.1-2.5,1.6-4.4,1.6s-3.3-0.5-4.3-1.6C156.4,29.5,155.9,28,155.9,26.1z"/>
		</g>
	</g>
	<path class="st2" d="M99.3,26.1c-6-5.8-6.2-15.4-0.4-21.4s15.4-6.2,21.4-0.4"/>
	<path class="st2" d="M111.4,13.2c6,5.8,6.2,15.4,0.4,21.4S96.4,40.8,90.4,35l0,0"/>
	<path class="st3" d="M117.3,7.3c-4.3-4.2-11.2-4.1-15.4,0.2s-4.1,11.2,0.2,15.4L93.4,32c4.3,4.2,11.2,4.1,15.4-0.2
		s4.1-11.2-0.2-15.4L117.3,7.3z"/>
</g>
</svg>
