<svg version="1.2" xmlns="http://www.w3.org/2000/svg" viewBox="0 0 791 189" width="500" height="119">
	<title>Новый проект</title>
	<style>
		.s0 { fill: #000000 } 
		.s1 { fill: #ffd100 } 
	</style>
	<path id="Path 1" fill-rule="evenodd" class="s0" d="m216.1 34.3c17.3 0 26.2 10.6 26.2 29.1v3.7h-16.8v-4.8c0-8.3-3.2-11.5-8.9-11.5-5.7 0-8.9 3.2-8.9 11.5 0 23.8 34.8 28.3 34.8 61.5 0 18.5-9.1 29.1-26.5 29.1-17.5 0-26.6-10.6-26.6-29.1v-7.2h16.9v8.3c0 8.3 3.5 11.3 9.2 11.3 5.6 0 9.2-3 9.2-11.3 0-23.8-34.8-28.3-34.8-61.5 0-18.5 8.9-29.1 26.2-29.1zm55.2 1.3v89.5c0 8.3 3.5 11.3 9.2 11.3 5.7 0 9.2-3 9.2-11.3v-89.5h16.8v88.3c0 18.6-9 29.2-26.5 29.2-17.4 0-26.5-10.6-26.5-29.2v-88.3zm62.9 32v84h-16v-116h22.3l18.2 69.4v-69.4h15.9v116h-18.3zm77.6-33.3c17.3 0 26.2 10.6 26.2 29.2v3.6h-16.8v-4.8c0-8.3-3.3-11.4-8.9-11.4-5.7 0-8.9 3.1-8.9 11.4 0 23.9 34.8 28.3 34.8 61.5 0 18.6-9.1 29.2-26.6 29.2-17.4 0-26.5-10.6-26.5-29.2v-7.1h16.8v8.3c0 8.2 3.6 11.2 9.3 11.2 5.6 0 9.2-3 9.2-11.2 0-23.9-34.8-28.4-34.8-61.5 0-18.6 8.9-29.2 26.2-29.2zm94.5 117.3h-17.9l-3.1-21h-21.8l-3.1 21h-16.3l18.1-116h26zm-40.6-36.8h17.2l-8.6-58.6zm55.8-1.7l-22.5-77.6h18.6l13.6 52.9 13.6-52.9h17l-22.5 77.6v38.5h-17.8zm85.1-45.6v84h-16v-116h22.3l18.3 69.4v-69.4h15.9v116h-18.3zm90 84c-1-3-1.6-4.8-1.6-14.2v-18.3c0-10.7-3.6-14.7-11.6-14.7h-6.2v47.2h-17.8v-116h26.9c18.4 0 26.3 8.8 26.3 26.7v9.1c0 12-3.7 19.7-11.6 23.5 8.9 3.9 11.8 12.6 11.8 24.7v17.9c0 5.7 0.2 9.8 1.9 14.1zm-19.4-99.4v35.6h7c6.6 0 10.7-3 10.7-12.2v-11.5c0-8.3-2.8-11.9-9.1-11.9zm74.7 34.8h24.9v36.8c0 18.5-9 29.2-26.5 29.2-17.5 0-26.5-10.7-26.5-29.2v-60.3c0-18.6 9-29.2 26.5-29.2 17.5 0 26.5 10.6 26.5 29.2v11.2h-16.8v-12.4c0-8.3-3.5-11.4-9.2-11.4-5.7 0-9.2 3.1-9.2 11.4v62.6c0 8.3 3.5 11.3 9.2 11.3 5.7 0 9.2-3 9.2-11.3v-21.3h-8.1z"/>
	<path id="Path 2" class="s1" d="m69.3 38.8c19-19 49.9-19 69 0l13.8-13.8c-26.7-26.7-70-26.7-96.7 0-26.7 26.7-26.7 70 0 96.7l13.9-13.8c-19.1-19.1-19.1-50 0-69.1zm41.4 27.7l-13.8 13.8c19 19 19 50 0 69-19.1 19.1-50 19.1-69.1 0l-13.8 13.8c26.7 26.7 70 26.7 96.7 0 26.7-26.7 26.7-70 0-96.6z"/>
</svg>