<svg width="65" height="60" viewBox="0 0 65 60" fill="none" xmlns="http://www.w3.org/2000/svg">
<path d="M9.93999 3.60781C9.11165 3.60781 8.42945 4.29979 8.42945 5.13999C8.42945 5.98019 9.11165 6.67216 9.93999 6.67216C10.7683 6.67216 11.4505 5.98019 11.4505 5.13999C11.4505 4.29979 10.7683 3.60781 9.93999 3.60781ZM14.3253 3.60781C13.497 3.60781 12.8148 4.29979 12.8148 5.13999C12.8148 5.98019 13.497 6.67216 14.3253 6.67216C15.1536 6.67216 15.8358 5.98019 15.8358 5.13999C15.8358 4.29979 15.1536 3.60781 14.3253 3.60781ZM5.55468 3.60781C4.72634 3.60781 4.04414 4.29979 4.04414 5.13999C4.04414 5.98019 4.72634 6.67216 5.55468 6.67216C6.38302 6.67216 7.06522 5.98019 7.06522 5.13999C7.06522 4.29979 6.38302 3.60781 5.55468 3.60781ZM57.3013 50.7084L61.3943 46.5569L42.635 37.2652L51.7953 56.2932L55.8883 52.1417L63.6357 60L65 58.6161L57.3013 50.7084ZM4.19034 54.4646C2.97219 54.4646 1.99768 53.4761 1.99768 52.2405V10.3789H59.6889V43.1466L61.638 44.135V4.20099C61.638 1.87809 59.7864 0 57.4963 0H4.14168C1.85158 0 0 1.87809 0 4.20099V52.2405C0 54.5634 1.85158 56.4415 4.14168 56.4415H49.554L48.5795 54.4646H4.19034ZM1.99768 4.20099C1.99768 2.96541 2.97219 1.97694 4.19034 1.97694H57.5449C58.7631 1.97694 59.7376 2.96541 59.7376 4.20099V8.40198H2.04645V4.20099H1.99768ZM47.605 37.1664V21.1531H14.0817V43.2455H43.2197L42.2451 41.2686H15.9819V23.1301H45.6072V36.2273L47.605 37.1664Z" fill="#393939"/>
</svg>
