<svg width="40" height="50" viewBox="0 0 40 50" fill="none" xmlns="http://www.w3.org/2000/svg">
<path d="M33.311 28.5076C39.8181 16.9838 36.0374 1.82489 35.8556 1.17054L35.7102 0.588867L35.0922 0.625255C34.9104 0.625255 30.4754 0.98878 24.9862 2.8064C15.7163 5.82366 10.9178 10.4767 8.48223 13.8575C4.11993 19.9647 3.28379 27.6715 3.35649 33.0516C3.4292 37.9956 4.22899 41.8489 4.48346 42.9759L0.920898 47.9561L2.12055 48.7923L5.68311 43.8119C7.10085 43.6665 12.6991 42.9759 18.8063 40.4312C19.7515 45.3388 24.1138 49.083 29.3122 49.083C35.2013 49.083 39.9998 44.2845 39.9998 38.3954C39.9998 33.9604 37.237 30.1071 33.311 28.5076ZM9.68188 14.7299C16.189 5.60547 29.0941 2.95176 33.6018 2.29741L5.68311 41.3763C4.81065 36.905 3.13843 23.8544 9.68188 14.7299ZM6.84637 42.2488L34.7651 3.13354C35.5648 7.35042 37.0553 19.0923 31.8569 28.035C31.0208 27.8169 30.1846 27.7078 29.2758 27.7078C23.3867 27.7078 18.5882 32.5063 18.5882 38.3954C18.5882 38.5772 18.5882 38.7589 18.5882 38.9407C13.8261 41.0128 9.20928 41.8853 6.84637 42.2488ZM29.3122 47.6653C24.2229 47.6653 20.0786 43.5212 20.0786 38.4318C20.0786 33.3425 24.2229 29.1982 29.3122 29.1982C34.4015 29.1982 38.5457 33.3425 38.5457 38.4318C38.5457 43.5212 34.4015 47.6653 29.3122 47.6653Z" fill="#393939"/>
<path d="M32.1114 35.5963L33.1293 34.5784C31.0209 32.47 27.5674 32.47 25.4226 34.5784C24.841 35.16 24.4047 35.8871 24.1503 36.6505H22.8779V38.1046H23.8594C23.8594 38.3227 23.8594 38.5409 23.8594 38.7953H22.8779V40.2494H24.1503C24.4047 41.0128 24.841 41.7035 25.4226 42.3215C26.4405 43.3394 27.8218 43.921 29.2759 43.921C30.73 43.921 32.1114 43.3394 33.1293 42.3215L32.1114 41.3036C30.5483 42.8668 28.0036 42.8668 26.4768 41.3036C26.1496 40.9764 25.9315 40.6492 25.7497 40.2857H29.3123V38.8316H25.3498C25.3135 38.6135 25.3135 38.3954 25.3498 38.141H29.3123V36.6869H25.7497C25.9315 36.3233 26.186 35.9598 26.4768 35.669C28.0399 34.0331 30.5846 34.0331 32.1114 35.5963Z" fill="#393939"/>
</svg>
