<svg width="53" height="41" viewBox="0 0 53 41" fill="none" xmlns="http://www.w3.org/2000/svg">
<path d="M24.0068 12.3595C24.0068 12.2527 24.0068 12.1102 24.0068 12.0033C24.0068 5.37834 18.6284 0 12.0034 0C5.37843 0 0 5.37834 0 12.0033C0 17.2392 3.34815 21.6915 8.04976 23.33V40.676H43.1694V37.3992H46.4463V34.1223H49.7231V30.8455H53V12.3595H24.0068ZM46.4818 13.7843C46.6599 16.5981 48.8327 18.8421 51.5753 19.1983V24.363C48.9395 24.6835 46.8381 26.785 46.5175 29.4207H24.3985C24.0779 26.785 21.9765 24.6835 19.3407 24.363V21.5135C21.7628 19.6613 23.4369 16.9187 23.8999 13.7843H46.4818ZM19.3407 25.7877C21.1929 26.1082 22.6532 27.5686 22.9738 29.4207H19.3407V25.7877ZM1.46038 12.0033C1.46038 6.16194 6.1976 1.42473 12.039 1.42473C17.8804 1.42473 22.6176 6.16194 22.6176 12.0033C22.6176 17.8447 17.8804 22.582 12.039 22.582C6.1976 22.582 1.46038 17.8091 1.46038 12.0033ZM41.7447 39.2513H9.47449V23.7218C10.08 23.8643 10.6855 23.9355 11.3266 23.9711V37.3992H41.7447V39.2513ZM45.0215 35.9745H12.7514V23.9711C13.3925 23.9355 13.998 23.8287 14.6035 23.7218V34.1223H45.0215V35.9745ZM48.2984 32.6976H16.0282V23.2944C16.6693 23.0807 17.2749 22.7957 17.8804 22.4395V30.8098H48.2984V32.6976ZM51.5753 29.4207H47.9422C48.2628 27.5686 49.7231 26.1082 51.5753 25.7877V29.4207ZM51.5753 17.7379C49.6163 17.4174 48.0847 15.7789 47.9066 13.7843H51.5753V17.7379Z" fill="#393939"/>
<path d="M35.4758 27.9243C38.9664 27.9243 41.8159 25.0748 41.8159 21.5842C41.8159 18.0936 38.9664 15.2441 35.4758 15.2441C31.9852 15.2441 29.1357 18.0936 29.1357 21.5842C29.1357 25.0748 31.9496 27.9243 35.4758 27.9243ZM35.4758 16.6689C38.1828 16.6689 40.3911 18.8772 40.3911 21.5842C40.3911 24.2912 38.1828 26.4995 35.4758 26.4995C32.7688 26.4995 30.5605 24.2912 30.5605 21.5842C30.5605 18.8772 32.7332 16.6689 35.4758 16.6689Z" fill="#393939"/>
<path d="M11.6475 12.0744L15.0668 4.30957H10.3296L9.01172 13.4991H11.3269L9.7953 19.661H10.3652L14.1764 12.0744H11.6475Z" fill="#393939"/>
</svg>
