<svg width="33" height="43" viewBox="0 0 33 43" fill="none" xmlns="http://www.w3.org/2000/svg">
<path d="M21.6804 14.8232H6.24854V16.0504H21.6804V14.8232Z" fill="#393939"/>
<path d="M21.6804 19.2412H6.24854V20.4684H21.6804V19.2412Z" fill="#393939"/>
<path d="M21.6804 23.6289H6.24854V24.8561H21.6804V23.6289Z" fill="#393939"/>
<path d="M21.6804 28.0469H6.24854V29.2741H21.6804V28.0469Z" fill="#393939"/>
<path d="M13.9798 32.4639H6.24854V33.6911H13.9798V32.4639Z" fill="#393939"/>
<path d="M33 6.50944C33 3.22672 30.3309 0.557617 27.0482 0.557617C23.9802 0.557617 21.4338 2.88924 21.127 5.89585H0.326172V42.6194H27.6618V12.4306C30.6377 12.1238 33 9.57741 33 6.50944ZM1.52265 41.3922V7.12304H21.0963C21.3724 9.91489 23.612 12.1545 26.4039 12.4306V41.3922H1.52265ZM27.0175 11.2342C24.4097 11.2342 22.2928 9.11722 22.2928 6.50944C22.2928 3.90167 24.4097 1.7848 27.0175 1.7848C29.6253 1.7848 31.7421 3.90167 31.7421 6.50944C31.7728 9.11722 29.6253 11.2342 27.0175 11.2342Z" fill="#393939"/>
<path d="M26.8023 7.46068L25.4217 5.71195L24.4399 6.47894L26.8636 9.54691L30.3611 4.39271L29.3487 3.71777L26.8023 7.46068Z" fill="#393939"/>
</svg>
