<svg width="68" height="46" viewBox="0 0 68 46" fill="none" xmlns="http://www.w3.org/2000/svg">
<path d="M67.08 22.2588L61.0217 0.208984H6.44293L0.384766 22.2588H6.17004V45.6185H61.2401V22.2588H67.08ZM3.33197 20.0756L8.18956 2.39214H59.439L64.2964 20.0756H61.3492H39.5723V17.0193C39.5723 13.8537 37.0071 11.2339 33.7869 11.2339C30.5668 11.2339 28.0015 13.7991 28.0015 17.0193V20.0756H6.22467H3.33197ZM37.3346 20.0756H30.1847V17.0193C30.1847 15.0544 31.7675 13.417 33.7869 13.417C35.7518 13.417 37.3892 14.9999 37.3892 17.0193V20.0756H37.3346ZM37.3346 43.4353H30.1847V32.0284C30.1847 30.0636 31.7675 28.4262 33.7869 28.4262C35.7518 28.4262 37.3892 30.009 37.3892 32.0284V43.4353H37.3346ZM59.1114 43.4353H39.5177V32.0284C39.5177 28.8629 36.9525 26.243 33.7323 26.243C30.5122 26.243 27.947 28.8083 27.947 32.0284V43.4353H8.35319V22.2588H59.0569V43.4353H59.1114Z" fill="#393939"/>
</svg>
