<svg width="67" height="73" viewBox="0 0 67 73" fill="none" xmlns="http://www.w3.org/2000/svg">
<path d="M62.9861 43.3305L57.0916 0.922852H49.8326L43.938 43.3305H40.8817V29.4129L21.8336 41.2566V29.3038L0.384277 43.8218V72.9668H66.3699V43.3305H62.9861ZM51.7428 3.16063H55.1813L60.7483 43.3852H46.1758L51.7428 3.16063ZM2.5128 70.8383V45.0225L19.596 33.4519V45.1863L38.6439 33.3427V45.5137H43.6106H63.259H64.0777V70.8383H2.5128Z" fill="#393939"/>
<path d="M16.9223 52.9912H9.33594V55.1744H16.9223V52.9912Z" fill="#393939"/>
<path d="M30.4024 52.9912H22.8159V55.1744H30.4024V52.9912Z" fill="#393939"/>
<path d="M43.8834 52.9912H36.2969V55.1744H43.8834V52.9912Z" fill="#393939"/>
<path d="M57.3652 52.9912H49.7788V55.1744H57.3652V52.9912Z" fill="#393939"/>
</svg>
