<svg width="19" height="21" viewBox="0 0 19 21" fill="none" xmlns="http://www.w3.org/2000/svg">
<g clip-path="url(#clip0)">
<path d="M17.2515 3.07626H1.74848C0.784381 3.07626 0 3.91734 0 4.95248C0 5.98632 0.784381 6.82743 1.74848 6.82743H17.2515C18.2156 6.82743 19 5.98632 19 4.95248C19 3.91734 18.2156 3.07626 17.2515 3.07626Z" fill="#393939"/>
<path d="M17.2515 8.83038H1.74848C0.784381 8.83038 0 9.67146 0 10.7066C0 11.7404 0.784381 12.5815 1.74848 12.5815H17.2515C18.2156 12.5815 19 11.7404 19 10.7066C19 9.67146 18.2156 8.83038 17.2515 8.83038Z" fill="#393939"/>
<path d="M17.2515 14.5845H1.74848C0.784381 14.5845 0 15.4256 0 16.4607C0 17.4946 0.784381 18.3357 1.74848 18.3357H17.2515C18.2156 18.3357 19 17.4946 19 16.4607C19 15.4256 18.2156 14.5845 17.2515 14.5845Z" fill="#393939"/>
</g>
<defs>
<clipPath id="clip0">
<rect width="19" height="20.3742" fill="white" transform="translate(0 0.51886)"/>
</clipPath>
</defs>
</svg>
