<svg width="19" height="19" viewBox="0 0 19 19" fill="none" xmlns="http://www.w3.org/2000/svg">
<path d="M18.574 14.9941L15.6398 12.0595C15.0553 11.4774 14.0875 11.4951 13.4827 12.1001L12.0044 13.5781C11.911 13.5266 11.8143 13.4728 11.7127 13.4158C10.7792 12.8986 9.50147 12.1896 8.15697 10.8441C6.80848 9.49579 6.09887 8.21614 5.58003 7.28202C5.52528 7.18305 5.47283 7.08764 5.42103 6.99703L6.41317 6.00635L6.90095 5.51797C7.50669 4.91207 7.52339 3.94449 6.94031 3.3607L4.00606 0.42579C3.42297 -0.157184 2.45468 -0.139498 1.84894 0.466402L1.02197 1.29812L1.04457 1.32056C0.767274 1.67438 0.535558 2.08246 0.363123 2.52253C0.204169 2.94142 0.105205 3.34115 0.059954 3.7417C-0.327495 6.95374 1.14031 9.8893 5.12375 13.8728C10.6301 19.3787 15.0675 18.9628 15.2589 18.9425C15.6758 18.8927 16.0754 18.793 16.4814 18.6353C16.9177 18.4649 17.3255 18.2335 17.6791 17.9568L17.6972 17.9729L18.5349 17.1525C19.1394 16.5467 19.1568 15.5788 18.574 14.9941Z" fill="#393939"/>
</svg>
