<svg width="55" height="55" viewBox="0 0 55 55" fill="none" xmlns="http://www.w3.org/2000/svg">
<path d="M46.9455 8.05449C41.7512 2.86043 34.8454 0 27.5 0C20.1544 0 13.2486 2.86043 8.05449 8.05449C2.86054 13.2484 0 20.1544 0 27.5C0 34.8455 2.86054 41.7513 8.05449 46.9454C13.2486 52.1395 20.1544 55 27.5 55C34.8454 55 41.7512 52.1395 46.9455 46.9454C52.1395 41.7513 55 34.8455 55 27.5C55 20.1544 52.1395 13.2484 46.9455 8.05449ZM42.1129 28.8954L21.4019 40.8524C21.1527 40.9964 20.8744 41.0683 20.5962 41.0683C20.318 41.0683 20.0398 40.9964 19.7905 40.8524C19.292 40.5645 18.9849 40.0327 18.9849 39.457V15.5427C18.9849 14.967 19.292 14.435 19.7905 14.1472C20.2891 13.8594 20.9033 13.8594 21.4019 14.1472L42.1129 26.1046C42.6115 26.3925 42.9186 26.9243 42.9186 27.5C42.9186 28.0757 42.6115 28.6076 42.1129 28.8954Z" fill="#FFD100"/>
</svg>
