<svg width="168" height="168" viewBox="0 0 168 168" fill="none" xmlns="http://www.w3.org/2000/svg">
<circle cx="84" cy="84" r="84" fill="#FFD100"/>
<path d="M107.858 62.4346L106.517 64.6273C110.537 69.6829 112.974 76.0784 112.974 83.0222C112.974 99.2852 99.7564 112.564 83.4325 112.564C67.1086 112.564 53.8911 99.3461 53.8911 83.0222C53.8911 66.6982 67.1086 53.4807 83.4325 53.4807C89.5844 53.4807 95.3708 55.3689 100.122 58.6581L101.645 56.709C96.4672 53.1153 90.1936 51.0443 83.4935 51.0443C65.8904 51.0443 51.5156 65.3582 51.5156 83.0222C51.5156 100.686 65.8295 115 83.4935 115C101.157 115 115.471 100.686 115.471 83.0222C115.41 75.2257 112.548 68.0384 107.858 62.4346Z" fill="#393939"/>
<path d="M70.5196 70.4139L66.6212 73.8249L81.3006 95.9962H85.0162L112.365 50.9227L110.05 49.3999L83.1279 83.8751L70.5196 70.4139Z" fill="#393939"/>
</svg>
