<svg width="38" height="50" viewBox="0 0 38 50" fill="none" xmlns="http://www.w3.org/2000/svg">
<path d="M18.8988 3.09451C18.2922 3.09451 17.8204 3.60679 17.8204 4.18729C17.8204 4.76779 18.3259 5.27998 18.8988 5.27998C19.5054 5.27998 19.9772 4.76779 19.9772 4.18729C19.9772 3.60679 19.5054 3.09451 18.8988 3.09451ZM26.9869 26.2806C30.2558 26.2806 32.9182 23.5829 32.9182 20.2706C32.9182 16.9583 30.2558 14.2607 26.9869 14.2607C23.7179 14.2607 21.0557 16.9583 21.0557 20.2706C21.0557 23.5829 23.7179 26.2806 26.9869 26.2806ZM26.9869 15.6266C29.5144 15.6266 31.5702 17.7096 31.5702 20.2706C31.5702 22.8316 29.5144 24.9147 26.9869 24.9147C24.4593 24.9147 22.4037 22.8316 22.4037 20.2706C22.4037 17.7096 24.4593 15.6266 26.9869 15.6266ZM29.6493 32.4271L28.4697 31.7782L26.5151 35.3979L25.5041 33.6222L24.3582 34.3052L26.5825 38.1638L29.6493 32.4271ZM29.6493 17.9486L28.4697 17.2998L26.5151 20.9194L25.5041 19.1437L24.3582 19.8267L26.5825 23.6853L29.6493 17.9486ZM28.5708 5.99703C26.3803 2.78718 22.8417 0.909119 18.9999 0.909119C15.158 0.909119 11.6195 2.82133 9.429 5.99703H0.363525V49.0909H37.6363V5.99703H28.5708ZM18.9999 2.27501C22.0666 2.27501 24.9311 3.64087 26.8858 5.99703H11.114C13.0349 3.64087 15.8994 2.27501 18.9999 2.27501ZM36.2882 47.6909H1.71154V7.32882H36.2882V47.6909ZM16.6746 32.2904H5.72195V33.6563H16.6746V32.2904ZM26.9869 40.7931C30.2558 40.7931 32.9182 38.0955 32.9182 34.7832C32.9182 31.4709 30.2558 28.7733 26.9869 28.7733C23.7179 28.7733 21.0557 31.4709 21.0557 34.7832C21.0557 38.0955 23.7179 40.7931 26.9869 40.7931ZM26.9869 30.1392C29.5144 30.1392 31.5702 32.2221 31.5702 34.7832C31.5702 37.3442 29.5144 39.4272 26.9869 39.4272C24.4593 39.4272 22.4037 37.3442 22.4037 34.7832C22.4037 32.2221 24.4593 30.1392 26.9869 30.1392ZM16.6746 35.9101H5.72195V37.276H16.6746V35.9101ZM16.6746 17.812H5.72195V19.1779H16.6746V17.812ZM16.6746 21.3975H5.72195V22.7634H16.6746V21.3975Z" fill="#393939"/>
</svg>
