<svg width="67" height="40" viewBox="0 0 67 40" fill="none" xmlns="http://www.w3.org/2000/svg">
<path d="M26.2279 29.9285C28.1646 31.864 30.711 32.8317 33.2933 32.8317C35.8398 32.8317 38.3863 31.864 40.3589 29.9285L39.3547 28.9249C36.0192 32.2582 30.6035 32.2582 27.268 28.9249L26.2279 29.9285ZM22.2109 33.9787L21.2067 34.9822C24.5422 38.3155 28.9178 40.0001 33.3292 40.0001C37.7048 40.0001 42.1163 38.3155 45.4518 34.9822L44.4476 33.9787C38.2787 40.0719 28.3081 40.0719 22.2109 33.9787ZM35.9833 25.5915C34.4769 27.0969 32.074 27.0969 30.5676 25.5915L29.5634 26.5951C30.6035 27.6346 31.9305 28.1364 33.2933 28.1364C34.6562 28.1364 35.9833 27.6346 37.0234 26.5951L35.9833 25.5915ZM10.8774 5.23305H9.37107V6.59508H13.8184V5.23305H12.312V2.65242H21.7447C22.1392 2.65242 22.462 2.32984 22.462 1.93557C22.462 1.54131 22.1392 1.21873 21.7447 1.21873H12.312V0.752759C12.312 0.358493 11.9892 0.0359119 11.5947 0.0359119C11.2002 0.0359119 10.8774 0.358493 10.8774 0.752759V1.21873H1.44485C1.05033 1.21873 0.727539 1.54131 0.727539 1.93557C0.727539 2.32984 1.05033 2.65242 1.44485 2.65242H10.8774V5.23305ZM65.4648 1.18294H56.0321V0.716969C56.0321 0.322703 55.7093 0.00012207 55.3148 0.00012207C54.9203 0.00012207 54.5975 0.322703 54.5975 0.716969V1.18294H45.1649C44.7703 1.18294 44.4476 1.50552 44.4476 1.89978C44.4476 2.29405 44.7703 2.61663 45.1649 2.61663H54.5975V5.19726H53.0912V6.55929H57.5385V5.19726H56.0321V2.61663H65.4648C65.8593 2.61663 66.1821 2.29405 66.1821 1.89978C66.1821 1.50552 65.8593 1.18294 65.4648 1.18294ZM42.7619 7.52701L38.4938 9.06825C38.0276 9.24746 37.5613 9.31913 37.0592 9.31913H29.5275C29.0254 9.31913 28.5591 9.24746 28.0928 9.06825L23.8249 7.52701C23.1793 7.27612 22.4978 7.16859 21.8164 7.16859H9.08413V11.8639L18.5168 12.975C19.1624 13.0467 19.808 13.2618 20.346 13.6202L24.5781 16.2725C25.3671 16.7743 26.2996 17.0611 27.2321 17.0969C27.5908 20.1435 30.1731 22.5091 33.3292 22.5091C36.4854 22.5091 39.0677 20.1435 39.4264 17.0969C40.3589 17.0611 41.2914 16.7743 42.0804 16.2725L46.3125 13.6202C46.8505 13.2618 47.4961 13.0467 48.1417 12.975L57.5744 11.8639V7.16859H44.8421C44.0531 7.16859 43.4075 7.31196 42.7619 7.52701ZM33.2933 21.1112C30.9621 21.1112 28.9895 19.3908 28.6667 17.1328H37.9559C37.5972 19.3908 35.6246 21.1112 33.2933 21.1112ZM56.0679 10.6094L47.9265 11.5772C47.0657 11.6847 46.2408 11.9714 45.5235 12.4374L41.2914 15.0897C40.6458 15.484 39.8927 15.7349 39.1036 15.7349C37.8483 15.7349 28.7743 15.7349 27.5191 15.7349C26.73 15.7349 25.9768 15.5198 25.3312 15.0897L21.0991 12.4374C20.3818 11.9714 19.521 11.6847 18.6961 11.5772L10.5547 10.6094V8.60228H21.8523C22.3544 8.60228 22.8924 8.67395 23.3586 8.85316L27.6267 10.3944C28.2364 10.6095 28.8819 10.7169 29.5275 10.7169H37.0592C37.7048 10.7169 38.3504 10.6095 38.9601 10.3944L43.2282 8.85316C43.7303 8.67395 44.2324 8.60228 44.7345 8.60228H56.0321V10.6094H56.0679ZM33.2933 20.5736C33.9031 20.5736 34.4052 20.0718 34.4052 19.4625C34.4052 18.8532 33.9031 18.3514 33.2933 18.3514C32.6836 18.3514 32.1816 18.8532 32.1816 19.4625C32.1816 20.0718 32.6836 20.5736 33.2933 20.5736Z" fill="#393939"/>
</svg>
