<svg width="30" height="20" viewBox="0 0 30 20" fill="none" xmlns="http://www.w3.org/2000/svg">
<path d="M8.01134 10.2207C10.4147 10.2207 12.3604 7.94426 12.3604 5.11035C12.3604 2.27643 10.4147 0 8.01134 0C5.60794 0 3.66233 2.27643 3.66233 5.11035C3.66233 7.92104 5.60794 10.2207 8.01134 10.2207ZM12.1315 11.9396H3.86831C1.71669 11.9396 0 13.705 0 15.8653V20H15.9998V15.8885C16.0227 13.705 14.2831 11.9396 12.1315 11.9396Z" fill="#393939"/>
<path fill-rule="evenodd" clip-rule="evenodd" d="M20.3716 9.86066L19.4517 10.7806L24.3604 15.6894L29.2691 10.7806L28.3492 9.86066L24.3604 13.8494L20.3716 9.86066Z" fill="#393939"/>
</svg>
