<svg width="22" height="26" viewBox="0 0 22 26" fill="none" xmlns="http://www.w3.org/2000/svg">
<path d="M11.0925 13.6446C14.3423 13.6446 16.964 10.6456 16.964 6.96516C16.964 3.28468 14.3423 0.285767 11.0925 0.285767C7.84276 0.285767 5.22109 3.28468 5.22109 6.96516C5.22109 10.6456 7.87007 13.6446 11.0925 13.6446ZM11.0925 1.64891C13.5777 1.64891 15.5985 4.02077 15.5985 6.96516C15.5985 9.90954 13.5777 12.2814 11.0925 12.2814C8.60742 12.2814 6.58654 9.90954 6.58654 6.96516C6.58654 4.02077 8.60742 1.64891 11.0925 1.64891ZM16.0354 15.144H6.17691C3.25484 15.144 0.878906 17.5158 0.878906 20.433V25.2858H2.24436V20.433C2.24436 18.2519 4.01949 16.5071 6.17691 16.5071H16.0354C18.2202 16.5071 19.968 18.2792 19.968 20.433V25.2858H21.3335V20.433C21.3335 17.5158 18.9575 15.144 16.0354 15.144Z" fill="#393939"/>
</svg>
