<svg width="34" height="42" viewBox="0 0 34 42" fill="none" xmlns="http://www.w3.org/2000/svg">
<path d="M28.1636 21.2073H22.0377V27.3055H28.1636V21.2073ZM26.8504 25.9983H23.3509V22.5145H26.8504V25.9983ZM19.6315 21.2073H13.5056V27.3055H19.6315V21.2073ZM18.3183 25.9983H14.8188V22.5145H18.3183V25.9983ZM11.0994 29.5735H4.97354V35.6718H11.0994V29.5735ZM9.78624 34.3646H6.28668V30.8808H9.78624V34.3646ZM28.1636 29.5735H22.0377V35.6718H28.1636V29.5735ZM26.8504 34.3646H23.3509V30.8808H26.8504V34.3646ZM27.0638 6.3178V3.02026C27.0638 1.86662 26.1217 0.928711 24.9628 0.928711C23.804 0.928711 22.8617 1.86662 22.8617 3.02026V6.3178H10.2721V3.02026C10.2721 1.86662 9.32987 0.928711 8.17102 0.928711C7.01218 0.928711 6.07004 1.86662 6.07004 3.02026V6.3178H0.131348V41.6263H33.0025V6.3178H27.0638ZM24.1782 3.02353C24.1782 2.59214 24.5328 2.23922 24.9661 2.23922C25.3994 2.23922 25.7539 2.59214 25.7539 3.02353V10.8964C25.7539 11.3278 25.3994 11.6807 24.9661 11.6807C24.5328 11.6807 24.1782 11.3278 24.1782 10.8964V3.02353ZM7.38646 3.02353C7.38646 2.59214 7.74097 2.23922 8.17431 2.23922C8.60765 2.23922 8.96224 2.59214 8.96224 3.02353V10.8964C8.96224 11.3278 8.60765 11.6807 8.17431 11.6807C7.74097 11.6807 7.38646 11.3278 7.38646 10.8964V3.02353ZM31.6926 40.3191H1.44777V17.2757H31.6926V40.3191ZM31.6926 15.9685H1.44777V7.62503H6.07332V10.8931C6.07332 12.0468 7.01547 12.9848 8.17431 12.9848C9.33315 12.9848 10.2754 12.0468 10.2754 10.8931V7.62503H22.865V10.8931C22.865 12.0468 23.8073 12.9848 24.9661 12.9848C26.1249 12.9848 27.0671 12.0468 27.0671 10.8931V7.62503H31.6926V15.9685ZM19.6315 29.5735H13.5056V35.6718H19.6315V29.5735ZM18.3183 34.3646H14.8188V30.8808H18.3183V34.3646ZM11.0994 21.2073H4.97354V27.3055H11.0994V21.2073ZM9.78624 25.9983H6.28668V22.5145H9.78624V25.9983Z" fill="#393939"/>
</svg>
