<svg width="36" height="44" viewBox="0 0 36 44" fill="none" xmlns="http://www.w3.org/2000/svg">
<path d="M6.63262 27.6887H23.9046V26.3991H6.63262V27.6887ZM6.63262 23.694H23.9046V22.4043H6.63262V23.694ZM6.63262 31.6834H23.9046V30.3937H6.63262V31.6834ZM6.63262 35.6782H11.6532V34.3885H6.63262V35.6782ZM29.1881 0.399536C25.6993 0.399536 22.8207 3.05308 22.4929 6.43843H0.696777V43.4451H29.8372V13.7346C33.2449 13.409 35.9158 10.5524 35.9158 7.08326C35.9158 3.39806 32.8976 0.399536 29.1881 0.399536ZM28.5423 42.1554H1.99819V7.72809H22.4962C22.8045 10.9006 25.3488 13.4283 28.5423 13.7346V42.1554ZM29.1881 12.4772C26.1959 12.4772 23.7586 10.0591 23.7586 7.08326C23.7586 4.10737 26.1926 1.68919 29.1881 1.68919C32.1836 1.68919 34.6177 4.10737 34.6177 7.08326C34.6177 10.0591 32.1836 12.4772 29.1881 12.4772ZM31.8137 3.56244L29.1881 6.1708L26.5627 3.56244L25.6474 4.4749L28.273 7.08326L25.6474 9.69154L26.5627 10.604L29.1881 7.99564L31.8137 10.604L32.7322 9.69154L30.1066 7.08326L32.7322 4.4749L31.8137 3.56244ZM6.63262 19.6993H23.9046V18.4096H6.63262V19.6993ZM6.63262 15.7046H23.9046V14.415H6.63262V15.7046Z" fill="#393939"/>
</svg>
