<svg width="42" height="26" viewBox="0 0 42 26" fill="none" xmlns="http://www.w3.org/2000/svg">
<path d="M16.4376 14.3591C19.6086 14.3591 22.1861 11.7627 22.1861 8.56844C22.1861 5.37415 19.6086 2.77774 16.4376 2.77774C13.2666 2.77774 10.6891 5.37415 10.6891 8.56844C10.6891 11.7627 13.2666 14.3591 16.4376 14.3591ZM16.4376 4.07756C18.8957 4.07756 20.8958 6.09229 20.8958 8.56844C20.8958 11.0446 18.8957 13.0593 16.4376 13.0593C13.9795 13.0593 11.9794 11.0446 11.9794 8.56844C11.9794 6.09229 13.9795 4.07756 16.4376 4.07756ZM38.2703 9.10792V6.11828H35.3025V3.12872H32.3347V0.13916H0.540527V16.9977H3.50839V19.9874H6.47617V22.9769H9.44395V25.9665H41.2381V9.10792H38.2703ZM31.0443 1.44223V5.05242C29.2637 4.75996 27.8798 3.27497 27.7249 1.44223H31.0443ZM26.4346 1.43572C26.5959 3.98661 28.5508 6.05329 31.0443 6.36199V11.0803C28.654 11.376 26.754 13.29 26.4604 15.6979H6.41482C6.12127 13.29 4.22124 11.376 1.83087 11.0803V6.36199C4.32447 6.05329 6.27936 3.98986 6.44065 1.43572H26.4346ZM31.0443 12.3964V15.7012H27.7637C28.0411 14.0082 29.3669 12.6726 31.0443 12.3964ZM1.83087 1.43898H5.1503C4.99546 3.27496 3.61155 4.75679 1.83087 5.04925V1.43898ZM1.83087 15.7012V12.3964C3.50833 12.6726 4.83421 14.0082 5.11164 15.7012H1.83087ZM4.79874 18.6875V16.9977H32.3347V4.42853H34.0121V18.6875H4.79874ZM7.76652 21.6771V19.9874H35.3025V7.41809H36.9799V21.6771H7.76652ZM39.9478 24.6667H10.7343V22.9769H38.2703V10.4077H39.9478V24.6667Z" fill="#393939"/>
</svg>
