<svg width="44" height="40" viewBox="0 0 44 40" fill="none" xmlns="http://www.w3.org/2000/svg">
<path d="M22.8434 9.93281C25.4491 9.93281 27.5711 7.85013 27.5711 5.29284C27.5711 2.73555 25.4491 0.652954 22.8434 0.652954C20.2378 0.652954 18.1158 2.73555 18.1158 5.29284C18.1158 7.85013 20.2378 9.93281 22.8434 9.93281ZM22.8434 1.94451C24.7253 1.94451 26.2551 3.44591 26.2551 5.29284C26.2551 7.13977 24.7253 8.64125 22.8434 8.64125C20.9616 8.64125 19.4318 7.13977 19.4318 5.29284C19.4318 3.44591 20.9616 1.94451 22.8434 1.94451ZM36.5855 20.1716C35.9012 20.1716 35.3485 20.7141 35.3485 21.3857C35.3485 22.0573 35.9012 22.5998 36.5855 22.5998C37.2698 22.5998 37.8225 22.0573 37.8225 21.3857C37.8225 20.7141 37.2698 20.1716 36.5855 20.1716ZM43.0305 21.5084C42.162 21.4665 41.2046 21.2469 41.0006 21.0499C40.3196 18.9091 38.8062 16.9492 36.6184 15.3638V9.48726L35.865 9.59699C35.7235 9.61637 32.506 10.1071 30.4663 12.4901C28.4166 11.925 26.2518 11.6409 24.0278 11.6409C15.2996 11.6409 8.05519 16.1161 6.83134 21.9249C6.45629 21.8926 6.01872 21.8345 5.59432 21.728C5.97266 21.3179 6.20958 20.8077 6.20958 20.1684C6.20958 18.7283 5.25879 18.0826 4.31786 18.0826C3.46906 18.0826 2.47547 18.6282 2.47547 20.1684C2.47547 20.7432 2.65645 21.2695 3.00518 21.7054C2.12677 21.954 1.16606 22.0541 0.652832 22.0703L0.689057 23.3618C0.820654 23.3586 2.71239 23.294 4.2455 22.6289C5.05153 23.0002 5.97595 23.1487 6.66355 23.2101C6.65697 23.3618 6.64708 23.5136 6.64708 23.6653C6.64708 30.6042 11.332 38.3601 11.5294 38.6894L11.7202 39.0026H15.5036L16.1945 34.4047C17.7276 34.9374 19.3693 35.3087 21.057 35.5121C22.0473 35.6381 22.7283 35.6607 22.827 35.6639V35.6574C23.2251 35.6768 23.6265 35.6898 24.0278 35.6898C25.5412 35.6898 26.9131 35.5638 28.6206 35.2571L29.17 38.3923L29.1733 38.4311H29.1766L29.2753 39.0026H33.9306L34.401 33.7976C40.5992 31.4695 43.4944 26.4906 43.6161 26.2743L43.6984 26.1257V21.4438L43.0305 21.5084ZM4.28493 21.15C4.24545 21.1177 4.20594 21.0822 4.16646 21.0467C3.90985 20.8013 3.79144 20.5236 3.79144 20.1684C3.79144 19.3741 4.15995 19.3741 4.31786 19.3741C4.45933 19.3741 4.8936 19.3741 4.8936 20.1684C4.8936 20.5688 4.65341 20.8917 4.28493 21.15ZM33.5654 32.7256L33.1673 32.8645L32.7297 37.7111H30.4136L29.4957 30.0004L28.1896 30.149L28.6403 33.9365C26.8967 34.2594 25.5313 34.3982 24.0278 34.3982C23.3205 34.3982 22.6198 34.3659 21.9223 34.3045C21.9026 34.3013 21.8828 34.3013 21.863 34.2981C21.7183 34.2852 21.5736 34.2658 21.4288 34.2497C19.037 33.9591 14.339 32.9872 12.8651 29.8067L11.6675 30.3394C12.3584 31.828 13.5823 32.9 14.9739 33.6717L14.3686 37.7078H12.4735C11.605 36.1935 7.95976 29.4903 7.95976 23.6621C7.95976 17.7435 15.168 12.9292 24.0245 12.9292C26.2781 12.9292 28.4627 13.2392 30.5156 13.8463L30.963 13.9786L31.2393 13.6105C32.4073 12.0445 34.2661 11.3341 35.2992 11.0435V16.0258L35.5788 16.2195C37.691 17.6822 39.1319 19.4968 39.7504 21.4664C39.9906 22.2252 40.9644 22.4965 41.675 22.6353C41.9119 22.6805 42.162 22.716 42.3857 22.7451V25.7803H42.389C41.8725 26.5972 38.9905 30.8303 33.5654 32.7256Z" fill="#393939"/>
</svg>
