<svg width="50" height="34" viewBox="0 0 50 34" fill="none" xmlns="http://www.w3.org/2000/svg">
<path d="M43.5886 6.22488V2.55615H42.28V6.22488H38.5372V7.50767H42.28V11.1764H43.5886V7.50767H47.3313V6.22488H43.5886ZM49.7164 6.86628C49.7164 5.08962 49.0097 3.42203 47.7305 2.16491C46.448 0.907779 44.7468 0.218262 42.9343 0.218262C41.1218 0.218262 39.4205 0.910986 38.1381 2.16491C36.8556 3.42203 36.1522 5.08962 36.1522 6.86628H11.4612L0.409668 33.872H37.2449L45.7806 13.014L45.6399 12.9595C46.4087 12.6324 47.1154 12.1641 47.7272 11.5676C49.0129 10.3105 49.7164 8.64293 49.7164 6.86628ZM36.2798 8.14906C36.5153 9.33884 37.0879 10.4388 37.9352 11.3464L37.1369 13.2962H31.4279L33.5349 8.14906H36.2798ZM20.2685 19.7262H14.5594L16.6664 14.579H22.3754L20.2685 19.7262ZM23.7855 14.579H29.4944L27.3875 19.7262H21.6785L23.7855 14.579ZM19.745 21.009L17.6381 26.1561H11.9291L14.036 21.009H19.745ZM21.1551 21.009H26.864L24.7571 26.1561H19.0482L21.1551 21.009ZM28.2741 21.0122H33.9831L31.8762 26.1593H26.1672L28.2741 21.0122ZM28.7976 19.7262L30.9045 14.579H36.6135L34.5066 19.7262H28.7976ZM32.1281 8.14906L30.0211 13.2962H24.3122L26.4191 8.14906H32.1281ZM25.0091 8.14906L22.9021 13.2962H17.1931L19.3 8.14906H25.0091ZM12.3478 8.14906H17.8867L15.7798 13.2962H10.2409L12.3478 8.14906ZM9.7175 14.579H15.2563L13.1494 19.7262H7.61051L9.7175 14.579ZM7.0871 21.009H12.6259L10.519 26.1561H4.9802L7.0871 21.009ZM2.34652 32.5893L4.45343 27.4421H9.99227L7.88536 32.5893H2.34652ZM9.29872 32.5893L11.4056 27.4421H17.1146L15.0077 32.5893H9.29872ZM16.4178 32.5893L18.5247 27.4421H24.2337L22.1267 32.5893H16.4178ZM23.5368 32.5893L25.6437 27.4421H31.3527L29.2458 32.5893H23.5368ZM36.3649 32.5893H30.6559L32.7628 27.4421H38.4718L36.3649 32.5893ZM38.9953 26.1561H33.2862L35.3932 21.009H41.1022L38.9953 26.1561ZM41.6257 19.7262H35.9166L38.0236 14.579H43.7326L41.6257 19.7262ZM38.5503 13.2962L38.9756 12.254C39.6594 12.7382 40.4249 13.091 41.2395 13.2962H38.5503ZM42.9343 12.2315C41.4719 12.2315 40.0978 11.6735 39.0639 10.6601C38.0301 9.64673 37.4608 8.29979 37.4608 6.86628C37.4608 5.43277 38.0301 4.08582 39.0639 3.07242C40.0978 2.05902 41.4719 1.50104 42.9343 1.50104C44.3967 1.50104 45.7707 2.05902 46.8046 3.07242C47.8384 4.08582 48.4077 5.43277 48.4077 6.86628C48.4077 8.29979 47.8384 9.64673 46.8046 10.6601C45.7707 11.6735 44.3967 12.2315 42.9343 12.2315Z" fill="#393939"/>
</svg>
