<svg width="52" height="63" viewBox="0 0 52 63" fill="none" xmlns="http://www.w3.org/2000/svg">
<path d="M50.7058 34.6079C49.7212 33.3772 47.9982 33.0326 46.6691 33.8695L38.054 39.0878C37.7094 38.5463 37.2171 38.1032 36.5279 37.8571L26.6329 34.2142C25.1068 33.6727 23.5315 33.3772 21.9562 33.3772H17.5256L0 39.9247V62.2254L18.0178 48.6874H37.2171C38.2509 48.6874 39.2355 48.3428 40.0232 47.6536L50.2628 38.8909C51.5428 37.8079 51.7396 35.9371 50.7058 34.6079ZM1.96916 41.3031L8.22121 38.9401V53.5611L1.96916 58.2871V41.3031ZM48.9828 37.3648L38.7432 46.1276C38.3001 46.4722 37.7586 46.669 37.2171 46.669H17.3778L10.1904 52.0842V38.2017L17.8701 35.3464H21.9069C23.2853 35.3464 24.6145 35.5925 25.8945 36.0848L35.7894 39.7278C36.2817 39.9247 36.5279 40.417 36.4294 40.9585C36.2817 41.4508 35.8386 41.7954 35.2971 41.697L25.6975 40.2692L22.5962 41.4508L23.2853 43.2723L25.8945 42.2877L35.0018 43.6168C36.5279 43.863 37.9556 42.8784 38.3494 41.4015C38.3494 41.3031 38.3986 41.2047 38.3986 41.1062L47.6536 35.4941C48.1459 35.1987 48.7859 35.2972 49.1305 35.7402C49.5243 36.331 49.4751 36.971 48.9828 37.3648Z" fill="#393939"/>
<path d="M5.02149 51.5918C4.43074 51.5918 3.93848 52.0842 3.93848 52.6749C3.93848 53.2657 4.43074 53.7579 5.02149 53.7579C5.61224 53.7579 6.10462 53.2657 6.10462 52.6749C6.10462 52.0842 5.61224 51.5918 5.02149 51.5918Z" fill="#393939"/>
<path d="M17.9684 24.0729H43.6168C46.5705 24.0729 48.9827 21.6607 48.9827 18.707V5.36591C48.9827 2.41217 46.5705 0 43.6168 0H17.9684C15.0147 0 12.6025 2.41217 12.6025 5.36591V18.707C12.6025 21.71 15.0147 24.0729 17.9684 24.0729ZM43.6168 22.1037H17.9684C16.0977 22.1037 14.5717 20.5777 14.5717 18.707V10.1411H46.9644V18.707C46.9644 20.6269 45.4382 22.1037 43.6168 22.1037ZM46.9644 7.03964V8.17193H14.5717V7.03964H46.9644ZM17.9684 2.01831H43.6168C45.3398 2.01831 46.8167 3.34754 46.9644 5.02133H14.5717C14.7686 3.34754 16.1962 2.01831 17.9684 2.01831Z" fill="#393939"/>
<path d="M41.5494 13.5872C39.7279 13.5872 38.251 15.064 38.251 16.8855C38.251 18.7069 39.7279 20.1839 41.5494 20.1839C43.3709 20.1839 44.8477 18.7069 44.8477 16.8855C44.8477 15.064 43.3709 13.5872 41.5494 13.5872ZM41.5494 18.1655C40.811 18.1655 40.2201 17.5748 40.2201 16.8363C40.2201 16.0979 40.811 15.5072 41.5494 15.5072C42.2878 15.5072 42.8786 16.0979 42.8786 16.8363C42.8786 17.5748 42.2386 18.1655 41.5494 18.1655Z" fill="#393939"/>
<path d="M21.9069 16.9839H17.8701V18.953H21.9069V16.9839Z" fill="#393939"/>
<path d="M27.7159 16.9839H23.6792V18.953H27.7159V16.9839Z" fill="#393939"/>
</svg>
