<svg width="53" height="68" viewBox="0 0 53 68" fill="none" xmlns="http://www.w3.org/2000/svg">
<path d="M34.3128 22.8914H9.55078V24.8605H34.3128V22.8914Z" fill="#393939"/>
<path d="M34.3128 29.9805H9.55078V31.9496H34.3128V29.9805Z" fill="#393939"/>
<path d="M34.3128 37.0203H9.55078V38.9894H34.3128V37.0203Z" fill="#393939"/>
<path d="M34.3128 44.1091H9.55078V46.0783H34.3128V44.1091Z" fill="#393939"/>
<path d="M21.9565 51.198H9.55078V53.1672H21.9565V51.198Z" fill="#393939"/>
<path d="M52.4288 9.55037C52.4288 4.28287 48.146 0 42.8785 0C37.9556 0 33.8695 3.74135 33.3772 8.56579H0V67.4928H43.863V19.0516C48.6875 18.5593 52.4288 14.4733 52.4288 9.55037ZM1.96916 65.5236V10.5349H33.3772C33.8203 15.0148 37.414 18.6085 41.8939 19.0516V65.5236H1.96916ZM42.8785 17.1317C38.694 17.1317 35.2971 13.7348 35.2971 9.55037C35.2971 5.36591 38.694 1.96916 42.8785 1.96916C47.0629 1.96916 50.4597 5.36591 50.4597 9.55037C50.4597 13.7348 47.0629 17.1317 42.8785 17.1317Z" fill="#393939"/>
<path d="M43.4693 4.43066L42.0908 5.8091L44.8477 8.56585H38.5464V10.535H44.8477L42.0908 13.2919L43.4693 14.6703L48.589 9.55043L43.4693 4.43066Z" fill="#393939"/>
</svg>
