<svg width="65" height="66" viewBox="0 0 65 66" fill="none" xmlns="http://www.w3.org/2000/svg">
<path d="M56.8571 13.4348L55.5169 15.6274C59.537 20.683 61.9735 27.0785 61.9735 34.0223C61.9735 50.2853 48.7559 63.5637 32.432 63.5637C16.1081 63.5637 2.89057 50.3462 2.89057 34.0223C2.89057 17.6984 16.1081 4.48084 32.432 4.48084C38.5839 4.48084 44.3704 6.36906 49.1213 9.65821L50.6441 7.70911C45.4667 4.11541 39.1931 2.04443 32.493 2.04443C14.8899 2.04443 0.515137 16.3583 0.515137 34.0223C0.515137 51.6862 14.829 66.0001 32.493 66.0001C50.1569 66.0001 64.4708 51.6862 64.4708 34.0223C64.4099 26.2258 61.5471 19.0385 56.8571 13.4348Z" fill="#393939"/>
<path d="M19.5189 21.4139L15.6206 24.8249L30.3 46.9962H34.0156L61.3642 1.92266L59.0496 0.399902L32.1273 34.8751L19.5189 21.4139Z" fill="#393939"/>
</svg>
