<svg width="53" height="68" viewBox="0 0 53 68" fill="none" xmlns="http://www.w3.org/2000/svg">
<path d="M34.2636 22.8914H9.50146V24.8605H34.2636V22.8914Z" fill="#393939"/>
<path d="M34.2636 29.9805H9.50146V31.9496H34.2636V29.9805Z" fill="#393939"/>
<path d="M34.2636 37.0203H9.50146V38.9894H34.2636V37.0203Z" fill="#393939"/>
<path d="M34.2636 44.1091H9.50146V46.0783H34.2636V44.1091Z" fill="#393939"/>
<path d="M21.9071 51.198H9.50146V53.1672H21.9071V51.198Z" fill="#393939"/>
<path d="M52.4288 9.55037C52.4288 4.28287 48.146 0 42.8785 0C37.9556 0 33.8695 3.74135 33.3772 8.56579H0V67.4928H43.863V19.0516C48.6382 18.5593 52.4288 14.4733 52.4288 9.55037ZM1.91988 65.5236V10.5349H33.328C33.771 15.0148 37.3648 18.6085 41.8446 19.0516V65.5236H1.91988ZM42.8292 17.1317C38.6447 17.1317 35.248 13.7348 35.248 9.55037C35.248 5.36591 38.6447 1.96916 42.8292 1.96916C47.0136 1.96916 50.4104 5.36591 50.4104 9.55037C50.4596 13.7348 47.0136 17.1317 42.8292 17.1317Z" fill="#393939"/>
<path d="M42.4845 11.0765L40.2691 8.27044L38.6938 9.50116L42.5829 14.4241L48.1949 6.15357L46.5705 5.07056L42.4845 11.0765Z" fill="#393939"/>
</svg>
