<svg width="60" height="74" viewBox="0 0 60 74" fill="none" xmlns="http://www.w3.org/2000/svg">
<path d="M17.5681 33.0397H17.6174H19.5465H19.5959H23.5527H23.6022H25.5311H25.5806H29.5374H29.5868H31.5159H31.5653H35.5221H35.5716H37.5005H37.55H41.5068H43.4853V31.0613V23.84V21.8616H41.5068H37.55H37.5005H35.5716H35.5221H31.5653H31.5159H29.5868H29.5374H25.5806H25.5311H23.6022H23.5527H19.5959H19.5465H17.6174H17.5681H13.6112H11.6328V23.84V31.0613V33.0397H13.6112H17.5681ZM37.55 23.84H41.5068V31.0613H37.55V23.84ZM31.5653 23.84H35.5221V31.0613H31.5653V23.84ZM25.5806 23.84H29.5374V31.0613H25.5806V23.84ZM19.5959 23.84H23.5527V31.0613H19.5959V23.84ZM13.6112 23.84H17.5681V31.0613H13.6112V23.84Z" fill="#393939"/>
<path d="M57.5816 59.6492C55.8504 57.9181 53.4269 57.0279 50.9539 57.2752C50.0142 57.3741 49.1238 57.2256 48.283 56.8299V47.1358C51.7947 42.7338 53.872 37.0953 53.872 31.0116C53.872 24.8786 51.7947 19.2895 48.283 14.7886V4.10524C48.283 1.83006 46.4529 0 44.1777 0H10.7426C8.46741 0 6.63736 1.83006 6.63736 4.10524V14.5413C3.02675 19.0422 0.899902 24.7796 0.899902 30.9621C0.899902 37.1447 3.02675 42.8822 6.63736 47.3831V57.7203C6.63736 59.9954 8.46741 61.8255 10.7426 61.8255H43.0403C43.4359 62.7158 43.6338 63.705 43.5349 64.6942C43.2876 67.1672 44.1777 69.5413 45.9089 71.3219C47.4916 72.9046 49.6184 73.7454 51.7452 73.7454C53.0312 73.7454 54.2677 73.4487 55.4547 72.8552L56.6912 72.2616L51.5474 67.1177L53.3279 65.3371L58.4719 70.4811L59.0654 69.2446C60.747 65.9802 60.104 62.1716 57.5816 59.6492ZM46.4035 55.4945L43.1885 52.2796C44.3261 51.4388 45.4143 50.4991 46.4035 49.4604V55.4945ZM8.56626 4.10524C8.61572 2.91819 9.55554 1.97842 10.7426 1.97842H44.1777C45.3648 1.97842 46.3046 2.91819 46.3046 4.10524V12.464C41.5069 7.51796 34.7803 4.45144 27.3612 4.45144C20.0411 4.45144 13.3639 7.46854 8.56626 12.2662V4.10524ZM7.57706 45.3552C7.23083 44.91 6.93412 44.4154 6.63736 43.9702C4.26326 40.2113 2.87832 35.7104 2.87832 30.9127C2.87832 26.1151 4.26326 21.7626 6.63736 17.9541C6.93412 17.4595 7.23083 17.0144 7.57706 16.5692C7.92328 16.1241 8.26955 15.679 8.61577 15.2338C13.1167 9.8921 19.8433 6.47924 27.4107 6.47924C35.0276 6.47924 41.8532 9.99098 46.3541 15.4316C46.7003 15.8273 46.997 16.223 47.2938 16.6681C47.3432 16.767 47.4422 16.866 47.4917 16.9154C47.7885 17.3606 48.0852 17.7563 48.3325 18.2015C50.6077 21.911 51.9431 26.3129 51.9431 30.9621C51.9431 35.6114 50.6077 40.0134 48.3325 43.7229C48.0852 44.1681 47.7885 44.6133 47.4917 45.009C47.4422 45.1079 47.3432 45.2068 47.2938 45.2563C46.997 45.6519 46.7003 46.0971 46.3541 46.4928C45.0186 48.125 43.4359 49.6088 41.7542 50.8453L40.5672 49.6582C39.3802 48.4711 38.7866 46.8389 38.935 45.2068C39.1823 42.7337 38.292 40.3597 36.5609 38.5791C34.0384 36.0566 30.1805 35.4631 27.015 37.0458L25.7785 37.6393L30.9225 42.7832L29.1418 44.5637L23.998 39.4199L23.4044 40.6564C21.7722 43.8219 22.4152 47.6798 24.9377 50.2023C26.6688 51.9334 29.0923 52.8237 31.5653 52.5764C33.0986 52.428 34.5825 52.9226 35.7201 53.9612C33.1482 54.901 30.3289 55.3956 27.4107 55.3956C19.8433 55.3956 13.1167 51.9829 8.61577 46.6412C8.26955 46.2455 7.92328 45.8003 7.57706 45.3552ZM8.66528 57.7698V49.6582C13.4629 54.5053 20.1401 57.473 27.4602 57.473C30.9225 57.473 34.2363 56.7806 37.3028 55.544L41.6553 59.8965H10.8415C9.60498 59.8965 8.66528 58.9568 8.66528 57.7698ZM57.8289 66.9693L53.3279 62.4685L48.7282 67.0682L53.229 71.5692C51.1517 72.0638 48.8765 71.4702 47.2938 69.937C45.9583 68.6015 45.3154 66.7716 45.5133 64.9415C45.6122 63.7545 45.4638 62.5674 45.0187 61.4793C44.9692 61.3804 44.9197 61.2814 44.8703 61.1825C44.6724 60.7373 44.4745 60.3417 44.1777 59.9955C43.9304 59.6493 43.6337 59.2535 43.3369 58.9568L39.1823 54.8021L38.8361 54.4558L37.3523 52.972C35.918 51.5377 33.989 50.7463 32.0106 50.7463C31.7633 50.7463 31.5159 50.7463 31.318 50.7958C29.4385 50.9936 27.6086 50.3012 26.3226 49.0152C24.7399 47.4324 24.1463 45.2067 24.6904 43.0799L29.1913 47.5809L33.7911 42.981L29.2902 38.4802C31.3676 37.9856 33.6428 38.579 35.2255 40.1123C36.5609 41.4477 37.2038 43.2778 37.006 45.1079C36.8081 47.3336 37.5996 49.5593 39.1823 51.142L40.0726 52.0323L40.6661 52.6258L45.167 57.1268C45.5132 57.473 45.9089 57.8192 46.3541 58.0665C46.453 58.1654 46.6014 58.2148 46.7003 58.3138C46.7497 58.3632 46.7991 58.3632 46.8981 58.4127C47.1454 58.561 47.3927 58.6601 47.64 58.759C47.6894 58.759 47.6895 58.8084 47.739 58.8084C47.8874 58.8578 48.0357 58.9073 48.1841 58.9568C49.1733 59.2535 50.1626 59.4019 51.2012 59.303C53.0807 59.1051 54.9107 59.7976 56.1966 61.0836C57.7794 62.6169 58.3729 64.8425 57.8289 66.9693Z" fill="#393939"/>
</svg>
