<svg width="48" height="33" viewBox="0 0 48 33" fill="none" xmlns="http://www.w3.org/2000/svg">
<path d="M47.6721 16.1112L43.3418 0.350586H4.33023L0 16.1112H4.13517V32.8082H43.4979V16.1112H47.6721ZM2.10659 14.5508L5.57867 1.91105H42.2105L45.6825 14.5508H43.5759H28.0103V12.3662C28.0103 10.1035 26.1767 8.2309 23.8751 8.2309C21.5734 8.2309 19.7398 10.0645 19.7398 12.3662V14.5508H4.17422H2.10659ZM26.4108 14.5508H21.3003V12.3662C21.3003 10.9618 22.4316 9.79136 23.8751 9.79136C25.2795 9.79136 26.4499 10.9227 26.4499 12.3662V14.5508H26.4108ZM26.4108 31.2477H21.3003V23.0943C21.3003 21.6899 22.4316 20.5195 23.8751 20.5195C25.2795 20.5195 26.4499 21.6509 26.4499 23.0943V31.2477H26.4108ZM41.9764 31.2477H27.9713V23.0943C27.9713 20.8317 26.1377 18.9591 23.836 18.9591C21.5343 18.9591 19.7008 20.7927 19.7008 23.0943V31.2477H5.69563V16.1112H41.9374V31.2477H41.9764Z" fill="#393939"/>
<path d="M15.6044 20.9876H9.90869V26.6834H15.6044V20.9876ZM14.044 25.1229H11.4692V22.5481H14.044V25.1229Z" fill="#393939"/>
<path d="M37.8412 20.9876H32.1455V26.6834H37.8412V20.9876ZM36.2808 25.1229H33.706V22.5481H36.2808V25.1229Z" fill="#393939"/>
</svg>
