<svg width="53" height="66" viewBox="0 0 53 66" fill="none" xmlns="http://www.w3.org/2000/svg">
<path d="M43.863 37.8079C52.675 22.2023 47.5552 1.67383 47.3091 0.787711L47.1121 0L46.2752 0.049277C46.0291 0.049277 40.0231 0.541566 32.5895 3.00301C20.0362 7.08902 13.538 13.3903 10.2396 17.9686C4.33217 26.239 3.19986 36.6756 3.29832 43.9615C3.39677 50.6566 4.47986 55.8749 4.82446 57.401L0 64.1453L1.62458 65.2776L6.44904 58.5332C8.36897 58.3363 15.9502 57.401 24.2206 53.955C25.5006 60.6009 31.4081 65.6714 38.4479 65.6714C46.4229 65.6714 52.9211 59.1732 52.9211 51.1981C52.9211 45.1922 49.1798 39.9739 43.863 37.8079ZM11.8642 19.15C20.6762 6.79355 38.1525 3.19986 44.2569 2.31374L6.44904 55.2349C5.26754 49.1797 3.00301 31.5065 11.8642 19.15ZM8.02434 56.4164L45.8322 3.44603C46.9152 9.15658 48.9336 25.0575 41.8939 37.1679C40.7616 36.8725 39.6293 36.7248 38.3986 36.7248C30.4235 36.7248 23.9253 43.223 23.9253 51.1981C23.9253 51.4442 23.9253 51.6904 23.9253 51.9365C17.4763 54.7426 11.2242 55.9241 8.02434 56.4164ZM38.4479 63.7515C31.5558 63.7515 25.9436 58.1394 25.9436 51.2474C25.9436 44.3553 31.5558 38.7432 38.4479 38.7432C45.3399 38.7432 50.952 44.3553 50.952 51.2474C50.952 58.1394 45.3399 63.7515 38.4479 63.7515Z" fill="#393939"/>
<path d="M42.2385 47.4073L43.6169 46.0289C40.7616 43.1736 36.0849 43.1736 33.1804 46.0289C32.3927 46.8166 31.802 47.8011 31.4574 48.8349H29.7344V50.8041H31.0635C31.0635 51.0995 31.0635 51.3949 31.0635 51.7395H29.7344V53.7087H31.4574C31.802 54.7425 32.3927 55.6778 33.1804 56.5147C34.5588 57.8931 36.4294 58.6807 38.3986 58.6807C40.3678 58.6807 42.2385 57.8931 43.6169 56.5147L42.2385 55.1363C40.1216 57.2531 36.6756 57.2531 34.608 55.1363C34.1649 54.6932 33.8696 54.2501 33.6234 53.7578H38.4479V51.7887H33.0818C33.0326 51.4933 33.0326 51.198 33.0818 50.8534H38.4479V48.8842H33.6234C33.8696 48.3919 34.2142 47.8996 34.608 47.5058C36.7248 45.2905 40.1709 45.2905 42.2385 47.4073Z" fill="#393939"/>
</svg>
