<svg width="69" height="53" viewBox="0 0 69 53" fill="none" xmlns="http://www.w3.org/2000/svg">
<path d="M31.2541 16.0907C31.2541 15.9516 31.2541 15.7661 31.2541 15.627C31.2541 7.00199 24.2521 0 15.6271 0C7.0021 0 0 7.00199 0 15.627C0 22.4435 4.35891 28.2399 10.4799 30.373V52.9556H56.2017V48.6895H60.4678V44.4234H64.7339V40.1573H69V16.0907H31.2541ZM60.5141 17.9455C60.7459 21.6088 63.5746 24.5303 67.1452 24.994V31.7178C63.7137 32.1351 60.9778 34.871 60.5605 38.3025H31.7641C31.3468 34.871 28.6109 32.1351 25.1795 31.7178V28.0081C28.3327 25.5968 30.5121 22.0262 31.115 17.9455H60.5141ZM25.1795 33.5726C27.5907 33.99 29.4919 35.8912 29.9093 38.3025H25.1795V33.5726ZM1.90125 15.627C1.90125 8.02215 8.06857 1.85484 15.6734 1.85484C23.2782 1.85484 29.4456 8.02215 29.4456 15.627C29.4456 23.2318 23.2782 29.3993 15.6734 29.3993C8.06857 29.3993 1.90125 23.1855 1.90125 15.627ZM54.3468 51.1008H12.3347V30.8831C13.123 31.0686 13.9113 31.1613 14.746 31.2077V48.6895H54.3468V51.1008ZM58.613 46.8347H16.6008V31.2077C17.4355 31.1613 18.2238 31.0222 19.0121 30.8831V44.4234H58.613V46.8347ZM62.8791 42.5686H20.8669V30.3267C21.7016 30.0484 22.49 29.6774 23.2783 29.2137V40.1109H62.8791V42.5686ZM67.1452 38.3025H62.4153C62.8327 35.8912 64.7339 33.99 67.1452 33.5726V38.3025ZM67.1452 23.0928C64.5948 22.6754 62.6008 20.5423 62.3689 17.9455H67.1452V23.0928Z" fill="#393939"/>
<path d="M46.1857 36.3548C50.73 36.3548 54.4397 32.6451 54.4397 28.1007C54.4397 23.5564 50.73 19.8467 46.1857 19.8467C41.6413 19.8467 37.9316 23.5564 37.9316 28.1007C37.9316 32.6451 41.595 36.3548 46.1857 36.3548ZM46.1857 21.7015C49.7099 21.7015 52.5849 24.5765 52.5849 28.1007C52.5849 31.6249 49.7099 34.4999 46.1857 34.4999C42.6615 34.4999 39.7865 31.6249 39.7865 28.1007C39.7865 24.5765 42.6151 21.7015 46.1857 21.7015Z" fill="#393939"/>
<path d="M15.1635 15.7197L19.615 5.61084H13.4476L11.7319 17.5746H14.746L12.7521 25.5967H13.4941L18.4557 15.7197H15.1635Z" fill="#393939"/>
</svg>
