<svg width="48" height="52" viewBox="0 0 48 52" fill="none" xmlns="http://www.w3.org/2000/svg">
<path d="M44.7462 30.5737L40.533 0.261719H35.3444L31.1311 30.5737H28.9466V20.6257L15.3315 29.0913V20.5477L0 30.9248V51.757H47.1649V30.5737H44.7462ZM36.7098 1.86123H39.1676L43.1467 30.6127H32.7307L36.7098 1.86123ZM1.52141 50.2356V31.7831L13.732 23.5126V31.9001L27.347 23.4346V32.1341H30.8971H44.9413H45.5265V50.2356H1.52141Z" fill="#393939"/>
<path d="M11.8205 37.4788H6.39795V39.0393H11.8205V37.4788Z" fill="#393939"/>
<path d="M21.4564 37.4788H16.0337V39.0393H21.4564V37.4788Z" fill="#393939"/>
<path d="M31.0921 37.4788H25.6694V39.0393H31.0921V37.4788Z" fill="#393939"/>
<path d="M40.7282 37.4788H35.3057V39.0393H40.7282V37.4788Z" fill="#393939"/>
</svg>
