<svg xmlns="http://www.w3.org/2000/svg" viewBox="0 0 60 60"><defs><style>.cls-1{fill:#ffd100;}.cls-2{fill:#fff;}.cls-2,.cls-3{stroke:#000;stroke-linecap:round;stroke-linejoin:round;stroke-width:2px;}.cls-3{fill:none;}</style></defs><title>01_icons_sunsay_website_02</title><g id="_1" data-name="1"><circle class="cls-1" cx="25" cy="29" r="6"/><circle class="cls-2" cx="25" cy="29" r="2"/><rect class="cls-3" x="2" y="35" width="56" height="16" rx="4.43"/><path class="cls-3" d="M6.33,51a1.31,1.31,0,0,0-.73.22,1.53,1.53,0,0,0-.66,1.28h0A1.45,1.45,0,0,0,6.33,54h4.22a1.45,1.45,0,0,0,1.39-1.5h0A1.45,1.45,0,0,0,10.55,51"/><path class="cls-3" d="M49.33,51a1.31,1.31,0,0,0-.73.22,1.53,1.53,0,0,0-.66,1.28h0A1.45,1.45,0,0,0,49.33,54h4.22a1.45,1.45,0,0,0,1.39-1.5h0A1.45,1.45,0,0,0,53.55,51"/><circle class="cls-3" cx="9" cy="43" r="2"/><circle class="cls-3" cx="17" cy="43" r="2"/><circle class="cls-3" cx="25" cy="43" r="2"/><rect class="cls-3" x="32" y="40" width="9" height="6" rx="2.21"/><path class="cls-3" d="M34.83,34.14V7.81A1.83,1.83,0,0,0,33,6h0a1.83,1.83,0,0,0-1.83,1.83V34.14"/><path class="cls-3" d="M42.77,34.14V7.81A1.84,1.84,0,0,0,40.93,6h0A1.83,1.83,0,0,0,39.1,7.81V34.14"/><circle cx="46" cy="39" r="1"/><circle cx="50" cy="39" r="1"/><circle cx="54" cy="39" r="1"/><circle cx="46" cy="43" r="1"/><circle cx="50" cy="43" r="1"/><circle cx="54" cy="43" r="1"/><circle cx="46" cy="47" r="1"/><circle cx="50" cy="47" r="1"/><circle cx="54" cy="47" r="1"/><path class="cls-3" d="M20.42,31A4.94,4.94,0,0,1,20,29a5,5,0,0,1,5-5,4.94,4.94,0,0,1,2,.42"/><path class="cls-3" d="M17.25,31A8.24,8.24,0,0,1,17,29a8,8,0,0,1,8-8,8.24,8.24,0,0,1,2,.25"/><path class="cls-3" d="M14.18,31A11,11,0,0,1,27,18.18"/><path class="cls-3" d="M11.14,31A14.6,14.6,0,0,1,11,29,14,14,0,0,1,25,15a14.6,14.6,0,0,1,2,.14"/><path class="cls-3" d="M8.12,31A16.52,16.52,0,0,1,8,29,17,17,0,0,1,25,12a16.52,16.52,0,0,1,2,.12"/><path class="cls-3" d="M5.1,31A18.86,18.86,0,0,1,5,29,20,20,0,0,1,25,9a18.86,18.86,0,0,1,2,.1"/></g></svg>