<svg xmlns="http://www.w3.org/2000/svg" viewBox="0 0 60 60"><defs><style>.cls-1{fill:#ffd100;}.cls-2{fill:none;stroke:#000;stroke-linecap:round;stroke-linejoin:round;stroke-width:2px;}</style></defs><title>01_icons_sunsay_website_02</title><g id="_10" data-name="10"><rect class="cls-1" x="8" y="34" width="44" height="6"/><circle cx="32" cy="30" r="1"/><circle cx="35" cy="30" r="1"/><circle cx="38" cy="30" r="1"/><circle cx="41" cy="30" r="1"/><circle cx="44" cy="30" r="1"/><circle class="cls-2" cx="50" cy="28" r="2"/><path class="cls-2" d="M9.06,39h-3A5.05,5.05,0,0,1,1,33.94V18a5.06,5.06,0,0,1,5.06-5.06h48a5.06,5.06,0,0,1,5,5.06V33.94a5.05,5.05,0,0,1-5,5.06h-9"/><polyline class="cls-2" points="52 39 52 34 8 34 8 39"/><line class="cls-2" x1="8" y1="20" x2="52" y2="20"/><path class="cls-2" d="M13,43a6,6,0,0,0,6-6"/><path class="cls-2" d="M13,46a9,9,0,0,0,9-9"/><path class="cls-2" d="M13,49A12,12,0,0,0,25,37"/><path class="cls-2" d="M13,52A15,15,0,0,0,28,37"/><path class="cls-2" d="M40,37a6,6,0,0,0,6,6"/><path class="cls-2" d="M37,37a9,9,0,0,0,9,9"/><path class="cls-2" d="M34,37A12,12,0,0,0,46,49"/><path class="cls-2" d="M31,37A15,15,0,0,0,46,52"/><rect class="cls-2" x="8" y="26" width="11" height="4"/></g></svg>