<svg xmlns="http://www.w3.org/2000/svg" viewBox="0 0 60 60"><defs><style>.cls-1{fill:#ffd100;}.cls-2{fill:none;stroke:#000;stroke-linecap:round;stroke-linejoin:round;stroke-width:2px;}</style></defs><title>01_icons_sunsay_website_02</title><g id="_12" data-name="12"><path class="cls-1" d="M46,15a6,6,0,1,0,6,6A6,6,0,0,0,46,15Zm0,9a3,3,0,1,1,3-3A3,3,0,0,1,46,24Z"/><line class="cls-2" x1="38" y1="2" x2="38" y2="5"/><line class="cls-2" x1="41" y1="2" x2="41" y2="5"/><line class="cls-2" x1="44" y1="2" x2="44" y2="5"/><path class="cls-2" d="M31,13h5a3,3,0,0,1,3,3v0a0,0,0,0,1,0,0H28a0,0,0,0,1,0,0v0A3,3,0,0,1,31,13Z"/><path class="cls-2" d="M55,16H29C18.27,16,8.18,22.05,1.86,30.77A.77.77,0,0,0,2.48,32H49.74V26"/><path class="cls-2" d="M49,16,47.6,8H24a3,3,0,0,1-3-3h0a3,3,0,0,1,3-3H52l5,21"/><circle class="cls-2" cx="46" cy="21" r="2"/><path class="cls-2" d="M39.89,38.83h2.28a3.94,3.94,0,0,1,3.94,3.94v2.11a3.94,3.94,0,0,1-3.94,3.94H39.89a0,0,0,0,1,0,0v-10A0,0,0,0,1,39.89,38.83Z" transform="translate(86.83 0.83) rotate(90)"/><line class="cls-2" x1="46" y1="40.72" x2="46" y2="37.72"/><line class="cls-2" x1="40" y1="40.72" x2="40" y2="37.72"/><polyline class="cls-2" points="7 26 52 26 57 26 57 23"/><circle cx="9" cy="29" r="1"/><circle cx="13" cy="29" r="1"/><circle cx="17" cy="29" r="1"/><circle cx="21" cy="29" r="1"/><circle cx="25" cy="29" r="1"/><circle cx="29" cy="29" r="1"/><circle cx="33" cy="29" r="1"/><circle cx="37" cy="29" r="1"/><circle cx="41" cy="29" r="1"/><circle cx="45" cy="29" r="1"/><rect class="cls-2" x="49.74" y="26" width="9.26" height="3"/><path class="cls-2" d="M50.58,19a5,5,0,0,1,0,4"/><path class="cls-2" d="M7,42a7,7,0,0,0,7-7"/><path class="cls-2" d="M7,46A11,11,0,0,0,18,35"/><path class="cls-2" d="M22,35a7,7,0,0,0,7,7"/><path class="cls-2" d="M18,35A11,11,0,0,0,29,46"/><path class="cls-2" d="M43,47v4.5A6.5,6.5,0,0,0,49.5,58h0A6.5,6.5,0,0,0,56,51.5V29"/></g></svg>