<svg xmlns="http://www.w3.org/2000/svg" viewBox="0 0 60 60"><defs><style>.cls-1{fill:#ffd100;}.cls-2{fill:none;stroke:#000;stroke-linecap:round;stroke-linejoin:round;stroke-width:2px;}</style></defs><title>01_icons_sunsay_website_02</title><g id="_13" data-name="13"><path class="cls-1" d="M30.5,17.5A14.5,14.5,0,1,0,45,32,14.5,14.5,0,0,0,30.5,17.5Zm0,23A8.5,8.5,0,1,1,39,32,8.51,8.51,0,0,1,30.5,40.5Z"/><line class="cls-2" x1="35.33" y1="31" x2="23.33" y2="37"/><circle class="cls-2" cx="30.5" cy="32" r="9"/><path class="cls-2" d="M37.33,27a9,9,0,0,0-.48,10.66"/><rect class="cls-2" x="9" y="1" width="43" height="55" rx="2.41"/><line class="cls-2" x1="9.33" y1="50" x2="51.33" y2="50"/><line class="cls-2" x1="9.33" y1="13" x2="51.33" y2="13"/><line class="cls-2" x1="23.33" y1="1" x2="23.33" y2="12"/><line class="cls-2" x1="36.33" y1="9" x2="41.33" y2="9"/><line class="cls-2" x1="36.33" y1="5" x2="41.33" y2="5"/><circle cx="27.33" cy="9" r="1"/><circle cx="30.33" cy="9" r="1"/><circle cx="33.33" cy="9" r="1"/><circle cx="27.33" cy="5" r="1"/><circle cx="30.33" cy="5" r="1"/><circle cx="33.33" cy="27" r="1"/><circle cx="33.33" cy="5" r="1"/><rect class="cls-2" x="13.33" y="5" width="6" height="4"/><rect class="cls-2" x="14.33" y="56" width="7" height="3"/><rect class="cls-2" x="40.33" y="56" width="7" height="3"/><circle class="cls-2" cx="46.33" cy="7" r="2"/><path class="cls-2" d="M30.5,26a6,6,0,0,0-6,6"/><path class="cls-2" d="M27.33,32a3,3,0,0,1,3-3"/></g></svg>