<svg id="_14" data-name="14" xmlns="http://www.w3.org/2000/svg" viewBox="0 0 60 60"><defs><style>.cls-1{fill:#ffd100;}.cls-2{fill:none;stroke:#000;stroke-linecap:round;stroke-linejoin:round;stroke-width:2px;}</style></defs><title>01_icons_sunsay_website_02</title><path class="cls-1" d="M29.94,5.44A8.56,8.56,0,1,0,38.5,14,8.55,8.55,0,0,0,29.94,5.44Zm0,12.84A4.28,4.28,0,1,1,34.22,14,4.28,4.28,0,0,1,29.94,18.28Z"/><line class="cls-2" x1="30" y1="14" x2="30" y2="17.44"/><line class="cls-2" x1="16" y1="50" x2="16" y2="1.22"/><line class="cls-2" x1="44" y1="1.22" x2="44" y2="50"/><polygon class="cls-2" points="49 46.84 43.87 51 16.14 51 11 46.84 11 1 49 1 49 46.84"/><circle cx="30" cy="46" r="1"/><line class="cls-2" x1="20.93" y1="46" x2="25.93" y2="46"/><line class="cls-2" x1="33.93" y1="46" x2="38.93" y2="46"/><circle class="cls-2" cx="30" cy="14" r="4"/><line class="cls-2" x1="28" y1="58" x2="32" y2="58"/><path class="cls-2" d="M18,51h0a6.69,6.69,0,0,0,3,5.68"/><rect class="cls-2" x="23" y="51" width="4" height="4" rx="0.94"/><path class="cls-2" d="M25,55v1.93A2.07,2.07,0,0,1,22.93,59"/><path class="cls-2" d="M42,51h0a6.69,6.69,0,0,1-3,5.68"/><rect class="cls-2" x="33" y="51" width="4" height="4" rx="0.94" transform="translate(70 106) rotate(-180)"/><path class="cls-2" d="M35,55v1.93A2.07,2.07,0,0,0,37.07,59"/><line class="cls-2" x1="34" y1="43" x2="39" y2="43"/><line class="cls-2" x1="21" y1="43" x2="26" y2="43"/></svg>