<svg xmlns="http://www.w3.org/2000/svg" viewBox="0 0 60 60"><defs><style>.cls-1{fill:#ffd100;}.cls-2{fill:none;}.cls-2,.cls-3{stroke:#000;stroke-linecap:round;stroke-linejoin:round;stroke-width:2px;}.cls-3{fill:#fff;}</style></defs><title>01_icons_sunsay_website_02</title><g id="_3" data-name="3"><circle class="cls-1" cx="38" cy="9" r="6"/><rect class="cls-2" x="8" y="20" width="26" height="32" rx="1.94"/><rect class="cls-2" x="46" y="34" width="6" height="3" rx="1.5"/><path class="cls-2" d="M22,13H4.43A3.42,3.42,0,0,0,1,16.43V55.57A3.42,3.42,0,0,0,4.43,59H55.57A3.42,3.42,0,0,0,59,55.57V16.43A3.42,3.42,0,0,0,55.57,13H54"/><circle cx="15" cy="33" r="1"/><circle cx="19" cy="33" r="1"/><circle cx="23" cy="33" r="1"/><circle cx="27" cy="33" r="1"/><circle cx="15" cy="37" r="1"/><circle cx="19" cy="37" r="1"/><circle cx="23" cy="37" r="1"/><circle cx="27" cy="37" r="1"/><circle cx="15" cy="41" r="1"/><circle cx="19" cy="41" r="1"/><circle cx="23" cy="41" r="1"/><circle cx="27" cy="41" r="1"/><circle cx="15" cy="45" r="1"/><circle cx="19" cy="45" r="1"/><circle cx="23" cy="45" r="1"/><circle cx="27" cy="45" r="1"/><circle class="cls-3" cx="38" cy="9" r="2"/><line class="cls-2" x1="15" y1="27" x2="27" y2="27"/><circle class="cls-2" cx="38" cy="9" r="6"/><path class="cls-2" d="M44,15.71A9,9,0,0,0,44,2.29"/><path class="cls-2" d="M32,2.29a9,9,0,0,0,0,13.42"/><path class="cls-2" d="M47,16.94A12,12,0,0,0,47.75,2"/><path class="cls-2" d="M28.25,2A12,12,0,0,0,29,16.94"/></g></svg>