<svg xmlns="http://www.w3.org/2000/svg" viewBox="0 0 512 512"><g id="Комфорт_1" data-name="Комфорт 1"><path d="M351.58,292.36c-1.07-22.06-22.54-39.05-44.25-34.92-2.68-24.32,12.2-79.51-27.16-80.21H118.11C78.68,178,93.65,233.08,91,257.44c-40.07-7.55-61.35,48.19-26.49,69.22V389c-.16,16.54,15.34,26.71,30.84,24.64v18.8h45.62v-18.8H257.36v18.8H303v-18.8c15.49,2.07,31-8.1,30.83-24.64V326.66A37.9,37.9,0,0,0,351.58,292.36ZM99,204.4a19.19,19.19,0,0,1,19.16-19.18H280.17a19.19,19.19,0,0,1,19.16,19.18v55.38c-24.85,10.61-23.85,33.72-23.16,56.61H122.11c.68-22.92,1.67-46-23.16-56.61Zm229,116.44L325.82,322v67a16.65,16.65,0,0,1-16.63,16.64H89.09A16.65,16.65,0,0,1,72.46,389V322c-28.52-12.32-20.27-56.29,10.89-57.09,16.49-.78,31,13.19,30.75,29.73v65.78H284.17V294.61c-.26-16.54,14.26-30.53,30.76-29.73C344.72,265.49,354.42,307.21,327.93,320.84Z"/><path d="M403.54,405.61V175.76H425v36.15H414.38v8h29.29v-8H433V175.76h32.1L432.51,75.59H360.37l-32.6,100.17h61.57V405.61H363.1l-23.54,30.8H453.33l-23.55-30.8ZM338.79,167.76l27.39-84.17h60.53l27.39,84.17Zm16.95,260.65,11.32-14.8h58.77l11.32,14.8Z"/></g></svg>