<svg xmlns="http://www.w3.org/2000/svg" viewBox="0 0 512 512"><g id="Ваша_персональна_1" data-name="Ваша персональна 1"><path d="M237.79,317.5l11.27,11.1A53.06,53.06,0,0,1,228.63,343a73.67,73.67,0,0,1-55-.79,61.13,61.13,0,0,1-22-16.12A60.34,60.34,0,0,1,139,302H118.89v-9.86h18.32c-.24-3.06-.35-5.46-.35-7.22s.11-4.17.35-7.23H118.89v-9.86H139a60.41,60.41,0,0,1,12.68-24.13,61.25,61.25,0,0,1,22-16.12,73.78,73.78,0,0,1,55.05-.79,54.11,54.11,0,0,1,20.34,14.27l-11.27,11.09q-13.92-14.61-34.88-14.62-16,0-28.18,8.28a44.07,44.07,0,0,0-17.09,22h55.84v9.86h-58.3a45.57,45.57,0,0,0-.53,7.23,47.66,47.66,0,0,0,.53,7.22h58.3V302H157.64a44.07,44.07,0,0,0,17.09,22q12.15,8.28,28.18,8.28Q223.7,332.3,237.79,317.5Z"/><path d="M316.73,104.33a122.8,122.8,0,0,0-104.85,59,121.41,121.41,0,0,0-16.61-1.13A122.75,122.75,0,1,0,300.11,348.7a121.45,121.45,0,0,0,16.62,1.13,122.75,122.75,0,0,0,0-245.5ZM195.27,397.48a112.57,112.57,0,0,1,0-225.13,111.22,111.22,0,0,1,11.31.58,103.48,103.48,0,0,1,10.63,1.58,112.62,112.62,0,0,1,61.91,35.38.41.41,0,0,1,.09.1,108.06,108.06,0,0,1,7.87,9.87,110.54,110.54,0,0,1,8.72,14.44c1.62,3.21,3.1,6.5,4.41,9.87a111.29,111.29,0,0,1,6.85,27.5,113.73,113.73,0,0,1,.78,13.25c0,1.19,0,2.4,0,3.59a111.82,111.82,0,0,1-13,49,105.78,105.78,0,0,1-5.5,9.25A112.51,112.51,0,0,1,195.27,397.48ZM307.1,234.3h27.82v9.87H311.06C309.89,240.81,308.56,237.52,307.1,234.3Zm-7.78-14.44a119.8,119.8,0,0,0-6.86-9.87h42.46v9.87Zm50.75,65.35a70.08,70.08,0,0,1-26.6,4.93c-1.87,0-3.73-.07-5.55-.19.07-1.67.1-3.35.1-5,0-3.66-.16-7.27-.47-10.85a56,56,0,0,0,6.8.39q20.79,0,34.88-14.79l11.27,11.1A53.06,53.06,0,0,1,350.07,285.21Zm9.16-90.89q-13.92-14.61-34.88-14.62-16,0-28.18,8.28A44.22,44.22,0,0,0,284,200.16a123.44,123.44,0,0,0-13-11.76c.66-.87,1.36-1.71,2.07-2.54a61.28,61.28,0,0,1,22-16.12,73.75,73.75,0,0,1,55-.79,54.22,54.22,0,0,1,20.34,14.27Z"/></g></svg>