<svg xmlns="http://www.w3.org/2000/svg" viewBox="0 0 512 512"><g id="Ефективність"><path d="M446.36,256.06c0,105-85.4,190.36-190.36,190.36a190.33,190.33,0,0,1-100.78-28.87l-21.07,28.6-8.45-55.78,55.78-8.45L160,411.1a182.34,182.34,0,0,0,96,27.32c100.55,0,182.36-81.81,182.36-182.36a182.34,182.34,0,0,0-44-118.79l6.07-5.21A190.31,190.31,0,0,1,446.36,256.06Z"/><path d="M329.52,129.82l21.61-29.34A182.34,182.34,0,0,0,256,73.7c-100.55,0-182.36,81.81-182.36,182.36a182.34,182.34,0,0,0,44,118.79l-6.07,5.22a190.36,190.36,0,0,1-45.93-124C65.64,151.1,151,65.7,256,65.7A190.3,190.3,0,0,1,355.89,94l20.95-28.44,8.46,55.78Z"/><path d="M198.77,374.57l28.56-111H191.66L233.76,144h80.6l-46.17,95.42h48.6Zm4.19-119h34.69l-22.73,88.35,84.26-96.47H255.43L301.61,152H239.42Z"/></g></svg>