<svg xmlns="http://www.w3.org/2000/svg" viewBox="0 0 512 512"><g id="Легкий_досвід_2" data-name="Легкий досвід 2"><path d="M225.74,227.7H106a59.86,59.86,0,0,1,119.71,0Z"/><circle cx="165.89" cy="126.54" r="25.29"/><rect x="106.03" y="278.39" width="144.14" height="8"/><rect x="106.03" y="301.25" width="144.14" height="8"/><rect x="106.03" y="324.12" width="85.15" height="8"/><path d="M358.65,213.66a15.52,15.52,0,0,0-1.87-.81A16.24,16.24,0,0,1,358.65,213.66Z"/><path d="M433.39,292.34l-7.65-9.59a16,16,0,0,1-3.05-13.34l2.74-12a23.77,23.77,0,0,0-23.18-29.06H390a15.69,15.69,0,0,1-12.33-5.93l-7.64-9.6a22.54,22.54,0,0,0-2-2.16V80a16.34,16.34,0,0,0-16.32-16.32h-262A16.34,16.34,0,0,0,73.41,80V419.55a16.34,16.34,0,0,0,16.32,16.32h222v12.45l11.92-12.45h28.07a16.34,16.34,0,0,0,15.79-12.2l23.6,24.65V372.07a23.37,23.37,0,0,0,11.23-13.82c.17-.55.33-1.11.46-1.69l2.73-12a15.68,15.68,0,0,1,8.54-10.7l11-5.32a23.75,23.75,0,0,0,8.27-36.23ZM89.73,427.87a8.33,8.33,0,0,1-8.32-8.32V80a8.33,8.33,0,0,1,8.32-8.32h262A8.33,8.33,0,0,1,360.05,80V205.54a.1.1,0,0,0-.07,0c-.32-.13-.64-.25-1-.35s-.7-.23-1.05-.33-.53-.15-.79-.21l-.51-.12a2.05,2.05,0,0,0-.34-.07c-.24-.06-.49-.11-.73-.15-.7-.13-1.4-.22-2.1-.28s-1.38-.09-2.07-.09-1.61,0-2.41.12a23.6,23.6,0,0,0-16.17,8.82l-7.65,9.59a15.69,15.69,0,0,1-12.32,5.93H300.59a23.78,23.78,0,0,0-23.17,29.06l2.73,12a15.63,15.63,0,0,1-3,13.34l-7.64,9.59a23.75,23.75,0,0,0,8.27,36.22l11,5.33a15.76,15.76,0,0,1,8.54,10.7l2.71,11.9a15.92,15.92,0,0,0,.5,1.83,22.64,22.64,0,0,0,2.51,5.52,23.42,23.42,0,0,0,8.7,8.22v55.81Zm270.32-8.32a8.33,8.33,0,0,1-8.32,8.32H331.32l20.11-21,8.62,9Zm70.14-108.88a15.69,15.69,0,0,1-8.53,10.69l-11.06,5.33a23.63,23.63,0,0,0-12.86,16.12l-2.73,12c-.09.39-.19.76-.31,1.14a15.76,15.76,0,0,1-21.91,9.55l-4.74-2.28-6.31-3a23.61,23.61,0,0,0-20.62,0l-11.07,5.32a15.82,15.82,0,0,1-20.23-5.88,14.66,14.66,0,0,1-1.65-3.64l0-.14a7.21,7.21,0,0,1-.28-1l-2.73-12a23.71,23.71,0,0,0-12.86-16.11l-11.06-5.33a15.76,15.76,0,0,1-5.48-24l7.63-9.58a23.59,23.59,0,0,0,4.6-20.11l-2.73-12a15.78,15.78,0,0,1,15.37-19.28h12.28a23.67,23.67,0,0,0,18.58-8.94l7.65-9.59A15.57,15.57,0,0,1,349.81,212a16,16,0,0,1,7,.85,15.62,15.62,0,0,1,4.73,2.7,15.73,15.73,0,0,1,2.25,2.29l7.64,9.6A23.67,23.67,0,0,0,390,236.38h12.26a15.78,15.78,0,0,1,15.38,19.28l-2.74,12a23.71,23.71,0,0,0,4.59,20.11l7.66,9.59A15.7,15.7,0,0,1,430.19,310.67Z"/><polygon points="351.43 252.75 364.18 280.12 394.15 283.79 372.06 304.38 377.83 334.01 351.43 319.37 325.02 334.01 330.79 304.38 308.7 283.79 338.67 280.12 351.43 252.75"/></g></svg>