<svg xmlns="http://www.w3.org/2000/svg" viewBox="0 0 512 512"><g id="Генератор_1" data-name="Генератор 1"><path d="M402.53,124.87V98.07H282.26v26.8H51.62v57.62H73V376.08H109.2v37.85h41.86V376.08H315a41.86,41.86,0,0,0,83.33,0H439V182.49h21.37V124.87Zm-112.27-18.8H394.53v18.8H290.26Zm-16.61,262H81V182.49H273.65Zm157.36,0H398.34a41.86,41.86,0,0,0-83.33,0H281.65V182.49H431Zm21.37-193.59H59.62V132.87H452.38Z"/><polygon points="173.13 194.34 131.89 194.34 109.2 258.78 129.53 258.78 114.71 316.36 173.13 249.46 146.46 249.46 173.13 194.34"/><rect x="295.18" y="197.79" width="122.99" height="8"/><rect x="295.18" y="221.1" width="122.99" height="8"/><path d="M397.29,288.53a24.88,24.88,0,1,1,24.88-24.87A24.9,24.9,0,0,1,397.29,288.53Zm0-41.75a16.88,16.88,0,1,0,16.88,16.88A16.89,16.89,0,0,0,397.29,246.78Z"/></g></svg>