<svg xmlns="http://www.w3.org/2000/svg" viewBox="0 0 512 512"><g id="Монтаж_сонячних_3" data-name="Монтаж сонячних 3"><path d="M447.72,205.34l-28.53-7.87L401,179.28l-7.86-28.53L338.89,96.51c-35.27-35.27-69.39-44.8-96-44.8-31.23,0-52,13.16-52,13.16,88.35,26,82.15,97.5,82.15,97.5l-48,48L40.58,394.82a38.35,38.35,0,1,0,54.23,54.24L279.23,264.65l48-48h0l28.53,7.85,18.2,18.2,7.86,28.54,34.93,34.93,65.86-65.86ZM89.16,443.4a30.35,30.35,0,1,1-42.92-42.92L225,221.72l42.93,42.93ZM389,267l-7.3-26.5-.56-2-1.49-1.5-18.2-18.19-1.49-1.5-2-.56-26.5-7.29-50.31-50.31a98.4,98.4,0,0,0-8.74-39.07c-8-17.77-24.71-40.65-59.68-55.84a104,104,0,0,1,30.23-4.53c31.75,0,62.14,14.29,90.31,42.45L386,154.91l7.3,26.49.56,2,1.5,1.49,18.19,18.2,1.5,1.49,2,.56,26.5,7.31,27.78,27.78-54.55,54.55Z"/></g></svg>