<svg xmlns="http://www.w3.org/2000/svg" viewBox="0 0 512 512"><g id="Інтеграція_1" data-name="Інтеграція 1"><rect x="89.48" y="91.41" width="44.9" height="44.9"/><path d="M404.07,349.24V264.86H321.22V240.44h25a16.67,16.67,0,1,0,0-8h-25V190.78H272.86V115.93h76.38v44.89H447V63h-97.8v44.9H264.86v82.85H240.44v-25a16.66,16.66,0,1,0-8,0v25H190.78v48.35H115.93V162.76h44.9V65H63v97.8h44.9v84.37h82.85v24.43h-25a16.66,16.66,0,1,0,0,8h25v41.66h48.36v74.85H162.76v-44.9H65V449h97.8v-44.9h84.38V321.22h24.42v25a16.66,16.66,0,1,0,8,0v-25h41.66V272.86h74.85v76.38h-44.9V447H449V349.24ZM357.24,71H439v81.79h-81.8ZM71,154.76V73h81.8v81.8ZM154.76,441H73v-81.8h81.8ZM313.22,313.22H198.78V198.78H313.22ZM441,439h-81.8V357.24H441Z"/><rect x="375.69" y="89.48" width="44.9" height="44.9" transform="translate(510.06 -286.21) rotate(90)"/><rect x="377.62" y="375.69" width="44.9" height="44.9" transform="translate(800.14 796.27) rotate(-180)"/><rect x="91.41" y="377.62" width="44.9" height="44.9" transform="translate(-286.21 513.93) rotate(-90)"/><rect x="219.78" y="219.77" width="72.45" height="72.45"/></g></svg>