<svg xmlns="http://www.w3.org/2000/svg" viewBox="0 0 512 512"><g id="Інвертор_мережевий_1" data-name="Інвертор мережевий 1"><path d="M347.05,58.56A97.8,97.8,0,0,0,300,70.63H67.17V392.34h0v36.9H85.32l20.22-28.9h18.9v24.9h10.45a28.19,28.19,0,1,0,56.37,0h9.4v-24.9h9.39v24.9h82.32v-24.9h30.38L343,429.24h18.16V253.13A97.79,97.79,0,0,0,347.05,58.56ZM75.17,78.63H287.68c-.64.49-1.28,1-1.91,1.5s-1.32,1.07-2,1.62l-.18.15c-.58.5-1.16,1-1.73,1.51l-.43.39c-.47.42-.93.85-1.38,1.27a5.77,5.77,0,0,0-.44.42c-.46.43-.92.87-1.37,1.32-.87.85-1.71,1.72-2.53,2.6-.5.53-1,1-1.46,1.58s-1.17,1.31-1.73,2-1,1.13-1.41,1.7q-1.81,2.22-3.45,4.49c-.44.61-.87,1.22-1.3,1.84-.1.15-.21.3-.3.45q-.69,1-1.35,2c-.47.74-.94,1.48-1.39,2.23s-.78,1.3-1.16,2a5,5,0,0,0-.26.46c-.34.59-.67,1.18-1,1.79l-.27.5c-.38.71-.76,1.44-1.12,2.17s-.6,1.21-.88,1.83-.48,1-.71,1.52c-.12.25-.23.51-.34.76-.18.4-.36.8-.53,1.22s-.38.89-.56,1.34q-1.51,3.68-2.71,7.49-.28.89-.54,1.77c-.06.2-.12.4-.17.59-.15.52-.29,1-.43,1.53-.09.33-.18.66-.26,1s-.22.86-.32,1.29c-.39,1.55-.73,3.12-1,4.71-.05.25-.1.5-.14.75H75.17Zm87.91,366.81a20.22,20.22,0,0,1-20.19-20.2h10.45v-24.9h18.42v24.9h11.5A20.21,20.21,0,0,1,163.08,445.44Zm190-53.1h-278v-236H249.26a97.9,97.9,0,0,0,97.79,97.8c.88,0,1.77,0,2.65-.05h.39c.76,0,1.51-.05,2.26-.09l.78,0Zm3.56-146.71a89.84,89.84,0,0,1-82.51-141.8q1.41-2,2.92-3.83c1.51-1.87,3.1-3.69,4.77-5.44.55-.59,1.12-1.16,1.69-1.73A90.1,90.1,0,0,1,303,78.12h0a89.8,89.8,0,1,1,53.72,167.51Z"/><polygon points="379.01 95.35 337.77 95.35 315.08 159.78 335.4 159.78 320.58 217.36 379.01 150.47 352.34 150.47 379.01 95.35"/><rect x="103.46" y="315.05" width="154.14" height="8"/><rect x="103.46" y="330.24" width="104.42" height="8"/><path d="M99.46,166.19v60.13H147.9V166.19Zm8,8H139.9v18.06H107.46Zm32.44,44.13H107.46V200.25H139.9Z"/></g></svg>