<svg xmlns="http://www.w3.org/2000/svg" viewBox="0 0 512 512"><g id="Інвертор_1" data-name="Інвертор 1"><path d="M109,62.65v358.6h18.15l20.23-28.9h18.89v28.82h10.45a28.19,28.19,0,0,0,56.38,0h9.39V392.35h9.39v24.9h82.32v-24.9H364.6l20.23,28.9H403V62.65Zm95.91,378.7a20.21,20.21,0,0,1-20.19-20.18h10.45V392.35h18.42v28.82h11.51A20.21,20.21,0,0,1,204.93,441.35Zm190.05-57H117v-236H395Zm0-253.92H117V70.65H395Z"/><rect x="145.32" y="310.97" width="154.14" height="8"/><rect x="145.32" y="326.17" width="104.42" height="8"/><path d="M141.32,162.12v60.13h48.44V162.12Zm40.44,52.13H149.32V196.19h32.44Zm0-26.06H149.32V170.12h32.44Z"/></g></svg>