<svg xmlns="http://www.w3.org/2000/svg" viewBox="0 0 512 512"><g id="Підбір_під_ваші_потреби_2" data-name="Підбір під ваші потреби 2"><path d="M275.61,426.26H47.45a114.08,114.08,0,1,1,228.16,0Z"/><circle cx="161.53" cy="239.43" r="52.77"/><path d="M238.36,262.83l9-46.92C217,202,199.62,181.45,199.62,159.26c0-20.1,14.1-38.81,39.72-52.67,24.84-13.44,57.78-20.85,92.75-20.85s67.9,7.41,92.74,20.85c25.62,13.86,39.72,32.57,39.72,52.67s-14.1,38.81-39.72,52.67c-24.84,13.44-57.78,20.85-92.74,20.85a234.22,234.22,0,0,1-41-3.55ZM332.09,93.74c-33.66,0-65.25,7.07-88.94,19.88-22.91,12.4-35.53,28.61-35.53,45.64,0,19.56,16.7,38,45.83,50.62l2.95,1.28-6.7,35,39.78-25.33,1.55.29a225.26,225.26,0,0,0,41.06,3.7c33.66,0,65.24-7.06,88.93-19.88,22.92-12.4,35.53-28.61,35.53-45.64S443.94,126,421,113.62C397.33,100.81,365.75,93.74,332.09,93.74Z"/><rect x="259.68" y="131.03" width="143.26" height="8"/><rect x="259.68" y="153.69" width="143.26" height="8"/><rect x="259.68" y="176.35" width="81.53" height="8"/></g></svg>