<svg xmlns="http://www.w3.org/2000/svg" viewBox="0 0 512 512"><g id="Ваша_персональна_1" data-name="Ваша персональна 1"><path d="M379.75,116.1H113.21L43.81,238.85H78.07v157H433.94v-157h34.25Zm-38.29,8L320.77,160h-34.6l20.69-35.85ZM193.87,168h34.6l-20.69,35.83H173.19ZM164,203.79h-34.6L150,168h34.61ZM237.71,168h34.6l-20.69,35.83H217Zm41.88,3.39,2-3.39h34.6l-20.69,35.83H260.87Zm18-47.24L276.93,160h-34.6L263,124.11Zm-43.83,0L243.44,142,233.1,160H198.49L208.84,142l10.35-17.92Zm-43.84,0L189.26,160H154.65l20.7-35.85Zm-78.44,0h34.6L145.42,160H110.81ZM106.19,168H140.8l-20.69,35.83H85.51ZM263.13,387.9H86.07v-145H263.13Zm162.81,0H378.47V284.76H318.59V387.9H271.13v-145H313.3l52.59-93.34,60.05,90.54Z"/></g></svg>