<svg xmlns="http://www.w3.org/2000/svg" viewBox="0 0 512 512"><g id="Надійність_системи" data-name="Надійність системи"><path d="M256,461.88l-1.74-.84c-43.93-21.26-80.81-48.21-109.64-80.1a283.52,283.52,0,0,1-53.51-85.49c-20.74-52.14-18.76-92.76-18.57-95.91V119h4a65,65,0,0,0,64.89-64.89v-4H370.7v4A65,65,0,0,0,435.47,119h4v80.52c.19,3.15,2.17,43.77-18.57,95.91a283.52,283.52,0,0,1-53.51,85.49c-28.83,31.89-65.71,58.84-109.64,80.1ZM80.54,126.9v73c0,.41-2.43,41.4,18.16,92.94C117.56,340.08,160.15,406.05,256,453c96-47,138.63-113.16,157.46-160.5,20.48-51.48,18-92.15,18-92.56v-73a73,73,0,0,1-68.65-68.77H149.32A73,73,0,0,1,80.54,126.9ZM256,352.22A122.23,122.23,0,1,1,378.23,230,122.36,122.36,0,0,1,256,352.22Zm0-236.46A114.23,114.23,0,1,0,370.23,230,114.36,114.36,0,0,0,256,115.76Z"/><path d="M256,352.22A122.23,122.23,0,1,1,378.23,230,122.36,122.36,0,0,1,256,352.22Zm0-236.46A114.23,114.23,0,1,0,370.23,230,114.36,114.36,0,0,0,256,115.76Z"/><polygon points="304.33 176.85 330.86 203.38 241.67 292.57 181.14 232.04 207.67 205.5 241.67 239.5 304.33 176.85"/></g></svg>