<svg xmlns="http://www.w3.org/2000/svg" viewBox="0 0 512 512"><g id="Унікальність"><path d="M187,327.11l-7.69-2.18,25.53-90.27a27.1,27.1,0,0,1,52.76,12.16l-7.88-1.42a19.1,19.1,0,0,0-37.18-8.56Z"/><rect x="207.14" y="305.16" width="62.41" height="8" transform="translate(-121.09 461.47) rotate(-75.33)"/><path d="M263.83,324,256,322.44l14.28-71.53a41.89,41.89,0,0,0-81.5-19.16l-22.5,83-7.72-2.1,22.5-83a49.88,49.88,0,0,1,97.06,22.81Z"/><path d="M296.29,307.57l-7.91-1.18,7.65-50.8A67.44,67.44,0,0,0,163.72,230l-16.47,69.5-7.78-1.84,16.47-69.5a75.44,75.44,0,0,1,148,28.62Z"/><path d="M323.72,279.65l-7.88-1.35,3.23-18.8a90,90,0,0,0-175.72-38.19L131,268.24l-7.74-2,12.37-46.92A98,98,0,0,1,327,260.85Z"/><rect x="169.32" y="283.91" width="97.83" height="8" transform="translate(-115.02 427.41) rotate(-75.55)"/><path d="M311.78,162.54c-.12-.15-13.34-15.93-38.64-26.23l3-7.41C303.44,140,317.39,156.76,318,157.47Z"/><path d="M113.9,224.74,106.09,223A162.74,162.74,0,0,1,128,173.38c21.84-33.09,53-51.69,90-53.78a141.68,141.68,0,0,1,26.14.9l-1,7.93a134.41,134.41,0,0,0-24.66-.85c-34.82,2-63,18.79-83.63,50A157.63,157.63,0,0,0,113.9,224.74Z"/><path d="M446.73,413.35,389.37,356a11.32,11.32,0,0,0-16,0l-1.92,1.93-14.36,14.35-1.92,1.92a11.32,11.32,0,0,0,0,16l57.35,57.36a11.35,11.35,0,0,0,16,0l18.2-18.2A11.35,11.35,0,0,0,446.73,413.35Z"/><path d="M347.07,331.22a162.45,162.45,0,1,0-17.15,16.88l1.6-1.38L351,366.17l14.35-14.35L346,332.46C346.34,332.05,346.71,331.64,347.07,331.22ZM224.73,357.16c-73.49,0-133.28-59.78-133.28-133.27S151.24,90.61,224.73,90.61,358,150.4,358,223.89A133.27,133.27,0,0,1,224.73,357.16Z"/></g></svg>