<svg width="39" height="27" viewBox="0 0 39 27" fill="none" xmlns="http://www.w3.org/2000/svg">
<path d="M33.1808 0H5.36315C2.41636 0 0 2.41636 0 5.36315V21.099C0 24.0458 2.41636 26.4621 5.36315 26.4621H33.1219C36.0686 26.4621 38.485 24.0458 38.485 21.099V5.42208C38.5439 2.41636 36.1276 0 33.1808 0ZM5.36315 1.23765H33.1219C35.4204 1.23765 37.3063 3.12359 37.3063 5.42208V6.95441H1.23765V5.42208C1.23765 3.06466 3.06466 1.23765 5.36315 1.23765ZM33.1808 25.2834H5.36315C3.06466 25.2834 1.17871 23.3975 1.17871 21.099V13.2605H37.3063V21.099C37.3063 23.4564 35.4793 25.2834 33.1808 25.2834Z" fill="black"/>
<path d="M14.3213 19.3896H5.65771V20.5684H14.3213V19.3896Z" fill="black"/>
<path d="M31.3846 22.1021C32.5567 21.8254 33.2825 20.6509 33.0057 19.4789C32.729 18.3068 31.5545 17.581 30.3824 17.8578C29.2104 18.1345 28.4846 19.309 28.7614 20.4811C29.0381 21.6531 30.2126 22.3789 31.3846 22.1021Z" fill="black"/>
</svg>
