<svg width="93" height="92" viewBox="0 0 93 92" fill="none" xmlns="http://www.w3.org/2000/svg">
<g clip-path="url(#clip0)">
<path d="M72.8438 92H20.1563C9 92 0 83.0968 0 72.0605V19.9395C0 8.90323 9 0 20.1563 0H72.9375C84.0938 0 93.0938 8.90323 93.0938 19.9395V72.1532C93 83.0968 84 92 72.8438 92Z" fill="#FFD100"/>
<path d="M57.375 53.8832C53.25 49.4316 53.25 42.5687 57.375 38.2098C59.25 39.4154 61.4063 40.0646 63.5625 40.0646C66.375 40.0646 69.1875 39.0445 71.3438 36.9114C73.4062 34.8711 74.5312 32.0888 74.5312 29.2138C74.5312 26.3388 73.4062 23.5566 71.3438 21.5162C67.0312 17.2501 60.0938 17.2501 55.7812 21.5162C53.7188 23.5566 52.5938 26.3388 52.5938 29.2138C52.5938 31.4396 53.25 33.5727 54.4688 35.3348C49.9687 39.4154 43.0312 39.4154 38.625 35.3348C39.8438 33.5727 40.5 31.4396 40.5 29.2138C40.5 26.3388 39.375 23.5566 37.3125 21.5162C33 17.2501 26.0625 17.2501 21.75 21.5162C17.4375 25.7824 17.4375 32.6453 21.75 36.9114C23.9062 39.0445 26.7187 40.0646 29.5312 40.0646C31.6875 40.0646 33.8437 39.4154 35.7187 38.2098C39.8437 42.6614 39.8437 49.5243 35.7187 53.8832C31.4062 51.0082 25.5937 51.4719 21.75 55.1816C17.4375 59.4477 17.4375 66.3106 21.75 70.5767C23.9062 72.7098 26.7187 73.73 29.5312 73.73C32.3437 73.73 35.1562 72.7098 37.3125 70.5767C39.375 68.5364 40.5 65.7542 40.5 62.8792C40.5 60.6534 39.8438 58.5203 38.625 56.7582C43.125 52.6775 50.0625 52.6775 54.4688 56.7582C53.25 58.5203 52.5938 60.6534 52.5938 62.8792C52.5938 65.7542 53.7188 68.5364 55.7812 70.5767C57.9375 72.7098 60.75 73.73 63.5625 73.73C66.375 73.73 69.1875 72.7098 71.3438 70.5767C73.4062 68.5364 74.5312 65.7542 74.5312 62.8792C74.5312 60.0042 73.4062 57.2219 71.3438 55.1816C67.5 51.3792 61.6875 51.0082 57.375 53.8832ZM56.4375 22.0727C58.4062 20.1251 61.0313 19.1977 63.5625 19.1977C66.1875 19.1977 68.7188 20.1251 70.6875 22.0727C74.625 25.9679 74.625 32.2743 70.6875 36.1695C67.2188 39.6009 61.9688 39.9719 58.0312 37.4679L59.7188 35.7985C60.9375 36.4477 62.25 36.8187 63.5625 36.8187C65.5313 36.8187 67.5 36.0767 69 34.5929C72 31.6251 72 26.7098 69 23.7421C67.5 22.2582 65.625 21.5162 63.5625 21.5162C61.5 21.5162 59.5312 22.3509 58.125 23.7421C55.5938 26.2461 55.2188 30.0485 56.9062 32.9235L55.2188 34.5929C52.5 30.7904 52.9688 25.5041 56.4375 22.0727ZM65.1562 27.5445C64.3125 26.7098 63.0938 26.7098 62.25 27.5445L57.4688 32.2743C56.1562 29.7703 56.5312 26.5243 58.6875 24.3912C60 23.0929 61.6875 22.4437 63.4687 22.4437C65.25 22.4437 67.0313 23.1856 68.25 24.3912C70.875 26.988 70.875 31.3469 68.25 33.9437C66.0938 36.0767 62.8125 36.4477 60.2813 35.1493L65.0625 30.4195C65.9062 29.6775 65.9062 28.3792 65.1562 27.5445ZM22.3125 36.1695C18.375 32.2743 18.375 25.9679 22.3125 22.0727C26.25 18.1775 32.625 18.1775 36.5625 22.0727C40.0312 25.5041 40.4063 30.6977 37.875 34.5929L36.1875 32.9235C37.875 30.0485 37.4062 26.2461 34.9688 23.7421C33.4687 22.2582 31.5937 21.5162 29.5312 21.5162C27.4687 21.5162 25.5 22.3509 24.0938 23.7421C21.0937 26.7098 21.0937 31.6251 24.0938 34.5929C25.5938 36.0767 27.5625 36.8187 29.5312 36.8187C30.8437 36.8187 32.1562 36.4477 33.375 35.7985L35.0625 37.4679C31.125 40.0646 25.7812 39.6009 22.3125 36.1695ZM27.8438 30.4195L32.625 35.1493C30.0937 36.4477 26.8125 36.0767 24.6562 33.9437C22.0312 31.3469 22.0312 26.988 24.6562 24.3912C25.9687 23.0929 27.6562 22.4437 29.4375 22.4437C31.2187 22.4437 33 23.1856 34.2188 24.3912C36.375 26.5243 36.75 29.7703 35.4375 32.2743L30.6562 27.5445C29.8125 26.7098 28.5937 26.7098 27.75 27.5445C26.9062 28.3792 27.0938 29.6775 27.8438 30.4195ZM36.5625 69.9275C32.625 73.8227 26.25 73.8227 22.3125 69.9275C18.375 66.0324 18.375 59.7259 22.3125 55.8308C24.2812 53.8832 26.9062 52.9558 29.4375 52.9558C31.4062 52.9558 33.2812 53.5122 34.9688 54.6251L33.2812 56.2945C30.375 54.6251 26.5312 55.0888 24 57.5001C22.5 58.984 21.75 60.8388 21.75 62.8792C21.75 64.9195 22.5937 66.8671 24 68.2582C25.5 69.7421 27.4687 70.484 29.4375 70.484C31.4062 70.484 33.375 69.7421 34.875 68.2582C36.375 66.7743 37.125 64.9195 37.125 62.8792C37.125 61.488 36.75 60.2824 36.0938 59.0767L37.7812 57.4074C38.8125 58.984 39.4687 60.9316 39.4687 62.8792C39.5625 65.5687 38.5312 68.0727 36.5625 69.9275ZM27.8438 64.4558C28.6875 65.2904 29.9062 65.2904 30.75 64.4558L35.5313 59.7259C36 60.6533 36.2812 61.7663 36.2812 62.8792C36.2812 64.6413 35.5312 66.4034 34.3125 67.609C31.6875 70.2058 27.2812 70.2058 24.6562 67.609C23.3437 66.3106 22.6875 64.6413 22.6875 62.8792C22.6875 61.1171 23.4375 59.355 24.6562 58.1493C25.9687 56.8509 27.75 56.2017 29.4375 56.2017C30.5625 56.2017 31.5937 56.48 32.625 56.9437L27.8438 61.6735C27.0938 62.3227 27.0938 63.6211 27.8438 64.4558ZM70.6875 69.9275C66.75 73.8227 60.375 73.8227 56.4375 69.9275C54.5625 68.0727 53.4375 65.5687 53.4375 62.8792C53.4375 60.9316 54 58.984 55.125 57.4074L56.8125 59.0767C56.1562 60.1896 55.7812 61.488 55.7812 62.8792C55.7812 64.9195 56.625 66.8671 58.0312 68.2582C59.5312 69.7421 61.5 70.484 63.4687 70.484C65.4375 70.484 67.4062 69.7421 68.9062 68.2582C70.4062 66.7743 71.1562 64.9195 71.1562 62.8792C71.1562 60.8388 70.3125 58.8913 68.9062 57.5001C66.375 54.9961 62.5312 54.6251 59.625 56.2945L57.9375 54.6251C61.875 52.1211 67.125 52.4921 70.5938 55.9235C72.4688 57.7783 73.5938 60.2824 73.5938 62.9719C73.5938 65.6614 72.5625 68.0727 70.6875 69.9275ZM65.1562 61.5808L60.375 56.8509C61.3125 56.3872 62.4375 56.109 63.5625 56.109C65.3438 56.109 67.0312 56.7582 68.3438 58.0566C69.6562 59.355 70.3125 61.0243 70.3125 62.7864C70.3125 64.5485 69.5625 66.3106 68.3438 67.5163C67.0312 68.8146 65.25 69.4638 63.5625 69.4638C61.7813 69.4638 60.0938 68.8146 58.7812 67.5163C57.4688 66.2179 56.8125 64.5485 56.8125 62.7864C56.8125 61.6735 57.0938 60.6534 57.5625 59.6332L62.3438 64.363C63.1875 65.1977 64.4062 65.1977 65.25 64.363C66.0938 63.5283 65.9062 62.3227 65.1562 61.5808Z" fill="black"/>
</g>
<defs>
<clipPath id="clip0">
<rect width="93" height="92" fill="white"/>
</clipPath>
</defs>
</svg>
