<svg width="34" height="36" viewBox="0 0 34 36" fill="none" xmlns="http://www.w3.org/2000/svg">
<path d="M22.3957 8.78125H5.36328V9.95996H22.3957V8.78125Z" fill="black"/>
<path d="M19.5078 12.1997H5.36328V13.3784H19.5078V12.1997Z" fill="black"/>
<path d="M18.0934 15.6182H5.36328V16.7969H18.0934V15.6182Z" fill="black"/>
<path d="M18.0934 19.0361H5.36328V20.2148H18.0934V19.0361Z" fill="black"/>
<path d="M19.5078 22.4546H5.36328V23.6333H19.5078V22.4546Z" fill="black"/>
<path d="M13.909 25.873H5.36328V27.0518H13.909V25.873Z" fill="black"/>
<path d="M26.58 34.6542H1.23765V1.17871H26.58V9.48865H27.8176V0H0V35.8329H27.8176V26.3443H26.58V34.6542Z" fill="black"/>
<path d="M27.2282 11.3159C23.5742 11.3159 20.6274 14.2627 20.6274 17.9167C20.6274 21.5707 23.5742 24.5175 27.2282 24.5175C30.8823 24.5175 33.829 21.5707 33.829 17.9167C33.829 14.2627 30.8233 11.3159 27.2282 11.3159ZM26.6389 20.7456L24.1046 17.3863L25.0476 16.6791L26.6389 18.7418L29.4678 15.0289L30.4108 15.7361L26.6389 20.7456Z" fill="black"/>
</svg>
