<svg width="43" height="39" viewBox="0 0 43 39" fill="none" xmlns="http://www.w3.org/2000/svg">
<path d="M12.8115 22.3791H15.8448C16.2561 23.5616 16.9244 24.5898 17.8498 25.5152C19.495 27.1604 21.7057 28.0344 23.8649 28.0344C26.0756 28.0344 28.2349 27.2118 29.8801 25.5152L28.3891 24.0243C25.87 26.5434 21.7571 26.5434 19.2893 24.0243C18.7752 23.5102 18.4154 22.9447 18.1069 22.3791H24.6361V20.2713H17.4385C17.3871 20.0142 17.3871 19.7057 17.3871 19.4487C17.3871 19.1916 17.3871 18.8832 17.4385 18.6261H24.6361V16.6211H18.1069C18.4154 16.0041 18.8266 15.4386 19.2893 14.9759C20.5232 13.742 22.117 13.0737 23.8649 13.0737C25.6129 13.0737 27.2067 13.742 28.4406 14.9759L29.9315 13.485C28.3377 11.8912 26.1785 10.9658 23.9164 10.9658C21.6543 10.9658 19.495 11.8398 17.9012 13.485C16.9758 14.4104 16.3075 15.4386 15.8962 16.6211H12.8629V18.6775H15.4335C15.4335 18.9346 15.3821 19.243 15.3821 19.5001C15.3821 19.7572 15.3821 20.0656 15.4335 20.3227H12.8629L12.8115 22.3791Z" fill="white"/>
<path d="M23.0938 0.169434C17.1815 0.169434 11.6805 2.84282 7.97891 7.46984L8.8529 8.13819C12.3489 3.76823 17.5414 1.24907 23.1452 1.24907C33.2219 1.24907 41.3963 9.42347 41.3963 19.5001C41.3963 29.5767 33.2219 37.7511 23.1452 37.7511C13.5827 37.7511 5.76822 30.3993 4.99706 21.0424L9.46984 25.0525L10.1896 24.2299L4.94564 19.5001L3.91742 18.5747L0.575684 26.3892L1.60391 26.8005L3.86601 21.3509C4.79141 31.119 13.0686 38.8307 23.0938 38.8307C28.235 38.8307 33.119 36.8257 36.7692 33.1755C40.4194 29.5253 42.4245 24.6926 42.4245 19.5001C42.4245 8.85794 33.736 0.169434 23.0938 0.169434Z" fill="white"/>
</svg>
