<svg width="46" height="49" viewBox="0 0 46 49" fill="none" xmlns="http://www.w3.org/2000/svg">
<path d="M31.3 33.125H21.2V17.5H11.1V0H0V48.525H10.1H11.1H20.2V48.55H31.3V48.525H41.4V44.475H31.3V33.125ZM10.1 47.525H1V1H10.1V17.5V47.525ZM11.1 47.525V18.5H20.2V33.125V47.525H11.1ZM21.2 34.125H30.3V44.475V47.55H21.2V34.125ZM40.4 45.475V47.525H31.3V45.475H40.4Z" fill="black"/>
<path d="M35.85 0C30.7 0 26.5 4.2 26.5 9.35V17.175C26.5 22.325 30.7 26.525 35.85 26.525C41 26.525 45.2 22.325 45.2 17.175V9.35C45.2 4.2 41 0 35.85 0ZM44.2 17.175C44.2 21.775 40.45 25.525 35.85 25.525C31.25 25.525 27.5 21.775 27.5 17.175V9.35C27.5 4.75 31.25 1 35.85 1C40.45 1 44.2 4.75 44.2 9.35V17.175Z" fill="black"/>
<path d="M35.85 2.125C31.875 2.125 28.625 5.375 28.625 9.35V12.725H43.075V9.35C43.075 5.375 39.825 2.125 35.85 2.125ZM42.075 11.725H29.625V9.35C29.625 5.925 32.425 3.125 35.85 3.125C39.275 3.125 42.075 5.925 42.075 9.35V11.725Z" fill="black"/>
<path d="M35.8498 16.1C34.7998 16.1 33.9248 16.95 33.9248 18.025C33.9248 18.8 34.3748 19.475 35.0248 19.775V21.6H36.6748V19.775C37.3248 19.475 37.7748 18.8 37.7748 18.025C37.7748 16.975 36.9248 16.1 35.8498 16.1Z" fill="black"/>
</svg>
