<svg width="49" height="47" viewBox="0 0 49 47" fill="none" xmlns="http://www.w3.org/2000/svg">
<path d="M30.9 15.55H30.575C27.15 15.55 24.375 18.325 24.375 21.75C24.375 25.175 27.15 27.95 30.575 27.95H30.9C34.2 27.775 36.8 25.075 36.8 21.75C36.8 18.45 34.2 15.725 30.9 15.55ZM30.875 26.95H30.575C27.7 26.95 25.375 24.625 25.375 21.75C25.375 18.875 27.7 16.55 30.575 16.55H30.85C33.625 16.7 35.8 18.975 35.8 21.75C35.8 24.525 33.625 26.825 30.875 26.95Z" fill="black"/>
<path d="M48.5 11.4H42.175V0H0V18.1C0 27.125 4.425 35.55 11.875 40.625L21.075 46.975L30.275 40.625C33.5 38.375 36.275 35.45 38.275 32.1H48.5V11.4ZM29.725 39.825L21.075 45.775L12.425 39.825C5.275 34.9 1 26.8 1 18.1V1H41.175V11.4H12.7H12.675V32.125H37.1C35.2 35.125 32.65 37.775 29.725 39.825ZM47.5 31.1H13.7V12.4H42.175H47.5V31.1Z" fill="black"/>
</svg>
