<svg width="92" height="93" viewBox="0 0 92 93" fill="none" xmlns="http://www.w3.org/2000/svg">
<g clip-path="url(#clip0)">
<path d="M72.0605 93H19.9395C8.90323 93 0 84 0 72.8438V20.1562C0 9 8.90323 0 19.9395 0H72.1532C83.1895 0 92.0928 9 92.0928 20.1562V72.9375C92 84 83.0968 93 72.0605 93Z" fill="#FFD100"/>
<path d="M31.8105 38.4374L44.7943 60.0936C45.3508 61.0311 46.6492 61.0311 47.2056 60.1874L68.0726 28.9686C68.8145 27.8436 67.4234 26.6249 66.4032 27.4686L46 44.9061L33.3871 36.9374C32.3669 36.2811 31.254 37.4999 31.8105 38.4374Z" fill="black"/>
<path d="M68.6289 33.375C70.8547 37.3125 72.1531 41.8125 72.1531 46.5C72.1531 53.5313 69.3709 60.1875 64.4555 65.1563C59.5402 70.125 52.9555 72.9375 45.9999 72.9375C39.0442 72.9375 32.4596 70.125 27.5442 65.1563C22.6289 60.1875 19.8467 53.5313 19.8467 46.5C19.8467 39.4688 22.5362 32.8125 27.5442 27.8438C32.4596 22.875 39.0442 20.0625 45.9999 20.0625C52.3063 20.0625 58.2418 22.3125 62.9717 26.4375L64.8265 24.9375C59.6329 20.3438 53.0483 17.8125 46.0926 17.8125C38.4878 17.8125 31.3467 20.8125 25.9676 26.25C20.5886 31.6875 17.6208 38.9063 17.6208 46.5938C17.6208 54.2813 20.5886 61.5 25.9676 66.9375C31.3467 72.375 38.4878 75.375 46.0926 75.375C53.6975 75.375 60.8386 72.375 66.2176 66.9375C71.5967 61.5 74.5644 54.2813 74.5644 46.5938C74.5644 41.0625 73.0805 35.8125 70.2055 31.3125L68.6289 33.375Z" fill="black"/>
</g>
<defs>
<clipPath id="clip0">
<rect width="92" height="93" fill="white"/>
</clipPath>
</defs>
</svg>
