<svg width="30" height="40" viewBox="0 0 30 40" fill="none" xmlns="http://www.w3.org/2000/svg">
<path d="M11.9048 27.8767L12.7888 27.0516C11.1386 25.4014 8.42755 25.4014 6.77735 27.0516C6.3648 27.4642 6.01119 27.9946 5.83438 28.5839H4.41992V29.7627H5.59864C5.59864 29.9395 5.59864 30.1752 5.59864 30.352H4.41992V31.5307H5.83438C6.07012 32.0611 6.3648 32.5916 6.77735 33.0631C7.60245 33.8882 8.72223 34.3007 9.78307 34.3007C10.8439 34.3007 11.9637 33.8882 12.7888 33.0631L11.9637 32.238C10.785 33.4167 8.8401 33.4167 7.60245 32.238C7.42564 32.0612 7.24884 31.8254 7.13097 31.5897H10.1956V30.4109H6.77735C6.77735 30.2341 6.77735 29.9984 6.77735 29.8216H10.1956V28.6429H7.13097C7.24884 28.4071 7.42564 28.1714 7.60245 27.9946C8.78116 26.698 10.726 26.698 11.9048 27.8767Z" fill="black"/>
<path d="M9.78307 6.36475C10.6082 6.36475 11.3743 6.65943 11.9637 7.24878L12.7888 6.42369C11.9637 5.59859 10.9029 5.18604 9.78307 5.18604C8.66329 5.18604 7.60245 5.65752 6.77735 6.42369C6.3648 6.83624 6.01119 7.36666 5.83438 7.95601H4.41992V9.13473H5.59864C5.59864 9.31153 5.59864 9.54728 5.59864 9.72408H4.41992V10.9028H5.83438C6.07012 11.4332 6.3648 11.9636 6.77735 12.4351C7.60245 13.2602 8.66329 13.6728 9.78307 13.6728C10.9029 13.6728 11.9637 13.2013 12.7888 12.4351L11.9637 11.61C11.3743 12.1994 10.6082 12.4941 9.78307 12.4941C8.95797 12.4941 8.19181 12.1994 7.60245 11.61C7.42564 11.4332 7.24884 11.1975 7.13097 10.9617H10.1956V9.78302H6.77735C6.77735 9.60621 6.77735 9.37047 6.77735 9.19366H10.1956V8.01495H7.13097C7.24884 7.77921 7.42564 7.54346 7.60245 7.36666C8.19181 6.65943 8.95797 6.36475 9.78307 6.36475Z" fill="black"/>
<path d="M22.8079 16.9734L23.633 16.1483C21.9828 14.4981 19.2718 14.4981 17.6216 16.1483C17.209 16.5608 16.8554 17.0913 16.6786 17.6806H15.2642V18.8593H16.4429C16.4429 19.0361 16.4429 19.2719 16.4429 19.4487H15.2642V20.6274H16.6786C16.9144 21.1578 17.209 21.6883 17.6216 22.1597C18.4467 22.9848 19.5665 23.3974 20.6273 23.3974C21.7471 23.3974 22.8079 22.9848 23.633 22.1597L22.8079 21.3346C21.6292 22.5134 19.6843 22.5134 18.4467 21.3346C18.2699 21.1578 18.0931 20.9221 17.9752 20.6863H21.0399V19.5076H17.6216C17.6216 19.3308 17.6216 19.0951 17.6216 18.9183H21.0399V17.7396H17.9752C18.0931 17.5038 18.2699 17.2681 18.4467 17.0913C19.6843 15.7947 21.6292 15.7947 22.8079 16.9734Z" fill="black"/>
<path d="M20.3328 9.72439C19.8024 9.72439 19.3309 9.78333 18.8594 9.84226C18.8594 9.72439 18.8594 9.54758 18.8594 9.42971C18.8594 4.24337 14.6161 0 9.42971 0C4.24337 0 0 4.24337 0 9.42971C0 14.6161 4.24337 18.8594 9.42971 18.8594C9.9012 18.8594 10.4316 18.8005 10.9031 18.7416C10.9031 18.8594 10.9031 19.0362 10.9031 19.1541C10.9031 19.6845 10.962 20.2149 11.021 20.7454C10.4906 20.6275 9.96013 20.6275 9.42971 20.6275C4.24337 20.6275 0 24.8709 0 30.0572C0 35.2435 4.24337 39.4869 9.42971 39.4869C14.6161 39.4869 18.8594 35.2435 18.8594 30.0572C18.8594 29.5268 18.8005 28.9374 18.7416 28.4659C19.272 28.5838 19.8024 28.5838 20.3328 28.5838C25.5192 28.5838 29.7625 24.3404 29.7625 19.1541C29.7625 13.9678 25.5781 9.72439 20.3328 9.72439ZM9.48865 17.6218C4.9506 17.6218 1.23765 13.9088 1.23765 9.37078C1.23765 4.83273 4.9506 1.11978 9.48865 1.11978C14.0267 1.11978 17.7396 4.83273 17.7396 9.37078C17.7396 9.60652 17.7396 9.84226 17.6807 10.078C14.3214 11.0799 11.7282 13.9088 11.0799 17.445C10.5495 17.6218 10.0191 17.6218 9.48865 17.6218ZM9.48865 38.3082C4.9506 38.3082 1.23765 34.5953 1.23765 30.0572C1.23765 25.5192 4.9506 21.8062 9.48865 21.8062C14.0267 21.8062 17.7396 25.5192 17.7396 30.0572C17.7396 34.5953 13.9678 38.3082 9.48865 38.3082ZM20.3328 27.4051C19.6845 27.4051 19.0362 27.3462 18.3879 27.1694C17.445 24.2815 15.2054 22.042 12.3176 21.099C12.1408 20.4507 12.0818 19.8024 12.0818 19.1541C12.0818 14.6161 15.7948 10.9031 20.3328 10.9031C24.8709 10.9031 28.5838 14.6161 28.5838 19.1541C28.5838 23.6922 24.8709 27.4051 20.3328 27.4051Z" fill="black"/>
</svg>
