<svg width="35" height="32" viewBox="0 0 35 32" fill="none" xmlns="http://www.w3.org/2000/svg">
<path d="M31.678 0H3.32203C1.48305 0 0 1.47059 0 3.29412V28.7059C0 30.5294 1.48305 32 3.32203 32H31.678C33.517 32 35 30.5294 35 28.7059V3.29412C35 1.47059 33.517 0 31.678 0ZM29.5424 8.88235V14.7647H26.339V8.88235H29.5424ZM25.3898 8.88235V14.7647H22.1864V8.88235H25.3898ZM21.178 8.88235V14.7647H17.9746V8.88235H21.178ZM17.0254 14.7647H13.822V8.88235H17.0254V14.7647ZM12.8729 8.88235V14.7647H9.66949V8.88235H12.8729ZM8.66102 8.88235V14.7647H5.45763V8.88235H8.66102ZM16.9068 28.7647V24.1765H14.5339L18.0932 18.2353V22.8235H20.4661L16.9068 28.7647Z" fill="black"/>
</svg>
