<svg width="49" height="29" viewBox="0 0 49 29" fill="none" xmlns="http://www.w3.org/2000/svg">
<path d="M42.198 5.36315V0H0V28.9964H42.198V23.6332H40.9014V27.6998H1.35552V2.00381L18.1522 15.0875C19.0362 15.7358 20.0381 16.0894 21.099 16.0894C22.1598 16.0894 23.1617 15.7358 24.0458 15.0875L40.9014 1.94488V5.30421H42.198V5.36315ZM23.2207 14.0856C21.983 15.0875 20.2149 15.0875 18.9773 14.0856L2.59317 1.29659H39.6048L23.2207 14.0856Z" fill="black"/>
<path d="M41.5494 7.24902C37.5418 7.24902 34.3003 10.4905 34.3003 14.4981C34.3003 18.5057 37.5418 21.7472 41.5494 21.7472C45.557 21.7472 48.7985 18.5057 48.7985 14.4981C48.7985 10.4905 45.557 7.24902 41.5494 7.24902ZM41.1368 17.8574L40.1939 16.9145L41.9619 15.1464H38.6026V13.8498H41.9619L40.1939 12.0818L41.1368 11.1388L44.4962 14.4981L41.1368 17.8574Z" fill="black"/>
</svg>
