<svg width="182" height="43" viewBox="0 0 182 43" fill="none" xmlns="http://www.w3.org/2000/svg">
<path d="M6.24188 7.76538C10.2936 7.76538 12.3742 10.1745 12.3742 14.4453V15.3213H8.43201V14.2263C8.43201 12.3647 7.66546 11.5981 6.35138 11.5981C5.0373 11.5981 4.27076 12.2552 4.27076 14.2263C4.27076 19.7016 12.3742 20.6872 12.3742 28.2431C12.3742 32.5139 10.2936 34.923 6.13237 34.923C2.08063 34.923 0 32.5139 0 28.2431V26.6005H3.94224V28.4621C3.94224 30.3237 4.81829 30.9808 6.13237 30.9808C7.44645 30.9808 8.3225 30.3237 8.3225 28.4621C8.3225 22.9868 0.219013 22.0012 0.219013 14.4453C0.109507 10.284 2.19013 7.76538 6.24188 7.76538Z" fill="white"/>
<path d="M19.1637 8.09399V28.4622C19.1637 30.3238 20.0397 30.9809 21.3538 30.9809C22.6679 30.9809 23.544 30.3238 23.544 28.4622V8.09399H27.4862V28.2432C27.4862 32.514 25.4056 34.9231 21.2443 34.9231C17.1926 34.9231 15.0024 32.514 15.0024 28.2432V8.09399H19.1637Z" fill="white"/>
<path d="M34.4945 15.4309V34.5946H30.7712V8.09399H36.0276L40.1888 23.9725V8.09399H43.912V34.4851H39.6413L34.4945 15.4309Z" fill="white"/>
<path d="M53.0013 7.76538C57.053 7.76538 59.1337 10.1745 59.1337 14.4453V15.3213H55.1914V14.2263C55.1914 12.3647 54.4249 11.5981 53.1108 11.5981C51.7967 11.5981 51.0302 12.2552 51.0302 14.2263C51.0302 19.7016 59.1337 20.6872 59.1337 28.2431C59.1337 32.5139 57.053 34.923 52.8918 34.923C48.7305 34.923 46.6499 32.5139 46.6499 28.2431V26.6005H50.5921V28.4621C50.5921 30.3237 51.4682 30.9808 52.7823 30.9808C54.0964 30.9808 54.9724 30.3237 54.9724 28.4621C54.9724 22.9868 46.8689 22.0012 46.8689 14.4453C46.8689 10.284 48.9495 7.76538 53.0013 7.76538Z" fill="white"/>
<path d="M75.45 34.5945H71.2888L70.5222 29.7762H65.3754L64.6089 34.5945H60.7761L65.0469 8.20337H71.1793L75.45 34.5945ZM65.9229 26.1625H69.9747L68.0036 12.8026L65.9229 26.1625Z" fill="white"/>
<path d="M81.8014 25.8341L76.4355 8.09399H80.8158L83.9915 20.1397L87.1672 8.09399H91.1094L85.8531 25.7246V34.4851H81.6919L81.8014 25.8341Z" fill="white"/>
<path d="M141.373 15.4309V34.5946H137.65V8.09399H142.906L147.177 23.8629V8.09399H150.9V34.4851H146.629L141.373 15.4309Z" fill="white"/>
<path d="M163.055 34.5946C162.836 33.9376 162.617 33.4995 162.617 31.3094V27.1481C162.617 24.739 161.741 23.7534 159.88 23.7534H158.456V34.4851H154.295V8.09399H160.537C164.808 8.09399 166.669 10.0651 166.669 14.1169V16.307C166.669 19.0447 165.793 20.7968 163.932 21.6728C166.012 22.5489 166.669 24.52 166.669 27.2577V31.3094C166.669 32.6235 166.669 33.4995 167.107 34.4851L163.055 34.5946ZM158.456 11.9267V20.0302H160.099C161.632 20.0302 162.617 19.3732 162.617 17.183V14.5549C162.617 12.6933 161.96 11.8172 160.537 11.8172H158.456V11.9267Z" fill="white"/>
<path d="M176.196 19.8111H182V28.2431C182 32.5139 179.919 34.923 175.868 34.923C171.816 34.923 169.735 32.5139 169.735 28.2431V14.4453C169.735 10.1745 171.816 7.76538 175.868 7.76538C179.919 7.76538 182 10.1745 182 14.4453V17.0734H178.058V14.2263C178.058 12.3647 177.182 11.5981 175.868 11.5981C174.554 11.5981 173.678 12.2552 173.678 14.2263V28.4621C173.678 30.3237 174.554 30.9808 175.868 30.9808C177.182 30.9808 178.058 30.3237 178.058 28.4621V23.5343H176.196V19.8111Z" fill="white"/>
<path d="M107.097 28.2433C100.527 22.0014 100.308 11.4888 106.659 5.02791C113.011 -1.43298 123.414 -1.7615 129.875 4.58989" fill="white"/>
<path d="M120.238 14.2266C126.809 20.4684 127.028 30.9811 120.676 37.442C114.325 43.9029 104.031 44.2314 97.4609 37.9895" fill="white"/>
<path d="M126.699 7.76567C121.991 3.2759 114.435 3.3854 109.945 8.09419C105.455 12.803 105.565 20.2494 110.164 24.7392L100.637 34.5948C105.346 39.0846 112.901 38.9751 117.391 34.2663C121.881 29.5575 121.771 22.111 117.172 17.6213L126.699 7.76567Z" fill="#FFE564"/>
</svg>
