<svg width="92" height="93" viewBox="0 0 92 93" fill="none" xmlns="http://www.w3.org/2000/svg">
<g clip-path="url(#clip0)">
<path d="M72.0605 93H19.9395C8.90323 93 0 84 0 72.8438V20.1562C0 9 8.90323 0 19.9395 0H72.1532C83.1895 0 92.0928 9 92.0928 20.1562V72.9375C92 84 83.0968 93 72.0605 93Z" fill="#FFD100"/>
<path d="M35.4273 48.75C40.8991 48.75 45.3507 43.0313 45.3507 36C45.3507 35.4375 45.3507 35.25 45.3507 35.25H25.5039C25.5039 35.25 25.5039 35.4375 25.5039 36C25.5039 43.0313 29.9555 48.75 35.4273 48.75Z" fill="black"/>
<path d="M44.5159 49.7812H43.6812C41.7337 52.9688 38.7659 55.0313 35.4272 55.0313C32.0885 55.0313 29.028 52.9688 27.1732 49.7812H26.3385C20.2175 49.7812 15.2095 54.8438 15.2095 61.0313V72.8438H55.645V61.0313C55.645 54.8438 50.6369 49.7812 44.5159 49.7812Z" fill="black"/>
<path d="M22.9997 33.4688H47.8545C48.2255 33.4688 48.5965 33.1875 48.5965 32.7188C48.5965 32.25 48.3182 31.9688 47.8545 31.9688H46.9271C46.0924 27 43.3102 22.875 39.6005 21.0938V24.5625C39.6005 24.9375 39.3223 25.2188 38.9513 25.2188H37.5602C37.1892 25.2188 36.911 24.9375 36.911 24.5625V20.1563C36.4473 20.0625 35.8908 20.0625 35.3344 20.0625C34.7779 20.0625 34.3142 20.0625 33.7578 20.1563V24.5625C33.7578 24.9375 33.4795 25.2188 33.1086 25.2188H31.7174C31.3465 25.2188 31.0682 24.9375 31.0682 24.5625V21.0938C27.4513 22.875 24.669 27 23.7416 31.9688H22.8142C22.4432 31.9688 22.0723 32.25 22.0723 32.7188C22.0723 33.1875 22.6287 33.4688 22.9997 33.4688Z" fill="black"/>
<path d="M59.6329 52.4062C64.27 52.4062 68.0724 47.5312 68.0724 41.625C68.0724 41.1562 68.0724 41.1562 68.0724 41.1562H51.1934C51.1934 41.1562 51.1934 41.1562 51.1934 41.625C51.1934 47.5312 54.9958 52.4062 59.6329 52.4062Z" fill="black"/>
<path d="M67.3302 53.25H66.681C65.1044 55.9688 62.5076 57.6563 59.6326 57.6563C58.427 57.6563 57.2213 57.375 56.2012 56.8125C56.6649 58.125 56.9431 59.5312 56.9431 61.0313V72.8438H76.7899V62.8125C76.7899 57.5625 72.5238 53.25 67.3302 53.25Z" fill="black"/>
<path d="M49.0603 39.4688H70.1127C70.4837 39.4688 70.7619 39.1875 70.7619 38.8125C70.7619 38.4375 70.4837 38.1563 70.1127 38.1563H69.278C68.5361 33.9375 66.2176 30.4687 63.0643 28.875V31.875C63.0643 32.1563 62.7861 32.4375 62.5079 32.4375H61.3022C61.024 32.4375 60.7458 32.1563 60.7458 31.875V28.2188C60.4676 28.125 60.0966 28.125 59.6329 28.125C59.1692 28.125 58.7055 28.125 58.3345 28.2188V31.875C58.3345 32.1563 58.0563 32.4375 57.778 32.4375H56.5724C56.2942 32.4375 56.0159 32.1563 56.0159 31.875V28.875C52.9555 30.375 50.5442 33.8438 49.8022 38.1563H48.9676C48.5966 38.1563 48.3184 38.4375 48.3184 38.8125C48.5038 39.1875 48.7821 39.4688 49.0603 39.4688Z" fill="black"/>
</g>
<defs>
<clipPath id="clip0">
<rect width="92" height="93" fill="white"/>
</clipPath>
</defs>
</svg>
