<svg width="31" height="41" viewBox="0 0 31 41" fill="none" xmlns="http://www.w3.org/2000/svg">
<path d="M26.6049 21.5281V14.9475H23.5203C24.24 13.9192 24.7027 12.6854 24.7027 11.2973C24.7027 7.85271 21.8751 5.02509 18.4306 5.02509C18.0707 5.02509 17.7108 5.0765 17.3509 5.12791C16.5797 2.55735 14.112 0.706543 11.3872 0.706543C7.94265 0.706543 5.11503 3.53416 5.11503 6.97872C5.11503 10.4233 7.94265 13.2509 11.3872 13.2509C11.7471 13.2509 12.107 13.1995 12.4668 13.1481C12.6725 13.8164 12.981 14.3819 13.3408 14.9475H4.0868C1.97894 14.9475 0.230957 16.6955 0.230957 18.8033V36.4374C0.230957 38.5452 1.97894 40.2932 4.0868 40.2932H30.7178V34.3809V28.7257V21.5281H26.6049ZM20.7955 21.5281C20.6412 19.9858 19.9215 18.5463 18.8418 17.518C18.8933 17.518 18.9447 17.518 18.9961 17.518C19.0475 17.518 19.0989 17.518 19.0989 17.518C19.1503 17.518 19.2017 17.518 19.2531 17.518C19.3045 17.518 19.356 17.518 19.356 17.518C19.4074 17.518 19.4588 17.518 19.5102 17.4666C19.5616 17.4666 19.5616 17.4666 19.613 17.4666C19.6644 17.4666 19.7158 17.4152 19.8187 17.4152C19.8701 17.4152 19.8701 17.4152 19.9215 17.4152C19.9729 17.4152 20.0757 17.3638 20.1271 17.3638C20.1785 17.3638 20.1785 17.3638 20.2299 17.3638C20.3328 17.3124 20.3842 17.3124 20.487 17.261C20.487 17.261 20.487 17.261 20.5384 17.261C21.2582 17.0039 21.9265 16.5926 22.492 16.0785H25.4739V21.5795H20.7955V21.5281ZM14.5747 16.9011C17.2481 16.9011 19.4588 18.9061 19.7158 21.5281H9.43358C9.69063 18.9576 11.9013 16.9011 14.5747 16.9011ZM23.5717 11.2973C23.5717 12.7882 22.9033 14.1763 21.8751 15.1017C21.8237 15.1531 21.7723 15.2045 21.7209 15.2559C21.6695 15.3073 21.6181 15.3588 21.5666 15.4102C21.5152 15.4616 21.4638 15.513 21.361 15.5644C21.3096 15.6158 21.2582 15.6672 21.1553 15.6672C21.1039 15.7186 21.0525 15.7186 20.9497 15.7701C20.9497 15.7701 20.9497 15.7701 20.8983 15.7701C20.8469 15.8215 20.7955 15.8215 20.6927 15.8729H20.6412C20.5898 15.9243 20.5384 15.9243 20.487 15.9757H20.4356C20.3842 15.9757 20.3328 16.0271 20.2814 16.0271C20.2814 16.0271 20.2299 16.0271 20.2299 16.0785C20.1785 16.0785 20.1271 16.1299 20.0757 16.1299C20.0243 16.1299 20.0243 16.1299 19.9729 16.1813C19.9215 16.1813 19.8701 16.2328 19.8187 16.2328C19.7672 16.2328 19.7672 16.2328 19.7158 16.2328C19.6644 16.2328 19.613 16.2328 19.5616 16.2842C19.5102 16.2842 19.5102 16.2842 19.4588 16.2842C19.4074 16.2842 19.356 16.2842 19.3045 16.2842C19.2531 16.2842 19.2531 16.2842 19.2017 16.2842C19.1503 16.2842 19.0989 16.2842 19.0475 16.2842C18.9961 16.2842 18.9961 16.2842 18.9447 16.2842C18.8933 16.2842 18.8418 16.2842 18.7904 16.2842C18.739 16.2842 18.739 16.2842 18.6876 16.2842C18.5848 16.2842 18.5334 16.2842 18.4306 16.2842C18.3277 16.2842 18.2763 16.2842 18.1735 16.2842C18.1221 16.2842 18.1221 16.2842 18.0707 16.2842C18.0193 16.2842 17.9679 16.2842 17.9164 16.2842C17.865 16.2842 17.865 16.2842 17.8136 16.2842C17.7622 16.2842 17.7108 16.2842 17.6594 16.2842C17.608 16.2842 17.608 16.2842 17.5566 16.2842C17.5051 16.2842 17.4537 16.2842 17.4023 16.2842C17.3509 16.2842 17.3509 16.2842 17.2995 16.2842C17.2481 16.2842 17.1967 16.2842 17.1453 16.2328C17.0939 16.2328 17.0939 16.2328 17.0424 16.2328C16.991 16.2328 16.9396 16.1813 16.8882 16.1813C16.8368 16.1813 16.8368 16.1813 16.7854 16.1299C16.734 16.1299 16.6826 16.0785 16.6312 16.0785C16.6312 16.0785 16.5797 16.0785 16.5797 16.0271C16.5283 16.0271 16.4769 15.9757 16.4255 15.9757H16.3741C16.3227 15.9757 16.2713 15.9243 16.2199 15.8729H16.1685C16.117 15.8215 16.0656 15.8215 15.9628 15.7701C15.9628 15.7701 15.9628 15.7701 15.9114 15.7701C15.86 15.7186 15.8086 15.7186 15.7058 15.6672C15.6543 15.6158 15.6029 15.5644 15.5001 15.5644C15.4487 15.513 15.3973 15.4616 15.2945 15.4102C15.2431 15.3588 15.1916 15.3073 15.1402 15.2559C15.0888 15.2045 15.0374 15.1531 14.986 15.1017C14.2148 14.3819 13.6493 13.4051 13.3922 12.3255C13.3922 12.2741 13.3408 12.1713 13.3408 12.1198C13.3408 12.1198 13.3408 12.1198 13.3408 12.0684C13.2894 11.8114 13.2894 11.5543 13.2894 11.2459C13.2894 11.143 13.2894 11.0916 13.2894 10.9888C13.2894 10.9374 13.2894 10.9374 13.2894 10.886C13.2894 10.8346 13.2894 10.7832 13.2894 10.7317C13.2894 10.6803 13.2894 10.6803 13.2894 10.6289C13.2894 10.5775 13.2894 10.5261 13.2894 10.5261C13.2894 10.4747 13.2894 10.4233 13.2894 10.4233C13.2894 10.3719 13.2894 10.3719 13.2894 10.3205C13.3408 10.1148 13.3408 9.96058 13.4437 9.75493C13.4437 9.70352 13.4951 9.65211 13.4951 9.6007C13.4951 9.6007 13.4951 9.6007 13.4951 9.54928C13.4951 9.49787 13.5465 9.44646 13.5465 9.39505C13.5465 9.39505 13.5465 9.39505 13.5465 9.34364C13.6493 9.08658 13.7521 8.88094 13.9064 8.62388C13.9064 8.62388 13.9064 8.57247 13.9578 8.57247C13.9578 8.52106 14.0092 8.46965 14.0092 8.46965C14.0092 8.41824 14.0606 8.41824 14.0606 8.36682C14.0606 8.31541 14.112 8.31541 14.112 8.264C14.112 8.21259 14.1634 8.21259 14.1634 8.16118C14.1634 8.10977 14.2148 8.10977 14.2148 8.05836C14.2662 8.00695 14.3176 7.95553 14.3176 7.90412C14.4205 7.8013 14.5233 7.64707 14.6261 7.54424C14.986 7.18436 15.3973 6.8759 15.8086 6.67025C15.86 6.61884 15.9628 6.61884 16.0142 6.56743C16.0142 6.56743 16.0142 6.56743 16.0656 6.56743C16.117 6.51602 16.1685 6.51602 16.2713 6.46461C16.2713 6.46461 16.2713 6.46461 16.3227 6.46461C16.3741 6.4132 16.4769 6.4132 16.5283 6.36178C16.5797 6.31037 16.6826 6.31037 16.734 6.31037C16.7854 6.31037 16.7854 6.31037 16.8368 6.25896C16.8882 6.25896 16.9396 6.20755 16.991 6.20755C17.4023 6.10473 17.8136 6.05332 18.2763 6.05332C21.2582 6.15614 23.5717 8.46965 23.5717 11.2973ZM12.2098 12.0684C11.9013 12.1198 11.6443 12.1198 11.3358 12.1198C8.50817 12.1198 6.19467 9.80634 6.19467 6.97872C6.19467 4.1511 8.50817 1.83759 11.3358 1.83759C13.5979 1.83759 15.6029 3.32852 16.2713 5.43638C16.1685 5.48779 16.117 5.48779 16.0142 5.5392H15.9628C15.86 5.59062 15.8086 5.59062 15.7058 5.64203C15.7058 5.64203 15.7058 5.64203 15.6543 5.64203C15.0374 5.95049 14.4719 6.36178 13.9578 6.82449C13.9064 6.8759 13.8549 6.97872 13.7521 7.03013C13.7007 7.08154 13.6493 7.18436 13.5465 7.23578C13.4951 7.28719 13.4437 7.39001 13.3922 7.44142C13.3922 7.49283 13.3408 7.49283 13.3408 7.54424C13.2894 7.59566 13.2894 7.64707 13.238 7.69848C13.1866 7.74989 13.1866 7.74989 13.1866 7.8013C13.1866 7.85271 13.1352 7.85271 13.1352 7.90412C13.0838 7.95553 13.0838 8.00695 13.0324 8.05836C13.0324 8.05836 13.0324 8.05836 13.0324 8.10977C12.981 8.21259 12.8781 8.36683 12.8267 8.46965C12.7753 8.52106 12.7753 8.57247 12.7239 8.67529V8.7267C12.6725 8.82953 12.6211 8.88094 12.6211 8.98376C12.5183 9.18941 12.4668 9.39505 12.4154 9.6007V9.65211C12.4154 9.70352 12.364 9.75493 12.364 9.85775C12.364 9.90916 12.364 9.90916 12.364 9.96058C12.364 10.012 12.3126 10.0634 12.3126 10.1148C12.3126 10.1662 12.3126 10.2176 12.3126 10.269C12.3126 10.3205 12.3126 10.4233 12.2612 10.4747C12.2612 10.5261 12.2612 10.5775 12.2612 10.6289C12.2612 10.6803 12.2612 10.7317 12.2612 10.7317C12.2612 10.7832 12.2612 10.8346 12.2612 10.9374C12.2612 10.9888 12.2612 10.9888 12.2612 11.0402C12.2612 11.143 12.2612 11.2459 12.2612 11.3487C12.2612 11.4515 12.2612 11.5543 12.2612 11.6571V11.7086C12.2612 11.8114 12.2612 11.8628 12.2612 11.9656C12.2612 12.017 12.2612 12.017 12.2612 12.0684C12.2098 12.017 12.2098 12.0684 12.2098 12.0684ZM4.0868 16.0271H12.981C10.4618 16.6955 8.55959 18.8547 8.30253 21.5281H4.0868C2.54447 21.5281 1.31059 20.2942 1.31059 18.7519C1.31059 17.2096 2.59588 16.0271 4.0868 16.0271ZM29.6382 33.3013H22.3378V29.8053H29.6382V33.3013ZM22.235 28.7257C21.7209 28.7257 21.2582 29.137 21.2582 29.7025V33.4555C21.2582 33.9697 21.6695 34.4323 22.235 34.4323H29.6382V39.2136H4.0868C2.54447 39.2136 1.31059 37.9797 1.31059 36.4374V21.4767C2.03035 22.1965 3.00717 22.6592 4.0868 22.6592H8.30253H20.8469H26.0394H26.6049H29.6896V28.7257H22.235Z" fill="white"/>
<path d="M15.7572 10.012H14.729V11.0916H15.5002C15.5002 11.1945 15.5002 11.2973 15.5002 11.4001H14.729V12.4797H15.7572C15.9115 12.891 16.1685 13.2509 16.477 13.6108C17.1453 14.2791 17.9679 14.5876 18.8419 14.5876C19.7159 14.5876 20.5385 14.2791 21.2068 13.6108L20.4357 12.8396C19.5617 13.7136 18.1222 13.7136 17.2482 12.8396C17.1453 12.7368 17.0425 12.634 16.9397 12.4797H19.099V11.4001H16.5798C16.5798 11.2973 16.5798 11.1945 16.5798 11.0916H19.099V10.012H16.9397C17.0425 9.90918 17.0939 9.75495 17.2482 9.65212C18.1222 8.77813 19.5617 8.77813 20.4357 9.65212L21.2068 8.88095C19.9215 7.59567 17.8137 7.59567 16.477 8.88095C16.1685 9.18942 15.9115 9.60071 15.7572 10.012Z" fill="white"/>
</svg>
