<svg width="93" height="92" viewBox="0 0 93 92" fill="none" xmlns="http://www.w3.org/2000/svg">
<g clip-path="url(#clip0)">
<path d="M72.8438 92H20.1563C9 92 0 83.0968 0 72.0605V19.9395C0 8.90323 9 0 20.1563 0H72.9375C84.0938 0 93.0938 8.90323 93.0938 19.9395V72.1532C93 83.0968 84 92 72.8438 92Z" fill="#FFD100"/>
<path d="M29.625 36.8185C30.8438 35.6129 31.7812 34.5927 32.1562 33.6653C32.625 32.7379 32.8125 31.8105 32.8125 30.6976C32.8125 29.0282 32.1562 27.6371 30.9375 26.6169C29.7188 25.5968 28.0312 25.1331 25.875 25.1331C24.2812 25.1331 22.875 25.4113 21.5625 25.9677C20.25 26.5242 19.2188 27.2661 18.4688 28.2863L21 30.2339C22.0312 28.9355 23.5312 28.1935 25.5937 28.1935C26.8125 28.1935 27.6563 28.4718 28.3125 28.9355C28.9688 29.3992 29.25 30.1411 29.25 30.9758C29.25 31.625 29.0625 32.1814 28.7813 32.8306C28.5 33.4798 27.8437 34.129 27 34.9637L19.3125 42.1976V44.6089H33.6563V41.7339H24.375L29.625 36.8185Z" fill="black"/>
<path d="M45.6563 44.7017H49.125V40.3428H52.5938V37.2823H49.125V25.4114H48.375H45.75H44.5313L34.9688 37.8388V40.3428H45.6563V44.7017ZM39.375 37.2823L45.75 28.9356V37.2823H39.375Z" fill="black"/>
<path d="M70.3125 25.2258L34.125 66.867H38.3437L74.5312 25.2258H70.3125Z" fill="black"/>
<path d="M58.3125 50.6371H69.375L62.0625 66.867H65.9062L73.5 49.988V47.5767H58.3125V50.6371Z" fill="black"/>
</g>
<defs>
<clipPath id="clip0">
<rect width="93" height="92" fill="white"/>
</clipPath>
</defs>
</svg>
