<svg width="37" height="56" viewBox="0 0 37 56" fill="none" xmlns="http://www.w3.org/2000/svg">
<path d="M37 32.2814C37 29.4103 32.556 26.3644 25.0162 25.2159V21.8954H36.5256L18.5 0L0.499325 21.8954H12.0088V25.2159C4.46896 26.3644 0 29.4103 0 32.2814C0 32.3563 0 32.4062 0 32.4811C0 32.5061 0 32.556 0 32.581V40.0709C0 40.1208 0 40.1957 0 40.2456C0 40.2706 0 40.3205 0 40.3455V47.8354C0 51.4555 7.06545 55.3752 18.5 55.3752C29.9345 55.3752 37 51.4555 37 47.8354V40.3455C37 40.3205 37 40.2706 37 40.2456C37 40.1957 37 40.1208 37 40.0709V32.581C37 32.556 37 32.5061 37 32.4811C37 32.4062 37 32.3563 37 32.2814ZM2.59649 20.8968L18.5 1.54791L34.4285 20.8968H24.0175V25.0661C22.3198 24.8664 20.4723 24.7416 18.5 24.7416C16.5277 24.7416 14.7051 24.8664 13.0074 25.0661V20.8968H2.59649ZM18.5 25.7402C29.7598 25.7402 36.0014 29.61 36.0014 32.2814C36.0014 34.9528 29.7598 38.8225 18.5 38.8225C7.24022 38.8225 0.99865 34.9528 0.99865 32.2814C0.99865 29.61 7.24022 25.7402 18.5 25.7402ZM36.0014 47.8354C36.0014 50.5068 29.7598 54.3765 18.5 54.3765C7.24022 54.3765 0.99865 50.5068 0.99865 47.8354V42.4676C3.32051 45.2389 9.58704 47.6107 18.5 47.6107C27.413 47.6107 33.6795 45.2389 36.0014 42.4676V47.8354ZM36.0014 40.0709C36.0014 42.7422 29.7598 46.612 18.5 46.612C7.24022 46.612 0.99865 42.7422 0.99865 40.0709V34.6781C3.32051 37.4494 9.58704 39.8212 18.5 39.8212C27.413 39.8212 33.6795 37.4494 36.0014 34.6781V40.0709Z" fill="black"/>
</svg>
