<svg width="41" height="39" viewBox="0 0 41 39" fill="none" xmlns="http://www.w3.org/2000/svg">
<path d="M14.6907 19.0889L9.44673 24.0758V25.7209H19.1635V23.6645H12.9427L16.4387 20.3228C17.3127 19.5002 17.8782 18.8318 18.1867 18.1635C18.4951 17.5465 18.6494 16.8782 18.6494 16.1584C18.6494 14.976 18.2381 14.0506 17.3641 13.3822C16.4901 12.7139 15.359 12.354 13.9195 12.354C12.8399 12.354 11.8631 12.5596 10.9891 12.9195C10.1151 13.2794 9.44673 13.8449 8.93262 14.5133L10.6292 15.85C11.3489 14.9246 12.3772 14.4619 13.7139 14.4619C14.5364 14.4619 15.102 14.6161 15.5133 14.976C15.9246 15.2844 16.1302 15.7471 16.1302 16.3641C16.1302 16.7754 16.0274 17.1867 15.8217 17.598C15.6675 18.0092 15.2562 18.5234 14.6907 19.0889Z" fill="white"/>
<path d="M26.9264 23.2016C26.4123 23.5615 25.7439 23.7157 24.8699 23.7157C24.1502 23.7157 23.4304 23.6129 22.7621 23.3558C22.0937 23.0988 21.4768 22.7903 21.0141 22.4304L19.9858 24.3327C20.6028 24.7954 21.3225 25.2067 22.1965 25.4637C23.0705 25.7208 23.9959 25.875 24.9213 25.875C26.0524 25.875 27.0292 25.6694 27.8004 25.3095C28.5715 24.9496 29.137 24.4355 29.5483 23.7671C29.9596 23.1502 30.1139 22.4304 30.1139 21.6079C30.1139 20.374 29.6512 19.3972 28.7772 18.6774C27.9032 17.9577 26.5151 17.5978 24.6643 17.5978H23.4304L23.6875 14.5645H29.3427V12.5081H21.631L20.9627 19.6542H24.1502C25.4354 19.6542 26.3608 19.8085 26.875 20.1683C27.3891 20.5282 27.6975 21.0423 27.6975 21.7107C27.6975 22.379 27.4405 22.8417 26.9264 23.2016Z" fill="white"/>
<path d="M37.4143 14.2047C37.9285 15.9013 38.1855 17.7007 38.1855 19.5001C38.1855 29.5767 30.0111 37.7511 19.9345 37.7511C9.85789 37.7511 1.73491 29.5767 1.73491 19.5001C1.73491 9.42346 9.90931 1.24907 19.9859 1.24907C23.9446 1.24907 27.749 2.48294 30.9365 4.89927L31.6049 4.02528C28.2117 1.50613 24.2016 0.169434 19.9859 0.169434C9.29237 0.169434 0.655273 8.85794 0.655273 19.5001C0.655273 30.1422 9.34378 38.8307 19.9859 38.8307C30.6281 38.8307 39.3166 30.1422 39.3166 19.5001C39.3166 17.5979 39.0595 15.6956 38.494 13.8962L37.4143 14.2047Z" fill="white"/>
<path d="M29.3428 7.77823L33.6613 14.8216L40.3448 3.66533L38.5968 2.58569L33.6613 10.8115L31.0908 6.64719L29.3428 7.77823Z" fill="white"/>
</svg>
